<svg width="15" height="15" viewBox="0 0 15 15" fill="none" xmlns="http://www.w3.org/2000/svg">
<path d="M8.74995 13.1248V9.9999H6.2499V13.1248C6.2499 13.47 5.97025 13.7503 5.62507 13.7503C5.2799 13.7503 5.00024 13.47 5.00024 13.1248V9.9999C5.00029 9.66844 5.13212 9.35088 5.3665 9.1165C5.60088 8.88212 5.91844 8.75029 6.2499 8.75024H8.74995C9.08147 8.75024 9.39967 8.88208 9.63409 9.1165C9.86833 9.35086 10.0003 9.66855 10.0003 9.9999V13.1248C10.0003 13.47 9.71996 13.7503 9.37478 13.7503C9.02974 13.7502 8.74995 13.4699 8.74995 13.1248Z" fill="white"/>
<path d="M10.6249 0.625244L10.7392 0.628174C11.005 0.644301 11.2647 0.717325 11.501 0.842066C11.77 0.984156 12.0008 1.18952 12.1727 1.44053L13.979 4.05631L14.0875 4.22698C14.3223 4.63654 14.4194 5.11297 14.3607 5.58505C14.2936 6.12445 14.0279 6.61957 13.6157 6.97389C13.2035 7.32816 12.6742 7.51666 12.1309 7.50203C11.5879 7.48737 11.0693 7.27113 10.6769 6.89551L10.6527 6.88013C10.6439 6.87658 10.6345 6.87428 10.6249 6.87427C10.6056 6.87427 10.5868 6.88215 10.5729 6.89551L10.5721 6.89624C10.1653 7.28425 9.62463 7.50052 9.06245 7.50056C8.50028 7.50056 7.95959 7.28419 7.55275 6.89624L7.55202 6.89551C7.53806 6.88217 7.51932 6.875 7.50001 6.875C7.48073 6.87502 7.46194 6.88219 7.448 6.89551V6.89624C7.0411 7.28454 6.50002 7.50129 5.93757 7.50129C5.37512 7.50129 4.83404 7.28455 4.42714 6.89624L4.42641 6.89551C4.41253 6.88224 4.39432 6.87435 4.37513 6.87427C4.35581 6.87427 4.33708 6.88215 4.32312 6.89551L4.32239 6.89624C3.92938 7.27126 3.41068 7.48675 2.86763 7.50056C2.32465 7.51437 1.79584 7.32544 1.3843 6.97096C0.972775 6.61641 0.707522 6.1212 0.640807 5.58212C0.574133 5.04308 0.710518 4.49824 1.02318 4.05411L2.82588 1.44346C2.99739 1.19201 3.22789 0.986134 3.49685 0.843531C3.76742 0.700126 4.06891 0.625202 4.37513 0.625244H10.6249ZM4.37513 1.8749C4.27302 1.87488 4.17234 1.90032 4.08213 1.94815C3.99195 1.99598 3.91451 2.06509 3.85725 2.14959L3.85432 2.15399L2.04869 4.76904L2.04576 4.77344C1.91175 4.96374 1.85315 5.1973 1.88168 5.4283C1.91025 5.65935 2.02393 5.87186 2.20032 6.02383C2.37667 6.17568 2.60347 6.25682 2.83613 6.2509C3.06878 6.24492 3.29113 6.15226 3.4595 5.9916C3.70602 5.75604 4.03413 5.62461 4.37513 5.62461C4.716 5.6247 5.0436 5.75613 5.29003 5.9916C5.46442 6.15802 5.69652 6.2509 5.93757 6.2509C6.17863 6.2509 6.41072 6.15802 6.58511 5.9916C6.83158 5.75623 7.15919 5.62463 7.50001 5.62461C7.84082 5.62461 8.16843 5.75627 8.41491 5.9916L8.48303 6.0502C8.64754 6.17949 8.8515 6.2509 9.06245 6.2509C9.30333 6.25086 9.53493 6.15784 9.70925 5.9916C9.95579 5.75596 10.2838 5.62461 10.6249 5.62461C10.9427 5.62463 11.248 5.73994 11.4878 5.94618C11.5062 5.96023 11.5242 5.97522 11.5413 5.9916C11.7095 6.15276 11.9317 6.24608 12.1646 6.25237C12.3975 6.25863 12.6245 6.17785 12.8012 6.02602C12.9778 5.87417 13.0911 5.66163 13.1198 5.43049C13.1485 5.19942 13.0904 4.96607 12.9565 4.77563L12.9535 4.77124V4.7705L11.1442 2.15106L11.142 2.14813C11.0847 2.06402 11.0072 1.99497 10.9172 1.94742C10.8273 1.9 10.7272 1.87491 10.6256 1.8749H4.37513Z" fill="white"/>
<path d="M1.87524 11.8754V6.84382C1.87524 6.49865 2.1549 6.21899 2.50007 6.21899C2.84525 6.21899 3.1249 6.49865 3.1249 6.84382V11.8754C3.12499 12.0411 3.1909 12.2 3.30803 12.3171C3.42516 12.4342 3.5841 12.5002 3.74973 12.5002H11.2499C11.4156 12.5002 11.5751 12.4343 11.6923 12.3171C11.8094 12.2 11.8753 12.041 11.8754 11.8754V6.84382C11.8754 6.49865 12.1551 6.21899 12.5003 6.21899C12.8454 6.2191 13.1251 6.49871 13.1251 6.84382V11.8754C13.125 12.3726 12.9273 12.8497 12.5757 13.2013C12.2241 13.5527 11.747 13.7499 11.2499 13.7499H3.74973C3.25257 13.7498 2.77544 13.5528 2.42389 13.2013C2.07234 12.8497 1.87534 12.3726 1.87524 11.8754Z" fill="white"/>
</svg>
