<svg width="37" height="38" viewBox="0 0 37 38" fill="none" xmlns="http://www.w3.org/2000/svg">
<path d="M0 18.5C0 8.28273 8.28273 0 18.5 0C28.7173 0 37 8.28273 37 18.5V19.5C37 29.7173 28.7173 38 18.5 38C8.28273 38 0 29.7173 0 19.5V18.5Z" fill="#569F87"/>
<g clip-path="url(#clip0_352_1968)">
<path d="M20.1848 25.4546C20.2101 25.5177 20.2542 25.5716 20.311 25.6089C20.3678 25.6463 20.4346 25.6654 20.5026 25.6637C20.5706 25.6619 20.6364 25.6394 20.6912 25.5992C20.746 25.559 20.7872 25.503 20.8093 25.4387L25.1409 12.7768C25.1623 12.7178 25.1663 12.6539 25.1527 12.5926C25.139 12.5313 25.1082 12.4752 25.0638 12.4308C25.0194 12.3864 24.9633 12.3556 24.902 12.3419C24.8407 12.3282 24.7768 12.3323 24.7178 12.3536L12.0559 16.6853C11.9916 16.7074 11.9356 16.7486 11.8954 16.8034C11.8552 16.8582 11.8327 16.924 11.8309 16.992C11.8292 17.0599 11.8483 17.1268 11.8856 17.1836C11.923 17.2404 11.9768 17.2844 12.0399 17.3098L17.3246 19.4289C17.4916 19.4958 17.6434 19.5959 17.7708 19.723C17.8982 19.8501 17.9984 20.0017 18.0656 20.1687L20.1848 25.4546Z" stroke="white" stroke-width="1.33283" stroke-linecap="round" stroke-linejoin="round"/>
<path d="M25.0615 12.4336L17.771 19.7235" stroke="white" stroke-width="1.33283" stroke-linecap="round" stroke-linejoin="round"/>
</g>
<defs>
<clipPath id="clip0_352_1968">
<rect width="15.9939" height="15.9939" fill="white" transform="translate(10.4978 11.0029)"/>
</clipPath>
</defs>
</svg>
