<svg width="34" height="34" viewBox="0 0 34 34" fill="none" xmlns="http://www.w3.org/2000/svg">
<path d="M23.4269 8.57069C23.9802 8.0175 24.8779 8.0174 25.4311 8.57069C25.9841 9.12389 25.984 10.0208 25.4311 10.5739L19.0035 16.9988L25.4311 23.4254C25.9843 23.9786 25.9844 24.8763 25.4311 25.4296C24.8779 25.9828 23.9802 25.9828 23.4269 25.4296L17.0012 19.0029L10.5755 25.4296C10.0223 25.9825 9.1254 25.9825 8.57222 25.4296C8.01898 24.8763 8.01898 23.9786 8.57222 23.4254L14.997 16.9997L8.57222 10.5739C8.01906 10.0207 8.01902 9.12389 8.57222 8.57069C9.12548 8.01754 10.0223 8.01749 10.5755 8.57069L17.0003 14.9964L23.4269 8.57069Z" fill="white"/>
</svg>
