<svg width="30" height="30" viewBox="0 0 30 30" fill="none" xmlns="http://www.w3.org/2000/svg">
<path d="M24 14.9995H11.9789M7.73578 14.9995H6M7.73578 14.9995C7.73578 14.4073 7.95925 13.8394 8.35703 13.4207C8.75481 13.002 9.29432 12.7668 9.85687 12.7668C10.4194 12.7668 10.9589 13.002 11.3567 13.4207C11.7545 13.8394 11.9779 14.4073 11.9779 14.9995C11.9779 15.5916 11.7545 16.1595 11.3567 16.5783C10.9589 16.997 10.4194 17.2322 9.85687 17.2322C9.29432 17.2322 8.75481 16.997 8.35703 16.5783C7.95925 16.1595 7.73578 15.5916 7.73578 14.9995ZM24 21.7663H18.4074M18.4074 21.7663C18.4074 22.3585 18.1833 22.9271 17.7855 23.3459C17.3876 23.7647 16.848 24 16.2853 24C15.7228 24 15.1832 23.7637 14.7855 23.345C14.3877 22.9263 14.1642 22.3584 14.1642 21.7663M18.4074 21.7663C18.4074 21.174 18.1833 20.6065 17.7855 20.1876C17.3876 19.7688 16.848 19.5335 16.2853 19.5335C15.7228 19.5335 15.1832 19.7688 14.7855 20.1875C14.3877 20.6062 14.1642 21.1741 14.1642 21.7663M14.1642 21.7663H6M24 8.23272H20.9789M16.7358 8.23272H6M16.7358 8.23272C16.7358 7.64056 16.9593 7.07266 17.357 6.65395C17.7548 6.23523 18.2943 6 18.8569 6C19.1354 6 19.4112 6.05775 19.6686 6.16996C19.9259 6.28216 20.1597 6.44662 20.3567 6.65395C20.5537 6.86127 20.7099 7.10741 20.8165 7.37829C20.9231 7.64918 20.9779 7.93951 20.9779 8.23272C20.9779 8.52592 20.9231 8.81626 20.8165 9.08714C20.7099 9.35803 20.5537 9.60416 20.3567 9.81149C20.1597 10.0188 19.9259 10.1833 19.6686 10.2955C19.4112 10.4077 19.1354 10.4654 18.8569 10.4654C18.2943 10.4654 17.7548 10.2302 17.357 9.81149C16.9593 9.39277 16.7358 8.82487 16.7358 8.23272Z" stroke="#666666" stroke-width="1.5" stroke-miterlimit="10" stroke-linecap="round"/>
</svg>
