<svg width="15" height="15" viewBox="0 0 15 15" fill="none" xmlns="http://www.w3.org/2000/svg">
<path d="M5.62524 10.6248V6.87507C5.62524 6.5299 5.9049 6.25024 6.25007 6.25024C6.59525 6.25024 6.8749 6.5299 6.8749 6.87507V10.6248C6.8749 10.97 6.59525 11.2503 6.25007 11.2503C5.9049 11.2503 5.62524 10.97 5.62524 10.6248Z" fill="#6A7282"/>
<path d="M8.12524 10.6248V6.87507C8.12524 6.5299 8.4049 6.25024 8.75007 6.25024C9.09525 6.25024 9.3749 6.5299 9.3749 6.87507V10.6248C9.3749 10.97 9.09525 11.2503 8.75007 11.2503C8.4049 11.2503 8.12524 10.97 8.12524 10.6248Z" fill="#6A7282"/>
<path d="M2.50024 12.4999V3.75007C2.50024 3.4049 2.7799 3.12524 3.12507 3.12524C3.47025 3.12524 3.7499 3.4049 3.7499 3.75007V12.4999C3.7499 12.6656 3.81582 12.8251 3.93303 12.9423C4.05015 13.0594 4.20914 13.1253 4.37473 13.1254H10.6252C10.7908 13.1254 10.9498 13.0594 11.0669 12.9423C11.1841 12.8251 11.25 12.6656 11.25 12.4999V3.75007C11.25 3.40496 11.5298 3.12535 11.8749 3.12524C12.2201 3.12524 12.5004 3.4049 12.5004 3.75007V12.4999C12.5004 12.9971 12.3026 13.4741 11.9511 13.8257C11.5995 14.1773 11.1224 14.3751 10.6252 14.3751H4.37473C3.87757 14.375 3.40044 14.1773 3.04889 13.8257C2.69743 13.4741 2.50024 12.997 2.50024 12.4999Z" fill="#6A7282"/>
<path d="M13.1249 3.12524C13.4701 3.12524 13.7498 3.4049 13.7498 3.75007C13.7498 4.09525 13.4701 4.3749 13.1249 4.3749H1.87507C1.5299 4.3749 1.25024 4.09525 1.25024 3.75007C1.25024 3.4049 1.5299 3.12524 1.87507 3.12524H13.1249Z" fill="#6A7282"/>
<path d="M9.37534 3.75012V2.49973C9.37525 2.33412 9.30931 2.17515 9.19221 2.05803C9.075 1.94082 8.91554 1.8749 8.74978 1.8749H6.24973C6.08409 1.87499 5.92516 1.9409 5.80803 2.05803C5.6909 2.17516 5.62499 2.33409 5.6249 2.49973V3.75012C5.62488 4.09528 5.34523 4.37495 5.00007 4.37495C4.65491 4.37495 4.37527 4.09528 4.37524 3.75012V2.49973C4.37533 2.00257 4.57234 1.52544 4.92389 1.17389C5.27544 0.822342 5.75257 0.625335 6.24973 0.625244H8.74978C9.24691 0.625244 9.72402 0.82246 10.0756 1.17389C10.4272 1.52544 10.6249 2.00257 10.625 2.49973V3.75012C10.625 4.09525 10.3453 4.3749 10.0002 4.37495C9.65501 4.37495 9.37537 4.09528 9.37534 3.75012Z" fill="#6A7282"/>
</svg>
