<svg width="23" height="23" viewBox="0 0 23 23" fill="none" xmlns="http://www.w3.org/2000/svg">
<g clip-path="url(#clip0_892_2500)">
<path d="M11.5 23.0001C17.4985 23.0001 22.3611 18.1374 22.3611 12.1389C22.3611 6.14052 17.4985 1.27783 11.5 1.27783C5.5016 1.27783 0.638916 6.14052 0.638916 12.1389C0.638916 18.1374 5.5016 23.0001 11.5 23.0001Z" fill="#F4900C"/>
<path d="M11.5 21.7222C17.4985 21.7222 22.3611 16.8595 22.3611 10.8611C22.3611 4.86269 17.4985 0 11.5 0C5.5016 0 0.638916 4.86269 0.638916 10.8611C0.638916 16.8595 5.5016 21.7222 11.5 21.7222Z" fill="#FFCC4D"/>
<path d="M11.5 20.4446C16.4399 20.4446 20.4444 16.44 20.4444 11.5001C20.4444 6.56023 16.4399 2.55566 11.5 2.55566C6.56011 2.55566 2.55554 6.56023 2.55554 11.5001C2.55554 16.44 6.56011 20.4446 11.5 20.4446Z" fill="#FFE8B6"/>
<path d="M11.5 19.8056C16.4399 19.8056 20.4444 15.8011 20.4444 10.8612C20.4444 5.92131 16.4399 1.91675 11.5 1.91675C6.56011 1.91675 2.55554 5.92131 2.55554 10.8612C2.55554 15.8011 6.56011 19.8056 11.5 19.8056Z" fill="#FFAC33"/>
<path d="M6.09692 6.93583C6.09692 6.58764 6.43873 6.44836 6.43873 6.44836L11.4719 4.08447L16.553 6.44836C16.553 6.44836 16.9031 6.52631 16.9031 6.93839V7.34792H6.09692V6.93583Z" fill="#FFE8B6"/>
<path d="M16.5658 8.2007C16.5658 7.82759 16.2431 7.52539 15.8457 7.52539H7.11021C6.71219 7.52539 6.43491 7.82759 6.43491 8.2007C6.43491 8.45434 6.56524 8.67283 6.77288 8.78847V9.21397H8.12349V8.876H9.4741V9.21397H10.8247V8.876H12.1753V9.21397H13.5259V8.876H14.8765V9.21397H16.2278V8.77122C16.4303 8.65111 16.5658 8.44092 16.5658 8.2007ZM17.5784 15.3333C17.5784 15.4676 17.525 15.5965 17.43 15.6915C17.335 15.7865 17.2061 15.8399 17.0718 15.8399H5.92827C5.7939 15.8399 5.66504 15.7865 5.57002 15.6915C5.47501 15.5965 5.42163 15.4676 5.42163 15.3333C5.42163 15.1989 5.47501 15.07 5.57002 14.975C5.66504 14.88 5.7939 14.8266 5.92827 14.8266H17.0724C17.3516 14.8266 17.5784 15.0534 17.5784 15.3333Z" fill="#F4900C"/>
<path d="M16.9031 7.79452C16.9029 7.8841 16.8673 7.96997 16.8039 8.03331C16.7406 8.09666 16.6547 8.13232 16.5651 8.13249H6.43428C6.34823 8.12719 6.26745 8.08928 6.20839 8.02648C6.14933 7.96368 6.11646 7.88072 6.11646 7.79452C6.11646 7.70831 6.14933 7.62535 6.20839 7.56255C6.26745 7.49975 6.34823 7.46184 6.43428 7.45654L16.5651 7.45846C16.6094 7.45829 16.6533 7.46686 16.6942 7.48366C16.7352 7.50047 16.7724 7.52518 16.8038 7.5564C16.8352 7.58761 16.8601 7.62471 16.8772 7.66557C16.8942 7.70643 16.903 7.75025 16.9031 7.79452ZM7.78553 8.18679H15.2152V8.94452H7.78553V8.18679Z" fill="#F4900C"/>
<path d="M8.12286 13.3073C8.12286 13.6804 7.92097 13.9826 7.67244 13.9826H7.22202C6.9735 13.9826 6.77161 13.6804 6.77161 13.3073V8.18727C6.77161 7.81416 6.9735 7.51196 7.22202 7.51196H7.67244C7.92097 7.51196 8.12286 7.81416 8.12286 8.18727V13.3073ZM16.2278 13.3073C16.2278 13.6804 16.0266 13.9826 15.7774 13.9826H15.327C15.0784 13.9826 14.8766 13.6804 14.8766 13.3073V8.18727C14.8766 7.81416 15.0778 7.51196 15.327 7.51196H15.7774C16.0259 7.51196 16.2278 7.81416 16.2278 8.18727V13.3073ZM10.8247 13.3073C10.8247 13.6804 10.6228 13.9826 10.3743 13.9826H9.92388C9.67536 13.9826 9.47347 13.6804 9.47347 13.3073V8.18727C9.47347 7.81416 9.67536 7.51196 9.92388 7.51196H10.3743C10.6228 7.51196 10.8247 7.81416 10.8247 8.18727V13.3073ZM13.5259 13.3073C13.5259 13.6804 13.3241 13.9826 13.0755 13.9826H12.6257C12.3772 13.9826 12.1753 13.6804 12.1753 13.3073V8.18727C12.1753 7.81416 12.3772 7.51196 12.6257 7.51196H13.0755C13.3241 7.51196 13.5259 7.81416 13.5259 8.18727V13.3073Z" fill="#FFD983"/>
<path d="M16.5658 13.6448C16.5658 14.0179 16.2636 14.3201 15.8905 14.3201H7.11024C6.93114 14.3201 6.75937 14.2489 6.63273 14.1223C6.50608 13.9957 6.43494 13.8239 6.43494 13.6448C6.43494 13.4657 6.50608 13.2939 6.63273 13.1673C6.75937 13.0406 6.93114 12.9695 7.11024 12.9695H15.8905C16.263 12.9695 16.5658 13.2717 16.5658 13.6448Z" fill="#FFCC4D"/>
<path d="M17.241 14.3201C17.241 14.6932 16.9388 14.9954 16.5657 14.9954H6.43422C6.25511 14.9954 6.08335 14.9242 5.9567 14.7976C5.83006 14.6709 5.75891 14.4992 5.75891 14.3201C5.75891 14.141 5.83006 13.9692 5.9567 13.8426C6.08335 13.7159 6.25511 13.6448 6.43422 13.6448H16.5651C16.9382 13.6448 17.241 13.947 17.241 14.3201Z" fill="#FFD983"/>
<path d="M17.5784 14.8267C17.5784 14.9611 17.525 15.0899 17.43 15.185C17.335 15.28 17.2061 15.3333 17.0718 15.3333H5.92827C5.86174 15.3333 5.79586 15.3202 5.73439 15.2948C5.67292 15.2693 5.61707 15.232 5.57002 15.185C5.52298 15.1379 5.48566 15.0821 5.4602 15.0206C5.43474 14.9591 5.42163 14.8932 5.42163 14.8267C5.42163 14.7602 5.43474 14.6943 5.4602 14.6328C5.48566 14.5714 5.52298 14.5155 5.57002 14.4685C5.61707 14.4214 5.67292 14.3841 5.73439 14.3586C5.79586 14.3332 5.86174 14.3201 5.92827 14.3201H17.0724C17.3516 14.3201 17.5784 14.5469 17.5784 14.8267Z" fill="#FFD983"/>
<path d="M16.5658 7.84938C16.5658 7.47627 16.2432 7.17407 15.8458 7.17407H7.11024C6.71221 7.17407 6.43494 7.47627 6.43494 7.84938C6.43494 8.10302 6.56527 8.32152 6.77291 8.43716V8.86266H8.12352V8.52468H9.47413V8.86266H10.8247V8.52468H12.1754V8.86266H13.526V8.52468H14.8766V8.86266H16.2278V8.41991C16.4304 8.29979 16.5658 8.0896 16.5658 7.84938Z" fill="#FFCC4D"/>
<path d="M6.09692 7.32353C6.09692 6.97533 6.43873 6.83606 6.43873 6.83606L11.4719 4.47217L16.553 6.83606C16.553 6.83606 16.9031 6.914 16.9031 7.32608V7.512H6.09692V7.32353Z" fill="#FFD983"/>
<path d="M11.5 5.33032C11.5 5.33032 8.01481 6.97291 7.66726 7.12113C7.31906 7.26871 7.43534 7.51149 7.6679 7.51149H15.3154C15.6745 7.51149 15.5895 7.2374 15.3045 7.08918C15.0196 6.9416 11.5 5.33032 11.5 5.33032Z" fill="#FFAC33"/>
<path d="M16.9031 7.51131C16.9029 7.6009 16.8673 7.68676 16.8039 7.75011C16.7406 7.81345 16.6547 7.84912 16.5651 7.84928H6.43428C6.34823 7.84399 6.26745 7.80608 6.20839 7.74328C6.14933 7.68048 6.11646 7.59752 6.11646 7.51131C6.11646 7.42511 6.14933 7.34215 6.20839 7.27935C6.26745 7.21654 6.34823 7.17863 6.43428 7.17334L16.5651 7.17526C16.6094 7.17509 16.6533 7.18365 16.6942 7.20046C16.7352 7.21726 16.7724 7.24198 16.8038 7.27319C16.8352 7.30441 16.8601 7.34151 16.8772 7.38237C16.8942 7.42322 16.903 7.46704 16.9031 7.51131Z" fill="#FFD983"/>
</g>
<defs>
<clipPath id="clip0_892_2500">
<rect width="23" height="23" fill="white"/>
</clipPath>
</defs>
</svg>
