<svg width="16" height="16" viewBox="0 0 16 16" fill="none" xmlns="http://www.w3.org/2000/svg">
<path d="M7.99996 13.3332C6.51107 13.3332 5.24996 12.8165 4.21663 11.7832C3.18329 10.7498 2.66663 9.48873 2.66663 7.99984C2.66663 6.51095 3.18329 5.24984 4.21663 4.21651C5.24996 3.18317 6.51107 2.66651 7.99996 2.66651C8.76663 2.66651 9.49996 2.82473 10.2 3.14117C10.9 3.45762 11.5 3.91051 12 4.49984V3.33317C12 3.14428 12.064 2.98606 12.192 2.85851C12.32 2.73095 12.4782 2.66695 12.6666 2.66651C12.8551 2.66606 13.0135 2.73006 13.142 2.85851C13.2704 2.98695 13.3342 3.14517 13.3333 3.33317V6.66651C13.3333 6.85539 13.2693 7.01384 13.1413 7.14184C13.0133 7.26984 12.8551 7.33362 12.6666 7.33317H9.33329C9.1444 7.33317 8.98618 7.26917 8.85863 7.14117C8.73107 7.01317 8.66707 6.85495 8.66663 6.66651C8.66618 6.47806 8.73018 6.31984 8.85863 6.19184C8.98707 6.06384 9.14529 5.99984 9.33329 5.99984H11.4666C11.1111 5.37762 10.6251 4.88873 10.0086 4.53317C9.39218 4.17762 8.72263 3.99984 7.99996 3.99984C6.88885 3.99984 5.9444 4.38873 5.16663 5.16651C4.38885 5.94428 3.99996 6.88873 3.99996 7.99984C3.99996 9.11095 4.38885 10.0554 5.16663 10.8332C5.9444 11.611 6.88885 11.9998 7.99996 11.9998C8.75552 11.9998 9.44729 11.8083 10.0753 11.4252C10.7033 11.0421 11.1893 10.5281 11.5333 9.88317C11.6222 9.72762 11.7473 9.6194 11.9086 9.55851C12.07 9.49762 12.2337 9.49473 12.4 9.54984C12.5777 9.60539 12.7055 9.72206 12.7833 9.89984C12.8611 10.0776 12.8555 10.2443 12.7666 10.3998C12.3111 11.2887 11.6611 11.9998 10.8166 12.5332C9.97218 13.0665 9.03329 13.3332 7.99996 13.3332Z" fill="#121212"/>
</svg>
