<svg width="26" height="26" viewBox="0 0 26 26" fill="none" xmlns="http://www.w3.org/2000/svg">
<path d="M13.0001 14.5167L16.1417 17.6584C16.3404 17.857 16.5931 17.9563 16.9001 17.9563C17.207 17.9563 17.4598 17.857 17.6584 17.6584C17.857 17.4598 17.9563 17.207 17.9563 16.9001C17.9563 16.5931 17.857 16.3404 17.6584 16.1417L14.5167 13.0001L17.6584 9.85842C17.857 9.6598 17.9563 9.40703 17.9563 9.10008C17.9563 8.79314 17.857 8.54036 17.6584 8.34175C17.4598 8.14314 17.207 8.04383 16.9001 8.04383C16.5931 8.04383 16.3404 8.14314 16.1417 8.34175L13.0001 11.4834L9.85842 8.34175C9.65981 8.14314 9.40703 8.04383 9.10008 8.04383C8.79314 8.04383 8.54036 8.14314 8.34175 8.34175C8.14314 8.54036 8.04383 8.79314 8.04383 9.10008C8.04383 9.40703 8.14314 9.6598 8.34175 9.85842L11.4834 13.0001L8.34175 16.1417C8.14314 16.3404 8.04383 16.5931 8.04383 16.9001C8.04383 17.207 8.14314 17.4598 8.34175 17.6584C8.54036 17.857 8.79314 17.9563 9.10008 17.9563C9.40703 17.9563 9.65981 17.857 9.85842 17.6584L13.0001 14.5167ZM13.0001 23.8334C11.5015 23.8334 10.0931 23.5489 8.77508 22.9797C7.45703 22.4106 6.3105 21.6389 5.3355 20.6647C4.3605 19.6904 3.58881 18.5439 3.02042 17.2251C2.45203 15.9063 2.16747 14.498 2.16675 13.0001C2.16603 11.5022 2.45058 10.0939 3.02042 8.77508C3.59025 7.4563 4.36194 6.30978 5.3355 5.3355C6.30906 4.36122 7.45558 3.58953 8.77508 3.02041C10.0946 2.4513 11.5029 2.16675 13.0001 2.16675C14.4972 2.16675 15.9056 2.4513 17.2251 3.02041C18.5446 3.58953 19.6911 4.36122 20.6647 5.3355C21.6382 6.30978 22.4103 7.4563 22.9808 8.77508C23.5514 10.0939 23.8356 11.5022 23.8334 13.0001C23.8313 14.498 23.5467 15.9063 22.9798 17.2251C22.4128 18.5439 21.6411 19.6904 20.6647 20.6647C19.6882 21.6389 18.5417 22.411 17.2251 22.9808C15.9085 23.5507 14.5001 23.8349 13.0001 23.8334Z" fill="#F14950"/>
</svg>
