<svg width="34" height="34" viewBox="0 0 34 34" fill="none" xmlns="http://www.w3.org/2000/svg">
<path d="M22.8118 9.37532C23.3123 8.87494 24.1243 8.87485 24.6247 9.37532C25.1248 9.8757 25.1248 10.687 24.6247 11.1873L18.8108 16.9987L24.6247 22.8118C25.1251 23.3123 25.1251 24.1243 24.6247 24.6247C24.1243 25.1251 23.3123 25.1251 22.8118 24.6247L16.9996 18.8116L11.1873 24.6247C10.687 25.1248 9.87569 25.1248 9.37532 24.6247C8.87489 24.1243 8.87489 23.3123 9.37532 22.8118L15.1867 16.9996L9.37532 11.1873C8.87497 10.6869 8.87493 9.8757 9.37532 9.37532C9.87576 8.87497 10.6869 8.87493 11.1873 9.37532L16.9987 15.1876L22.8118 9.37532Z" fill="#666666"/>
</svg>
