<svg width="44" height="44" viewBox="0 0 44 44" fill="none" xmlns="http://www.w3.org/2000/svg">
<g filter="url(#filter0_d_875_2130)">
<circle cx="22" cy="18" r="18" fill="white"/>
</g>
<path d="M21.0001 27.9498V26.9498C18.9167 26.7165 17.1291 25.8541 15.6371 24.3628C14.1451 22.8715 13.2827 21.0838 13.0501 18.9998H12.0501C11.7667 18.9998 11.5294 18.9038 11.3381 18.7118C11.1467 18.5198 11.0507 18.2825 11.0501 17.9998C11.0494 17.7171 11.1454 17.4798 11.3381 17.2878C11.5307 17.0958 11.7681 16.9998 12.0501 16.9998H13.0501C13.2834 14.9165 14.1461 13.1288 15.6381 11.6368C17.1301 10.1448 18.9174 9.28247 21.0001 9.04981V8.04981C21.0001 7.76647 21.0961 7.52914 21.2881 7.33781C21.4801 7.14647 21.7174 7.05047 22.0001 7.04981C22.2827 7.04914 22.5204 7.14514 22.7131 7.33781C22.9057 7.53047 23.0014 7.76781 23.0001 8.04981V9.04981C25.0834 9.28314 26.8711 10.1458 28.3631 11.6378C29.8551 13.1298 30.7174 14.9171 30.9501 16.9998H31.9501C32.2334 16.9998 32.4711 17.0958 32.6631 17.2878C32.8551 17.4798 32.9507 17.7171 32.9501 17.9998C32.9494 18.2825 32.8537 18.5201 32.6631 18.7128C32.4724 18.9055 32.2347 19.0011 31.9501 18.9998H30.9501C30.7167 21.0831 29.8544 22.8708 28.3631 24.3628C26.8717 25.8548 25.0841 26.7171 23.0001 26.9498V27.9498C23.0001 28.2331 22.9041 28.4708 22.7121 28.6628C22.5201 28.8548 22.2827 28.9505 22.0001 28.9498C21.7174 28.9491 21.4801 28.8535 21.2881 28.6628C21.0961 28.4721 21.0001 28.2345 21.0001 27.9498ZM22.0001 24.9998C23.9334 24.9998 25.5834 24.3165 26.9501 22.9498C28.3167 21.5831 29.0001 19.9331 29.0001 17.9998C29.0001 16.0665 28.3167 14.4165 26.9501 13.0498C25.5834 11.6831 23.9334 10.9998 22.0001 10.9998C20.0667 10.9998 18.4167 11.6831 17.0501 13.0498C15.6834 14.4165 15.0001 16.0665 15.0001 17.9998C15.0001 19.9331 15.6834 21.5831 17.0501 22.9498C18.4167 24.3165 20.0667 24.9998 22.0001 24.9998Z" fill="#569F87"/>
<circle cx="22" cy="18" r="4" fill="#569F87"/>
<defs>
<filter id="filter0_d_875_2130" x="0" y="0" width="44" height="44" filterUnits="userSpaceOnUse" color-interpolation-filters="sRGB">
<feFlood flood-opacity="0" result="BackgroundImageFix"/>
<feColorMatrix in="SourceAlpha" type="matrix" values="0 0 0 0 0 0 0 0 0 0 0 0 0 0 0 0 0 0 127 0" result="hardAlpha"/>
<feOffset dy="4"/>
<feGaussianBlur stdDeviation="2"/>
<feComposite in2="hardAlpha" operator="out"/>
<feColorMatrix type="matrix" values="0 0 0 0 0 0 0 0 0 0 0 0 0 0 0 0 0 0 0.15 0"/>
<feBlend mode="normal" in2="BackgroundImageFix" result="effect1_dropShadow_875_2130"/>
<feBlend mode="normal" in="SourceGraphic" in2="effect1_dropShadow_875_2130" result="shape"/>
</filter>
</defs>
</svg>
