<svg width="50" height="50" viewBox="0 0 50 50" fill="none" xmlns="http://www.w3.org/2000/svg">
<circle cx="25" cy="25" r="25" fill="white"/>
<path d="M23.6301 38.6301V37.2603C20.7763 36.9406 18.3274 35.7594 16.2836 33.7164C14.2397 31.6735 13.0585 29.2247 12.7397 26.3699H11.3699C10.9817 26.3699 10.6566 26.2384 10.3945 25.9753C10.1324 25.7123 10.0009 25.3872 10 25C9.99909 24.6128 10.1306 24.2877 10.3945 24.0247C10.6585 23.7616 10.9836 23.6301 11.3699 23.6301H12.7397C13.0594 20.7763 14.2411 18.3274 16.2849 16.2836C18.3288 14.2397 20.7772 13.0585 23.6301 12.7397V11.3699C23.6301 10.9817 23.7616 10.6566 24.0247 10.3945C24.2877 10.1324 24.6128 10.0009 25 10C25.3872 9.99909 25.7128 10.1306 25.9767 10.3945C26.2406 10.6585 26.3717 10.9836 26.3699 11.3699V12.7397C29.2237 13.0594 31.6726 14.2411 33.7164 16.2849C35.7603 18.3288 36.9415 20.7772 37.2603 23.6301H38.6301C39.0183 23.6301 39.3438 23.7616 39.6068 24.0247C39.8699 24.2877 40.0009 24.6128 40 25C39.9991 25.3872 39.868 25.7128 39.6068 25.9767C39.3457 26.2406 39.0201 26.3717 38.6301 26.3699H37.2603C36.9406 29.2237 35.7594 31.6726 33.7164 33.7164C31.6735 35.7603 29.2247 36.9415 26.3699 37.2603V38.6301C26.3699 39.0183 26.2384 39.3438 25.9753 39.6068C25.7123 39.8699 25.3872 40.0009 25 40C24.6128 39.9991 24.2877 39.868 24.0247 39.6068C23.7616 39.3457 23.6301 39.0201 23.6301 38.6301ZM25 34.589C27.6484 34.589 29.9087 33.653 31.7808 31.7808C33.653 29.9087 34.589 27.6484 34.589 25C34.589 22.3516 33.653 20.0913 31.7808 18.2192C29.9087 16.347 27.6484 15.411 25 15.411C22.3516 15.411 20.0913 16.347 18.2192 18.2192C16.347 20.0913 15.411 22.3516 15.411 25C15.411 27.6484 16.347 29.9087 18.2192 31.7808C20.0913 33.653 22.3516 34.589 25 34.589ZM25 30.4795C23.4932 30.4795 22.2032 29.9429 21.1301 28.8699C20.0571 27.7968 19.5205 26.5068 19.5205 25C19.5205 23.4932 20.0571 22.2032 21.1301 21.1301C22.2032 20.0571 23.4932 19.5205 25 19.5205C26.5068 19.5205 27.7968 20.0571 28.8699 21.1301C29.9429 22.2032 30.4795 23.4932 30.4795 25C30.4795 26.5068 29.9429 27.7968 28.8699 28.8699C27.7968 29.9429 26.5068 30.4795 25 30.4795ZM25 27.7397C25.7534 27.7397 26.3986 27.4717 26.9356 26.9356C27.4726 26.3995 27.7406 25.7543 27.7397 25C27.7388 24.2457 27.4708 23.6009 26.9356 23.0658C26.4005 22.5306 25.7553 22.2621 25 22.2603C24.2447 22.2584 23.6 22.5269 23.0658 23.0658C22.5315 23.6046 22.263 24.2493 22.2603 25C22.2575 25.7507 22.526 26.3959 23.0658 26.9356C23.6055 27.4753 24.2502 27.7434 25 27.7397Z" fill="#6A7282"/>
</svg>
