<svg width="76" height="46" viewBox="0 0 76 46" fill="none" xmlns="http://www.w3.org/2000/svg">
<path d="M29.5341 2.05204C28.9054 1.98265 28.2767 1.98265 27.648 2.05204C26.6956 2.17819 25.8864 3.22527 25.8988 4.1525C26.0171 5.62219 26.235 6.50527 26.5026 7.96235C26.5337 8.12004 26.5649 8.29035 26.596 8.46065C26.6209 8.6625 26.7018 8.88327 26.8139 9.11035C26.9944 9.45096 27.2496 9.77896 27.511 9.96819C27.6978 10.107 27.8845 10.2331 28.065 10.353C28.4945 10.6431 28.6937 10.6368 29.117 10.3403C29.2851 10.2268 29.4469 10.107 29.6212 9.98081C29.8826 9.78527 30.1503 9.45096 30.3246 9.10404C30.4366 8.88958 30.5176 8.65619 30.5425 8.46065C30.5736 8.27773 30.6047 8.11373 30.6421 7.94973C30.9159 6.49896 31.1463 5.60958 31.2708 4.14619C31.2956 3.21265 30.4864 2.17819 29.5341 2.04573V2.05204ZM26.5711 4.21558C26.5711 3.37035 27.2683 2.69542 28.1273 2.69542H29.0423C29.9075 2.69542 30.5985 3.37665 30.5985 4.21558V4.60035C30.5985 5.44558 29.9075 6.12681 29.0423 6.12681H28.1273C27.2683 6.12681 26.5711 5.44558 26.5711 4.60035V4.21558Z" fill="#DCDCDC"/>
<path d="M33.2939 42.6988C30.1691 43.1088 27.0007 43.1088 23.8759 42.6988C22.6434 42.5222 21.6537 42.0113 21.6475 41.658V40.9768H35.5161V41.658C35.5161 42.0113 34.5264 42.5222 33.2877 42.6988H33.2939Z" fill="#BEBEBE"/>
<path opacity="0.3" d="M26.0483 41.8599V40.9768H23.1165V41.658C23.1165 42.0113 24.1124 42.5222 25.3449 42.6988C25.9736 42.7808 26.6023 42.8439 27.231 42.888C26.5338 42.5853 26.0545 42.1753 26.0545 41.8599H26.0483Z" fill="white"/>
<path d="M36.1696 39.9866V40.7309C36.1696 41.1156 35.0865 41.6707 33.7358 41.8663C31.0156 42.2195 28.2705 42.2952 25.5378 42.0807C24.8344 42.0303 24.131 41.9546 23.4339 41.8663C23.0915 41.8158 22.7616 41.7464 22.469 41.6581C21.6038 41.3995 21 41.021 21 40.7372V39.9929H36.1696V39.9866Z" fill="#DCDCDC"/>
<path d="M36.1696 13.6203V39.9864C31.1587 40.9515 26.0109 40.9515 21 39.9864V13.6203C21 13.349 21.0685 12.9138 21.1556 12.6552L22.0271 10.006L22.22 9.40674H34.9434L35.1425 10.006L36.014 12.6552C36.1012 12.9138 36.1696 13.349 36.1696 13.6203Z" fill="#FFB001"/>
<path opacity="0.3" d="M26.9385 9.4067L26.7144 10.0312L25.7184 12.8002C25.6188 13.0715 25.5441 13.5256 25.5441 13.8095V41.3236V42.0805C24.8407 42.0301 24.1373 41.9544 23.4402 41.8661C23.0978 41.8156 22.7679 41.7462 22.4753 41.6579V13.8032C22.4753 13.5193 22.55 13.0652 22.6496 12.7939L23.6456 10.0249L23.8697 9.40039H26.9447L26.9385 9.4067Z" fill="white"/>
<g opacity="0.2">
<path d="M35.1424 10.006C35.0802 10.0186 35.018 10.0312 34.9433 10.0312H34.8997C30.7042 9.84828 26.4527 9.84828 22.2573 10.0312C22.1764 10.0312 22.0954 10.0312 22.0208 10.006L22.2137 9.40674H34.937L35.1362 10.006H35.1424Z" fill="black"/>
</g>
<g opacity="0.2">
<path d="M30.6358 7.95601C30.6046 8.12001 30.5735 8.29032 30.5362 8.46694C30.5113 8.66248 30.4304 8.88955 30.3183 9.11032C29.1543 9.0914 27.9778 9.0914 26.8076 9.11032C26.6955 8.88955 26.6146 8.66248 26.5897 8.46063C26.5586 8.28401 26.5337 8.12001 26.4963 7.96232C26.7142 7.96232 26.9321 7.94971 27.1499 7.94971C27.2993 7.94971 27.4425 7.94971 27.5981 7.94971C28.6065 7.94971 29.6211 7.94971 30.6358 7.96232V7.95601Z" fill="black"/>
</g>
<path d="M35.6779 9.23648C35.6592 9.54556 35.3355 9.77894 34.9434 9.77894H34.8998C32.1547 9.65909 29.3847 9.61494 26.6272 9.65909C26.3159 9.65909 26.0109 9.6654 25.7059 9.67171C25.1083 9.68432 24.5108 9.69694 23.9132 9.72217C23.5522 9.73479 23.1911 9.7474 22.8301 9.76002C22.6371 9.76002 22.4504 9.77263 22.2636 9.78525C21.8653 9.80417 21.5105 9.55817 21.4918 9.24279C21.4731 8.9274 21.7781 8.64986 22.1827 8.63725C22.7678 8.61202 23.3592 8.58679 23.9443 8.57417C23.9879 8.57417 24.0377 8.57417 24.0813 8.57417C25.1021 8.54263 26.1292 8.52371 27.1563 8.51109C27.3057 8.51109 27.4551 8.51109 27.5982 8.51109C30.0632 8.49217 32.5344 8.53632 34.987 8.64356C35.3916 8.66248 35.7028 8.93371 35.6779 9.24909V9.23648Z" fill="#BEBEBE"/>
<path opacity="0.3" d="M26.2971 9.17977C26.3096 9.3753 26.4403 9.54561 26.627 9.65284C26.3158 9.65284 26.0108 9.65915 25.7058 9.66546C25.1082 9.67807 24.5106 9.69069 23.9131 9.71592C23.6516 9.6213 23.4649 9.41946 23.4462 9.17977C23.4275 8.90223 23.6392 8.65623 23.9442 8.56161C23.9878 8.56161 24.0376 8.56161 24.0811 8.56161C25.102 8.53007 26.1291 8.51115 27.1561 8.49854C27.3055 8.49854 27.4549 8.49854 27.5981 8.49854C27.4176 8.50484 27.2371 8.51115 27.0565 8.52377C26.6146 8.54269 26.2785 8.84546 26.3034 9.19238L26.2971 9.17977Z" fill="white"/>
<path d="M60.9456 24.93L60.0617 25.504L60.6219 26.3997L59.6571 26.8286L60.0741 27.8063L59.0595 28.0838L59.3272 29.112L58.2876 29.2255L58.3001 29.3328L58.4059 30.2852L57.3602 30.2474L57.3539 30.3231L57.3104 31.3071L56.2833 31.1178L56.0841 32.1586L55.0944 31.8117L54.7458 32.8146L53.8183 32.3163L53.3265 33.2498L52.48 32.6254L51.8575 33.4832L51.1168 32.7263L50.3698 33.4832L49.7411 32.6254L48.9008 33.2498L48.4028 32.3163L47.4753 32.8146L47.1267 31.8117L46.137 32.1586L45.9378 31.1178L44.9107 31.3071L44.8734 30.3231V30.2474L43.8276 30.2852L43.9272 29.3328L43.9397 29.2255L42.8939 29.1057L43.1616 28.0775L42.147 27.8063L42.564 26.8286L41.6116 26.3997L42.1594 25.504L41.2755 24.93L41.9602 24.1289L41.1697 23.4288L41.9602 22.7286L41.2755 21.9275L42.1594 21.3598L41.6116 20.4578L42.564 20.0289L42.1532 19.0575L43.1616 18.7737L42.8939 17.7518L43.9397 17.632L43.8276 16.5786L44.8734 16.6102L44.9107 15.5505L45.944 15.746L46.1432 14.6989L47.133 15.0522L47.4815 14.0429L48.409 14.5412L48.9008 13.6014L49.7411 14.2258L50.3698 13.3806L51.1168 14.1249L51.8575 13.3806L52.48 14.2258L53.3328 13.6014L53.8183 14.5412L54.7458 14.0429L55.0944 15.0522L56.0841 14.6989L56.2833 15.746L57.3104 15.5505L57.3602 16.6102L58.4059 16.5786L58.2876 17.632L59.3334 17.7518L59.0595 18.78L60.0741 19.0575L59.6571 20.0289L60.6219 20.4578L60.0617 21.3598L60.9456 21.9275L60.2671 22.7286L61.0576 23.4288L60.2671 24.1289L60.9456 24.93Z" fill="#BEBEBE"/>
<path d="M51.1106 32.1208C46.3798 32.1208 42.533 28.2227 42.533 23.4288C42.533 18.635 46.3798 14.7368 51.1106 14.7368C55.8414 14.7368 59.6883 18.635 59.6883 23.4288C59.6883 28.2227 55.8414 32.1208 51.1106 32.1208ZM51.1106 15.0207C46.5354 15.0207 42.8131 18.7927 42.8131 23.4288C42.8131 28.065 46.5354 31.837 51.1106 31.837C55.6858 31.837 59.4082 28.065 59.4082 23.4288C59.4082 18.7927 55.6858 15.0207 51.1106 15.0207Z" fill="#DCDCDC"/>
<path opacity="0.2" d="M46.1931 24.9552C46.1931 20.3695 49.0876 16.4714 53.1149 15.0143C52.6481 14.9323 52.1688 14.8818 51.6708 14.8818C47.0085 14.8818 43.2363 18.7106 43.2363 23.4288C43.2363 26.9106 45.2967 29.9004 48.241 31.2377C46.9587 29.4778 46.1868 27.3143 46.1868 24.9615L46.1931 24.9552Z" fill="white"/>
<path d="M51.1105 29.9824C47.5438 29.9824 44.6431 27.043 44.6431 23.4287C44.6431 19.8144 47.5438 16.875 51.1105 16.875C54.6773 16.875 57.578 19.8144 57.578 23.4287C57.578 27.043 54.6773 29.9824 51.1105 29.9824ZM51.1105 17.1588C47.6994 17.1588 44.9232 19.9721 44.9232 23.4287C44.9232 26.8853 47.6994 29.6985 51.1105 29.6985C54.5217 29.6985 57.2979 26.8853 57.2979 23.4287C57.2979 19.9721 54.5217 17.1588 51.1105 17.1588Z" fill="#DCDCDC"/>
<path d="M51.1105 27.8442C48.7077 27.8442 46.7532 25.8636 46.7532 23.4288C46.7532 20.994 48.7077 19.0134 51.1105 19.0134C53.5132 19.0134 55.4678 20.994 55.4678 23.4288C55.4678 25.8636 53.5132 27.8442 51.1105 27.8442ZM51.1105 19.2973C48.8634 19.2973 47.0333 21.1517 47.0333 23.4288C47.0333 25.7059 48.8634 27.5604 51.1105 27.5604C53.3576 27.5604 55.1877 25.7059 55.1877 23.4288C55.1877 21.1517 53.3576 19.2973 51.1105 19.2973Z" fill="#DCDCDC"/>
<path d="M60.6718 30.8909V32.2596L60.1676 32.6633L60.6718 33.067L60.1676 33.4833L60.6718 33.887L60.1676 34.2907L60.6718 34.6944L60.1676 35.0981L60.6718 35.5018V37.5076L60.1676 37.9176L60.6718 38.3276L60.1676 38.7313L60.6718 39.135L60.1676 39.5387L60.6718 39.9424V42.0113H41.5557V39.9424L42.0599 39.5387L41.5557 39.135L42.0599 38.7313L41.5557 38.3276L42.0599 37.9176L41.5557 37.5076V35.5018L42.0599 35.0981L41.5557 34.6944L42.0599 34.2907L41.5557 33.887L42.0599 33.4833L41.5557 33.067L42.0599 32.6633L41.5557 32.2596V30.8909H60.6718Z" fill="#BEBEBE"/>
<path d="M60.6718 33.0732L60.1676 33.4832H42.0599L41.5557 33.0732H60.6718Z" fill="#A0A0A0"/>
<path d="M60.6718 33.067V33.0733H41.5557V33.067L42.0599 32.6633H60.1676L60.6718 33.067Z" fill="#DCDCDC"/>
<path d="M60.6718 33.887L60.1676 34.2907H42.0599L41.5557 33.887H60.6718Z" fill="#A0A0A0"/>
<path d="M60.6718 33.8868H41.5557L42.0599 33.4832H60.1676L60.6718 33.8868Z" fill="#DCDCDC"/>
<path d="M60.6718 34.6943L60.1676 35.098H42.0599L41.5557 34.6943H60.6718Z" fill="#A0A0A0"/>
<path d="M60.6718 34.6942H41.5557L42.0599 34.2905H60.1676L60.6718 34.6942Z" fill="#DCDCDC"/>
<path d="M60.6718 38.3276L60.1676 38.7313H42.0599L41.5557 38.3276H60.6718Z" fill="#A0A0A0"/>
<path d="M60.6718 38.3275H41.5557L42.0599 37.9175H60.1676L60.6718 38.3275Z" fill="#DCDCDC"/>
<path d="M60.6718 39.135L60.1676 39.5387H42.0599L41.5557 39.135H60.6718Z" fill="#A0A0A0"/>
<path d="M60.6718 39.1349H41.5557L42.0599 38.7312H60.1676L60.6718 39.1349Z" fill="#DCDCDC"/>
<path d="M61.0203 42.0112H41.207V43.0015H61.0203V42.0112Z" fill="#DCDCDC"/>
<path opacity="0.2" d="M60.678 30.8909H41.5557V31.2189H60.678V30.8909Z" fill="black"/>
<path opacity="0.2" d="M60.678 41.6833H41.5557V42.0113H60.678V41.6833Z" fill="black"/>
<path opacity="0.2" d="M58.4059 30.2852L57.3602 30.2474L57.3539 30.3231H44.8734V30.2474L43.8276 30.2852L43.9272 29.3328H58.3001L58.4059 30.2852Z" fill="black"/>
<path d="M61.0203 29.9004H41.207V30.8907H61.0203V29.9004Z" fill="#DCDCDC"/>
<path opacity="0.3" d="M45.4895 42.0112V41.6832V39.9422L45.9938 39.5385L45.4895 39.1349L45.9938 38.7312L45.4895 38.3275L45.9938 37.9175L45.4895 37.5075V35.5016L45.9938 35.0979L45.4895 34.6942L45.9938 34.2905L45.4895 33.8869L45.9938 33.4832L45.4958 33.0732H45.4895V33.0669L45.9938 32.6632L45.4895 32.2595V31.225V30.8907H45.141V29.9004H42.3274V30.8907H42.676V31.225V32.2595L43.1802 32.6632L42.676 33.0669V33.0732H42.6822L43.1802 33.4832L42.676 33.8869L43.1802 34.2905L42.676 34.6942L43.1802 35.0979L42.676 35.5016V37.5075L43.1802 37.9175L42.676 38.3275L43.1802 38.7312L42.676 39.1349L43.1802 39.5385L42.676 39.9422V41.6832V42.0112H42.3336V43.0015H45.141V42.0112H45.4895Z" fill="white"/>
</svg>
