<svg width="45" height="51" viewBox="0 0 45 51" fill="none" xmlns="http://www.w3.org/2000/svg">
<g clip-path="url(#clip0_352_2015)">
<path d="M44.9978 50.3294C44.9816 50.1444 44.8723 49.9812 44.7243 49.8722C42.4464 48.1932 38.8423 49.1753 36.9405 47.1031C36.0642 46.1481 35.8102 44.7727 35.7484 43.4715C35.5716 39.7319 36.6621 36.0625 37.1068 32.3456C37.5514 28.6288 37.2103 24.4926 34.6876 21.7506C34.6876 21.7506 32.7997 19.2115 32.6512 16.3131C32.4054 11.5056 26.3988 10.2378 25.2791 10.0431C25.28 9.9908 25.2604 9.93559 25.223 9.89491C26.4443 8.72538 27.5253 7.4062 28.4304 5.97273C28.7169 5.51896 28.6719 4.9107 28.2881 4.53781C27.5147 3.78669 26.4314 5.02984 25.682 4.51117C25.0232 4.05498 25.5167 2.84234 24.9298 2.29559C24.2451 1.6578 23.2178 2.67575 22.2873 2.64331C21.4674 2.61473 20.9389 1.79436 20.4689 1.11492C19.9548 0.372033 19.0386 -0.382959 18.2413 0.221906C17.8398 0.526518 17.6649 1.04906 17.7512 1.54932C18.2849 4.64532 20.753 7.36746 20.5882 10.4736C20.5499 10.4804 20.5115 10.4872 20.4732 10.4945C20.4732 10.4945 20.4713 10.4944 20.4703 10.4949C20.3649 10.5138 20.2595 10.5327 20.1541 10.5526C20.1479 10.5535 20.1412 10.555 20.1349 10.556C20.0343 10.5748 19.9332 10.5942 19.8321 10.6141C19.8206 10.6165 19.8091 10.6184 19.7976 10.6208C19.7013 10.6397 19.605 10.6591 19.5082 10.679C19.4924 10.6824 19.4766 10.6857 19.4613 10.6886C19.3688 10.708 19.2763 10.7274 19.1838 10.7477C19.1647 10.7521 19.145 10.7564 19.1259 10.7608C19.0367 10.7807 18.9481 10.8005 18.8594 10.8209C18.8369 10.8262 18.8139 10.8315 18.7914 10.8368C18.7056 10.8572 18.6199 10.8775 18.5341 10.8983C18.5092 10.9046 18.4843 10.9109 18.4594 10.9172C18.376 10.9381 18.2931 10.9589 18.2102 10.9807C18.1829 10.9879 18.1551 10.9952 18.1278 11.0025C18.0478 11.0238 17.9682 11.0451 17.8882 11.0674C17.8575 11.0761 17.8269 11.0848 17.7962 11.0935C17.7196 11.1153 17.6429 11.1371 17.5672 11.1594C17.5346 11.1691 17.502 11.1792 17.4694 11.1889C17.3957 11.2112 17.3214 11.2335 17.2481 11.2567C17.2141 11.2674 17.1796 11.2785 17.1455 11.2896C17.0741 11.3124 17.0023 11.3356 16.9314 11.3599C16.8954 11.372 16.86 11.3846 16.824 11.3967C16.755 11.4204 16.686 11.4441 16.6175 11.4688C16.5801 11.4824 16.5433 11.4959 16.5059 11.51C16.4393 11.5342 16.3727 11.5589 16.3066 11.5841C16.2682 11.5986 16.2304 11.6141 16.192 11.6291C16.1278 11.6543 16.0636 11.6795 15.9999 11.7056C15.9606 11.7216 15.9213 11.7386 15.882 11.755C15.8202 11.7812 15.7584 11.8068 15.6971 11.8335C15.6568 11.8509 15.6166 11.8693 15.5768 11.8877C15.5174 11.9144 15.458 11.941 15.399 11.9686C15.3578 11.988 15.3171 12.0078 15.2764 12.0277C15.2194 12.0553 15.1624 12.0824 15.1058 12.111C15.0641 12.1318 15.0234 12.1536 14.9817 12.1749C14.9271 12.2035 14.872 12.2316 14.8178 12.2606C14.7762 12.2829 14.7354 12.3066 14.6942 12.3294C14.6415 12.3589 14.5883 12.388 14.5366 12.418C14.4944 12.4422 14.4532 12.4679 14.412 12.4926C14.3617 12.5226 14.3109 12.5526 14.2616 12.5836C14.2194 12.6098 14.1782 12.6374 14.1365 12.664C14.0886 12.695 14.0402 12.7255 13.9928 12.7575C13.9506 12.7856 13.9099 12.8151 13.8682 12.8437C13.8222 12.8757 13.7762 12.9071 13.7311 12.9396C13.6895 12.9696 13.6492 13.0011 13.608 13.0316C13.5644 13.0645 13.5198 13.097 13.4767 13.1304C13.436 13.1623 13.3962 13.1953 13.3564 13.2277C13.3143 13.2616 13.2721 13.2955 13.2304 13.3304C13.1902 13.3643 13.1514 13.3996 13.1116 13.4345C13.0718 13.4694 13.0316 13.5038 12.9923 13.5396C12.9525 13.5759 12.9142 13.6142 12.8749 13.6515C12.8375 13.6873 12.7997 13.7222 12.7633 13.7585C12.7245 13.7972 12.6866 13.8379 12.6487 13.8776C12.6138 13.9144 12.5778 13.9503 12.5433 13.9876C12.505 14.0292 12.4681 14.0723 12.4312 14.1149C12.3986 14.1522 12.3651 14.1885 12.3335 14.2263C12.2951 14.2718 12.2582 14.3193 12.2213 14.3658C12.1921 14.4026 12.1619 14.4379 12.1337 14.4752C12.0949 14.5261 12.0575 14.5789 12.0196 14.6312C11.9942 14.666 11.9684 14.6999 11.9439 14.7353C11.9037 14.7934 11.8649 14.8539 11.8261 14.9135C11.8059 14.9445 11.7848 14.9745 11.7647 15.006C11.7072 15.098 11.6512 15.192 11.597 15.2879C9.76141 18.5514 10.9368 22.7128 9.94301 26.3299C9.86874 26.6001 9.78297 26.866 9.68714 27.129C9.62342 27.3043 9.55586 27.4781 9.48446 27.651C8.52426 29.9833 6.94547 32.103 6.60863 34.6029C6.36522 36.4083 6.79645 38.2175 7.26697 40.0186C7.33406 40.2757 7.40209 40.5329 7.46917 40.79C7.5698 41.1755 7.66802 41.56 7.75762 41.9446C7.81751 42.2007 7.8731 42.4564 7.92341 42.7121C8.19987 44.118 8.30481 45.5142 7.93107 46.8949C7.8913 47.0426 7.84435 47.1917 7.78014 47.3307C7.76433 47.3656 7.74708 47.3995 7.72887 47.4329C7.67425 47.5331 7.60861 47.6256 7.52811 47.707C7.30626 47.9303 6.99961 48.0353 6.6944 48.1196C6.65079 48.1317 6.60719 48.1433 6.56407 48.1545C6.47638 48.1777 6.38343 48.2005 6.28568 48.2237C4.82333 48.5705 2.33368 48.9172 0.500469 49.2635C0.00407314 49.3574 -0.125296 49.9173 0.124818 50.2519C0.180399 50.326 0.254188 50.3894 0.347142 50.4335C0.350975 50.4354 0.354329 50.4379 0.358162 50.4398C0.39314 50.4558 0.430993 50.4688 0.470762 50.479C0.552217 50.4998 0.63463 50.5178 0.717043 50.5333C0.799456 50.5492 0.882349 50.5628 0.964762 50.5759C1.04718 50.5885 1.13007 50.602 1.21104 50.6122C2.57853 50.7827 4.24692 50.8558 5.99149 50.8737C6.27945 50.8766 6.56886 50.8781 6.86018 50.8781H6.86114C7.59519 50.8781 8.33547 50.8703 9.06665 50.8568C9.54196 50.848 10.0134 50.8369 10.4763 50.8243C10.8237 50.8151 11.1658 50.8045 11.5017 50.7938C12.5093 50.7618 13.4575 50.7255 14.2956 50.694C14.8471 50.6732 15.3986 50.6558 15.9501 50.6393C16.1039 50.635 16.2572 50.6306 16.411 50.6262C16.8485 50.6141 17.2854 50.6035 17.7229 50.5938C17.8494 50.5909 17.9764 50.588 18.1029 50.5851C18.6395 50.5744 19.1762 50.5652 19.7128 50.558C19.8642 50.556 20.0161 50.5546 20.1675 50.5526C20.569 50.5478 20.9706 50.5439 21.3726 50.541C21.559 50.5396 21.7453 50.5381 21.9317 50.5371C22.3965 50.5347 22.8618 50.5333 23.3265 50.5333C23.5163 50.5333 23.7055 50.5333 23.8953 50.5337C24.2906 50.5342 24.6854 50.5357 25.0807 50.5376C25.3203 50.5391 25.5594 50.5405 25.7989 50.5425C26.0998 50.5449 26.4007 50.5473 26.7016 50.5507C26.9508 50.5531 27.1995 50.5555 27.4486 50.5584C27.9009 50.5638 28.3528 50.5705 28.8051 50.5773C29.1285 50.5827 29.4524 50.588 29.7758 50.5938C29.9598 50.5972 30.1438 50.6006 30.3278 50.604C30.6805 50.6107 31.0331 50.6175 31.3858 50.6253C31.4231 50.6262 31.4605 50.6267 31.4974 50.6277C32.7825 50.6558 34.068 50.6882 35.3531 50.7245C38.194 50.8045 41.0343 50.9008 43.8742 50.9972C44.3711 51.0141 45.0477 50.881 44.9983 50.3274L44.9978 50.3294Z" fill="#242424"/>
<path d="M0.35791 50.4387C0.392888 50.4547 0.43074 50.4678 0.470989 50.4779C0.552444 50.4988 0.634857 50.5167 0.71727 50.5322C0.634857 50.5162 0.552444 50.4988 0.470989 50.4779C0.43074 50.4678 0.393367 50.4547 0.358389 50.4387H0.35791Z" fill="#242424"/>
<path d="M31.6582 48.8576C29.1877 48.1147 26.6223 47.7486 24.0738 47.4086C20.8007 46.9718 16.3485 46.7146 14.2072 43.7755C12.2173 41.0447 12.7079 36.8116 13.4367 33.7204C13.9647 31.4811 14.832 29.3425 15.3988 27.1144C15.9201 25.0644 15.7735 23.0798 15.7936 20.9877C15.8123 19.0458 16.1276 17.13 17.3528 15.573C18.1204 14.5977 19.2051 13.8093 19.8668 12.7564C20.22 12.0562 20.4739 11.3191 20.4849 10.5641C20.4806 10.5404 20.4773 10.5162 20.473 10.4924C20.473 10.4924 20.4711 10.4924 20.4701 10.4929C20.3647 10.5118 20.2593 10.5307 20.1539 10.5505C20.1476 10.5515 20.1409 10.553 20.1347 10.5539C20.0341 10.5728 19.933 10.5922 19.8319 10.612C19.8204 10.6145 19.8089 10.6164 19.7978 10.6188C19.7015 10.6377 19.6052 10.6571 19.5084 10.6769C19.4926 10.6803 19.4768 10.6837 19.4615 10.6866C19.369 10.706 19.2765 10.7254 19.1841 10.7457C19.1649 10.7501 19.1453 10.7544 19.1261 10.7588C19.037 10.7786 18.9483 10.7985 18.8592 10.8188C18.8367 10.8242 18.8137 10.8295 18.7912 10.8348C18.7054 10.8552 18.6196 10.8755 18.5339 10.8963C18.5089 10.9026 18.484 10.9089 18.4591 10.9152C18.3757 10.936 18.2929 10.9569 18.21 10.9786C18.1826 10.9859 18.1549 10.9932 18.1275 11.0004C18.0475 11.0217 17.968 11.0431 17.888 11.0653C17.8573 11.0741 17.8266 11.0828 17.796 11.0915C17.7193 11.1133 17.6431 11.1351 17.5669 11.1573C17.5344 11.167 17.5018 11.1772 17.4692 11.1869C17.3954 11.2092 17.3211 11.2314 17.2478 11.2547C17.2138 11.2653 17.1793 11.2765 17.1453 11.2876C17.0734 11.3104 17.002 11.3336 16.9311 11.3578C16.8952 11.3699 16.8597 11.3825 16.8238 11.3946C16.7548 11.4184 16.6858 11.4421 16.6173 11.4668C16.5799 11.4804 16.543 11.4939 16.5056 11.508C16.439 11.5322 16.3724 11.5569 16.3063 11.5821C16.268 11.5966 16.2301 11.6121 16.1918 11.6271C16.1276 11.6523 16.0634 11.6775 15.9997 11.7036C15.9604 11.7196 15.9211 11.7365 15.8818 11.753C15.82 11.7792 15.7582 11.8048 15.6968 11.8315C15.6566 11.8489 15.6168 11.8673 15.5766 11.8857C15.5172 11.9123 15.4577 11.939 15.3988 11.9666C15.3576 11.986 15.3169 12.0058 15.2761 12.0257C15.2191 12.0533 15.1621 12.0804 15.1056 12.109C15.0639 12.1298 15.0232 12.1516 14.9815 12.1729C14.9268 12.2015 14.8717 12.2295 14.8176 12.2586C14.7759 12.2809 14.7352 12.3046 14.694 12.3274C14.6413 12.3569 14.5881 12.386 14.5363 12.416C14.4942 12.4402 14.453 12.4659 14.4113 12.4906C14.361 12.5206 14.3102 12.5506 14.2608 12.5816C14.2187 12.6078 14.1775 12.6354 14.1358 12.662C14.0879 12.693 14.0395 12.7235 13.992 12.7555C13.9499 12.7836 13.9091 12.8131 13.8675 12.8417C13.8215 12.8736 13.7755 12.9051 13.7304 12.9376C13.6887 12.9676 13.6485 12.9991 13.6073 13.0296C13.5637 13.0625 13.5191 13.095 13.476 13.1284C13.4353 13.1603 13.3955 13.1933 13.3557 13.2257C13.3136 13.2596 13.2714 13.2935 13.2297 13.3284C13.1895 13.3623 13.1507 13.3976 13.1109 13.4325C13.0711 13.4674 13.0309 13.5017 12.9916 13.5376C12.9518 13.5739 12.9135 13.6122 12.8742 13.6495C12.8368 13.6853 12.799 13.7202 12.7625 13.7565C12.7237 13.7952 12.6859 13.8359 12.648 13.8756C12.613 13.9124 12.5771 13.9483 12.5426 13.9855C12.5043 14.0272 12.4674 14.0703 12.4305 14.1129C12.3979 14.1502 12.3644 14.1865 12.3327 14.2243C12.2944 14.2698 12.2575 14.3173 12.2206 14.3638C12.1914 14.4006 12.1612 14.4359 12.1329 14.4732C12.0941 14.5241 12.0568 14.5768 12.0189 14.6291C11.9935 14.664 11.9676 14.6979 11.9432 14.7333C11.9025 14.7914 11.8641 14.8519 11.8253 14.9115C11.8052 14.9425 11.7841 14.9725 11.7645 15.004C11.7065 15.096 11.6509 15.1899 11.5968 15.2858C9.76117 18.5494 10.9365 22.7108 9.94276 26.3279C9.8685 26.5981 9.78273 26.864 9.6869 27.127C9.62317 27.3023 9.55561 27.4761 9.48422 27.649C8.52401 29.9813 6.94522 32.101 6.60838 34.6009C6.36546 36.4062 6.79621 38.2155 7.26673 40.0166C7.33381 40.2737 7.40185 40.5309 7.46893 40.788C7.56955 41.1735 7.66778 41.558 7.75738 41.9425C7.81727 42.1987 7.87285 42.4544 7.92316 42.7101C8.19963 44.116 8.30456 45.5122 7.93083 46.8928C7.89106 47.0406 7.84362 47.1897 7.7799 47.3287C7.76409 47.3636 7.74684 47.3975 7.72863 47.4309C7.67401 47.5311 7.60836 47.6236 7.52787 47.705C7.30602 47.9282 6.99937 48.0333 6.69415 48.1176C6.65055 48.1297 6.60695 48.1413 6.56382 48.1525C6.47614 48.1757 6.38318 48.1985 6.28544 48.2217C4.82308 48.5685 2.33344 48.9152 0.500225 49.2615C0.00382899 49.3554 -0.125541 49.9152 0.124574 50.2499C0.180155 50.324 0.253943 50.3874 0.346898 50.4315C0.350731 50.4334 0.354085 50.4358 0.357918 50.4378C0.392896 50.4538 0.430749 50.4668 0.470518 50.477C0.551973 50.4978 0.634386 50.5158 0.716799 50.5312C0.799212 50.5472 0.882105 50.5608 0.964518 50.5739C1.04693 50.5865 1.12982 50.6 1.2108 50.6102C2.57828 50.7807 4.24667 50.8538 5.99124 50.8717C6.27921 50.8746 6.56861 50.8761 6.85994 50.8761H6.86089C7.59495 50.8761 8.33523 50.8683 9.06688 50.8547C9.5422 50.846 10.0137 50.8349 10.4765 50.8223C11.8651 50.7845 13.1784 50.7337 14.2958 50.692C14.8473 50.6712 15.3988 50.6538 15.9503 50.6373C16.1041 50.6329 16.2574 50.6286 16.4112 50.6242C16.8482 50.6121 17.2857 50.6015 17.7231 50.5918C17.8496 50.5889 17.9766 50.586 18.1031 50.5831C18.6398 50.5724 19.1764 50.5632 19.713 50.5559C19.8645 50.554 20.0163 50.5526 20.1678 50.5506C20.5693 50.5458 20.9713 50.5419 21.3728 50.539C21.5592 50.5375 21.7456 50.5361 21.932 50.5351C22.3967 50.5327 22.862 50.5312 23.3268 50.5312C23.5165 50.5312 23.7062 50.5312 23.8955 50.5317C24.2908 50.5322 24.6856 50.5337 25.0809 50.5356C25.3205 50.5371 25.5596 50.5385 25.7992 50.5404C26.1001 50.5429 26.401 50.5453 26.7019 50.5487C26.951 50.5511 27.1997 50.5535 27.4489 50.5564C27.9012 50.5618 28.353 50.5685 28.8053 50.5753C29.1287 50.5806 29.4527 50.586 29.7761 50.5918C29.9601 50.5952 30.1441 50.5986 30.3281 50.6019C30.6807 50.6087 31.0334 50.6155 31.386 50.6233C31.4234 50.6242 31.4608 50.6247 31.4977 50.6257C32.7679 50.6533 34.0381 50.6857 35.3083 50.7216C34.1981 49.9332 33.0199 49.2639 31.6586 48.8542L31.6582 48.8576Z" fill="black"/>
<path d="M25.0114 13.2601C24.8528 13.6509 24.7186 14.0524 24.6084 14.4602C24.3846 15.2868 24.2581 16.145 24.227 17.0017C24.1647 18.6991 24.4901 20.4023 25.1805 21.9505C25.5466 22.7714 26.0166 23.5477 26.6654 24.1719C26.996 24.4901 27.3563 24.7739 27.7022 25.0746C28.0511 25.3778 28.3874 25.6959 28.7123 26.0253C29.363 26.6848 29.9681 27.389 30.5445 28.1149C31.063 28.7682 31.5795 29.5886 32.4664 29.7344C32.9144 29.808 33.3581 29.699 33.6882 29.3736C33.9752 29.0912 34.1377 28.6927 34.2292 28.3052C34.4491 27.3725 34.3715 26.386 34.1195 25.4683C33.8689 24.5564 33.4419 23.7007 32.9657 22.8895C32.7347 22.4958 32.4904 22.1103 32.246 21.7248C32.0064 21.3476 31.7539 20.966 31.5905 20.5471C31.4425 20.1674 31.3634 19.7703 31.315 19.3669C31.3208 19.3369 31.3241 19.3049 31.3222 19.2691C31.3035 18.9528 31.2772 18.6361 31.2407 18.3218C31.2336 18.1509 31.2273 17.9804 31.2192 17.8114C31.1746 16.883 31.0812 15.9547 30.7031 15.097C30.0798 13.6834 28.7779 12.6896 27.3783 12.1443C27.0372 12.0112 26.686 11.9075 26.3285 11.8296C26.2528 11.8131 26.1848 11.8204 26.1254 11.8421C25.9002 11.8145 25.6985 11.9283 25.5629 12.1153C25.3214 12.4494 25.1666 12.8795 25.0123 13.2601H25.0114Z" fill="#3A3A3A"/>
<path d="M41.5349 49.5971C41.5119 49.5855 41.487 49.5763 41.4601 49.5719C40.2407 49.2881 39.039 48.9274 37.8651 48.4886C37.2757 48.2682 36.6936 48.0285 36.12 47.768C35.6217 47.5413 35.0971 47.3074 34.6907 46.9297C34.2969 46.5636 34.0693 46.0788 33.9112 45.5698C33.7305 44.9882 33.6069 44.3858 33.5111 43.7843C33.3118 42.5324 33.2797 41.2515 33.3803 39.9885C33.4766 38.7807 33.7967 37.6078 33.8968 36.4019C33.9907 35.2741 33.7502 34.1684 32.9514 33.3384C32.2524 32.612 31.3175 32.1887 30.4551 31.702C29.4163 31.1155 28.5054 30.3262 27.459 29.7533C26.412 29.1799 25.1888 28.8283 24.0091 29.1615C22.9516 29.4603 22.1079 30.1969 21.2215 30.8138C20.2478 31.4918 19.1386 31.9567 18.233 32.7359C17.3346 33.5089 16.7874 34.5588 16.8564 35.7695C16.9791 37.9129 18.4328 39.6602 20.1194 40.8258C22.0595 42.1658 24.3805 42.7441 26.55 43.5809C27.6895 44.0206 28.7661 44.5727 29.803 45.2207C30.8322 45.8638 31.8221 46.5679 32.846 47.2198C33.8819 47.8794 34.9562 48.4484 36.0966 48.9007C37.2106 49.3429 38.3644 49.6775 39.532 49.94C40.107 50.0693 40.6858 50.1807 41.2665 50.2795C41.3571 50.3003 41.4366 50.2887 41.5037 50.2562C41.6019 50.2175 41.6815 50.141 41.7136 50.0233C41.7265 49.9758 41.7275 49.924 41.7193 49.8727C41.7126 49.7589 41.6551 49.6523 41.5349 49.5976V49.5971Z" fill="#3A3A3A"/>
<path d="M35.7128 29.7701C35.6136 30.8864 35.3779 31.9867 35.0655 33.0608C34.9993 33.2879 35.3496 33.3848 35.4157 33.1581C35.9672 31.2636 36.2902 29.2495 36.0491 27.2756C35.9303 26.3012 35.6744 25.3491 35.249 24.4648C34.8019 23.535 34.1685 22.7175 33.6146 21.8536C32.9855 20.8724 32.4402 19.7736 32.4915 18.574C32.5015 18.3377 32.1383 18.3382 32.1283 18.574C32.0368 20.7271 33.6299 22.3417 34.6304 24.0759C35.6261 25.8019 35.8872 27.8025 35.7128 29.7701Z" fill="white"/>
<path d="M34.5106 39.0546C34.4095 41.0605 34.3194 43.1376 35.0199 45.0544C35.1004 45.2742 35.4512 45.1788 35.3702 44.957C34.6802 43.0693 34.7741 41.0305 34.8738 39.0551C34.8858 38.8193 34.5226 38.8198 34.5106 39.0551V39.0546Z" fill="white"/>
<path d="M28.2204 32.1546C27.5649 31.8844 26.8917 31.6621 26.2195 31.4413C25.9967 31.3682 25.9013 31.7222 26.1232 31.7953C28.1782 32.4713 30.4647 33.2515 31.6027 35.2652C31.8892 35.7722 32.0737 36.333 32.1139 36.917C32.1298 37.1514 32.493 37.1534 32.4771 36.917C32.4029 35.8255 31.8864 34.8356 31.1528 34.0467C30.3464 33.1794 29.3014 32.6007 28.2214 32.1551L28.2204 32.1546Z" fill="white"/>
<path d="M22.9347 13.5874C22.2658 16.9101 22.7033 20.4163 24.1244 23.4842C24.5288 24.3568 25.0147 25.1893 25.5743 25.9695C25.7099 26.1588 26.0252 25.9758 25.8877 25.7845C23.9615 23.0977 22.9433 19.7906 22.9884 16.4752C23.0013 15.5376 23.0995 14.6039 23.285 13.6852C23.3314 13.4547 22.9817 13.3559 22.9347 13.5879V13.5874Z" fill="white"/>
<path d="M22.1524 3.5518C22.6493 3.57117 23.1418 3.45688 23.6171 3.32176C23.8419 3.25784 23.7465 2.90383 23.5208 2.96775C23.0858 3.09125 22.6416 3.19779 22.1869 3.18568C21.7753 3.17454 21.3824 3.04669 21.0259 2.84184C20.2885 2.41761 19.7591 1.72412 19.2473 1.05824C19.1041 0.871791 18.8487 1.1333 18.9905 1.31781C19.5463 2.04084 20.129 2.7847 20.9478 3.21667C21.322 3.41426 21.7303 3.53533 22.1534 3.5518H22.1524Z" fill="white"/>
<path d="M25.0518 9.8358C24.6469 9.90602 24.2339 9.953 23.8228 9.9559C23.4169 9.95881 22.9996 9.88714 22.6623 9.64403C22.347 9.41642 22.1285 8.99412 22.2353 8.6004C22.3379 8.22218 22.7648 7.83669 23.1716 7.92483C23.6186 8.02169 24.0154 8.51033 23.9981 8.97185C23.989 9.20817 24.3522 9.20769 24.3613 8.97185C24.3819 8.42848 24.0048 7.91708 23.5386 7.67494C23.0197 7.40569 22.4653 7.61489 22.1179 8.05849C21.7845 8.48418 21.7696 9.04933 22.0504 9.5094C22.3398 9.98399 22.8673 10.2276 23.3982 10.2983C23.9737 10.3748 24.5803 10.2891 25.1486 10.1903C25.2382 10.1748 25.2774 10.1114 25.2794 10.0421C25.2808 9.9898 25.2607 9.9346 25.2233 9.89392C25.1835 9.85033 25.1246 9.82369 25.0522 9.83629L25.0518 9.8358Z" fill="white"/>
<path d="M21.6431 12.1156C23.012 12.5374 24.5765 12.0996 25.5328 11.0226C25.6886 10.8473 25.4327 10.5867 25.276 10.763C24.4021 11.7476 22.9924 12.1476 21.7399 11.7616C21.5157 11.6928 21.4203 12.0469 21.6431 12.1156Z" fill="white"/>
<path d="M17.4256 29.8147C17.5008 30.5236 18.0312 31.1261 18.7778 31.0418C19.5171 30.9585 20.0183 30.3353 20.5956 29.9275C21.1558 29.5318 21.7695 29.2611 22.3656 28.9309C22.9597 28.6015 23.4509 28.1531 23.6823 27.495C23.9051 26.8606 23.8486 26.1385 23.6583 25.5041C23.4442 24.7888 23.0719 24.1379 22.7666 23.4614C22.4681 22.7994 22.2343 22.1064 22.0585 21.4008C21.8821 20.6952 21.7662 19.976 21.7173 19.2501C21.6924 18.882 21.6833 18.5135 21.6905 18.1445C21.6977 17.7851 21.7274 17.4244 21.6871 17.066C21.6474 16.7096 21.5606 16.3168 21.3009 16.0538C21.0518 15.8015 20.6876 15.7555 20.3556 15.8156C19.7207 15.9299 19.185 16.4471 18.8472 16.9754C18.45 17.5963 18.2914 18.3314 18.2124 19.0564C18.1271 19.8414 18.1276 20.638 18.2004 21.424C18.2727 22.2013 18.4361 22.9665 18.5003 23.7442C18.5617 24.4895 18.485 25.2033 18.2962 25.9244C18.1108 26.6334 17.8568 27.3216 17.6575 28.0267C17.52 28.5129 17.3585 29.0737 17.4179 29.5943C17.4165 29.6679 17.4179 29.7415 17.4256 29.8147Z" fill="#3A3A3A"/>
</g>
<defs>
<clipPath id="clip0_352_2015">
<rect width="45" height="51" fill="white"/>
</clipPath>
</defs>
</svg>
