<svg width="76" height="46" viewBox="0 0 76 46" fill="none" xmlns="http://www.w3.org/2000/svg">
<path d="M38.9588 24.0346C38.9195 24.5103 38.9151 25.0089 39.033 25.4755C39.1422 25.9192 39.3213 26.3354 39.4829 26.7563C39.6707 27.2457 39.8716 27.79 39.8061 28.3298C39.7406 28.8558 39.4742 29.4276 39.1291 29.8164C38.9151 30.0542 38.6356 30.2326 38.308 30.1594C37.9673 30.0817 37.6835 29.8347 37.4345 29.5968C37.0982 29.2812 36.7837 28.929 36.4168 28.65C36.0587 28.3801 35.635 28.1788 35.207 28.0645C34.5999 27.8998 33.9754 27.9547 33.4949 28.4029C32.617 29.2263 32.3899 30.5482 31.7173 31.5225C31.4247 31.9433 31.036 32.3093 30.525 32.387C29.9703 32.4694 29.337 32.3413 28.8827 31.9891C27.935 31.2618 27.6729 29.9627 27.1226 28.9427C27.0745 28.8558 27.0265 28.7643 26.9697 28.6774V41.0047H41.2256V20.7961C40.7364 21.0294 40.2865 21.3496 39.9153 21.7704C39.3693 22.3925 39.0418 23.1884 38.9675 24.0301L38.9588 24.0346Z" fill="#EEEBE6"/>
<path d="M47.838 29.5511C47.4012 29.7523 46.8466 29.7844 46.4185 29.5328C46.0386 29.3086 45.8202 28.9061 45.7153 28.4716C45.5275 27.7077 45.6193 26.9301 45.6542 26.1571C45.6891 25.3337 45.6717 24.4921 45.5188 23.6824C45.3747 22.9186 45.117 22.1181 44.5798 21.5509C44.1255 21.0752 43.5534 20.8556 42.9463 20.8145V41.0185H49.2444V28.7049L49.1876 28.7323C48.7246 28.9747 48.3228 29.3361 47.8424 29.5511H47.838Z" fill="#E9E7E2"/>
<path d="M43.169 10.7056L45.5406 5.30811L44.9772 6.58887L44.7982 5.68319L29.4111 5.30811H29.3587L26 12.9515H42.182L43.169 10.7056ZM27.3496 11.9681L30.4025 5.98965H33.3288L37.3383 11.9681H27.3496ZM39.2819 9.93714C38.4171 9.93714 37.7139 9.18698 37.7139 8.263C37.7139 7.33903 38.4171 6.58887 39.2819 6.58887C40.1467 6.58887 40.8498 7.33903 40.8498 8.263C40.8498 9.18698 40.1467 9.93714 39.2819 9.93714Z" fill="#8DD6F0"/>
<path d="M43.169 10.7056L42.1819 12.9515V42.3998H49.9999V12.9515L45.1431 8.85303L43.169 10.7056ZM49.2399 41.0138H42.9418V20.8098C43.5489 20.8556 44.1255 21.0706 44.5753 21.5463C45.1125 22.1135 45.3702 22.914 45.5144 23.6778C45.6672 24.492 45.6847 25.3291 45.6498 26.1524C45.6148 26.9301 45.5275 27.7031 45.7109 28.467C45.8157 28.8969 46.0385 29.2995 46.4141 29.5282C46.8377 29.7797 47.3968 29.7477 47.8336 29.5465C48.314 29.3269 48.7158 28.9701 49.1788 28.7277L49.2356 28.7002V41.0138H49.2399Z" fill="#71B3D4"/>
<path d="M43.1689 10.7056L45.1431 8.85307L49.9999 12.9515L45.5406 5.30811L43.1689 10.7056Z" fill="#43A0C4"/>
<path d="M45.5407 4H29.4111V5.30821H45.5407V4Z" fill="#63CCEE"/>
<path d="M39.2818 6.58887C38.4171 6.58887 37.7139 7.33903 37.7139 8.263C37.7139 9.18698 38.4171 9.93714 39.2818 9.93714C40.1466 9.93714 40.8498 9.18698 40.8498 8.263C40.8498 7.33903 40.1466 6.58887 39.2818 6.58887Z" fill="#54B3D4"/>
<path d="M30.4026 5.98975L27.3496 11.9682H37.3383L33.3289 5.98975H30.4026Z" fill="#A7DEF2"/>
<path d="M44.9773 6.58887L45.5407 5.30811H29.4111L44.7982 5.68319L44.9773 6.58887Z" fill="white"/>
<path d="M42.182 15.6367V12.9517H26L41.2211 13.5372L42.182 15.6367Z" fill="white"/>
<path d="M40.0593 17.4753C40.0593 17.704 40.2384 17.8916 40.4568 17.8916C40.6752 17.8916 40.8542 17.704 40.8542 17.4753C40.8542 17.2466 40.6752 17.0591 40.4568 17.0591C40.2384 17.0591 40.0593 17.2466 40.0593 17.4753Z" fill="#54B3D4"/>
<path d="M40.4524 19.1357C40.234 19.1357 40.0549 19.3233 40.0549 19.552C40.0549 19.7807 40.234 19.9682 40.4524 19.9682C40.6708 19.9682 40.8498 19.7807 40.8498 19.552C40.8498 19.3233 40.6708 19.1357 40.4524 19.1357Z" fill="#54B3D4"/>
<path d="M41.09 18.491C40.9677 18.491 40.8716 18.5916 40.8716 18.7197C40.8716 18.8477 40.9677 18.9484 41.09 18.9484C41.2123 18.9484 41.3083 18.8477 41.3083 18.7197C41.3083 18.5916 41.2123 18.491 41.09 18.491Z" fill="#54B3D4"/>
<path d="M38.8059 18.7197C38.8059 18.8477 38.902 18.9484 39.0243 18.9484C39.1466 18.9484 39.2427 18.8477 39.2427 18.7197C39.2427 18.5916 39.1466 18.491 39.0243 18.491C38.902 18.491 38.8059 18.5916 38.8059 18.7197Z" fill="#54B3D4"/>
<path d="M40.234 15.8654C40.3563 15.8654 40.4524 15.7647 40.4524 15.6367C40.4524 15.5086 40.3563 15.408 40.234 15.408C40.1117 15.408 40.0156 15.5086 40.0156 15.6367C40.0156 15.7647 40.1117 15.8654 40.234 15.8654Z" fill="#54B3D4"/>
<path d="M41.5267 15.8652C41.4044 15.8652 41.3083 15.9704 41.3083 16.0939C41.3083 16.2174 41.4044 16.3226 41.5267 16.3226C41.649 16.3226 41.7451 16.222 41.7451 16.0939C41.7451 15.9659 41.649 15.8652 41.5267 15.8652Z" fill="#54B3D4"/>
<path d="M41.2209 13.5366H41.217L42.1819 15.6362V42.3999H26.0002V12.9517L41.2209 13.5366ZM41.2122 20.8101C40.7231 21.0433 40.2728 21.3629 39.9016 21.7837C39.3513 22.4057 39.0243 23.2019 38.9543 24.0435C38.915 24.5192 38.915 25.0183 39.0286 25.4849C39.1378 25.9238 39.3128 26.3444 39.4788 26.7651C39.6709 27.2545 39.8664 27.7988 39.801 28.3384C39.7355 28.8644 39.4693 29.4369 39.1243 29.8257C38.9103 30.0634 38.626 30.2416 38.303 30.1685C37.9669 30.086 37.6831 29.8437 37.4299 29.606C37.0936 29.2903 36.7792 28.9377 36.4124 28.6587C36.0542 28.3843 35.6304 28.1881 35.2024 28.0737C34.5998 27.9091 33.9709 27.959 33.4905 28.4116C32.6126 29.235 32.3901 30.5574 31.7131 31.5317C31.4206 31.9524 31.0272 32.3181 30.5208 32.396C29.9661 32.4783 29.3368 32.3498 28.8782 31.9976C27.9306 31.2703 27.6686 29.9716 27.1184 28.9517C27.0704 28.8602 27.0175 28.7729 26.9651 28.686V41.0142H41.2122V20.8101ZM40.4524 19.1353C40.234 19.1353 40.0549 19.3235 40.0549 19.5522C40.0552 19.7807 40.2342 19.9683 40.4524 19.9683C40.6706 19.9682 40.8496 19.7807 40.8499 19.5522C40.8499 19.3236 40.6707 19.1353 40.4524 19.1353ZM41.0901 18.4907C40.9678 18.4907 40.8714 18.5912 40.8713 18.7192C40.8713 18.8473 40.9678 18.9478 41.0901 18.9478C41.2123 18.9477 41.3079 18.8473 41.3079 18.7192C41.3078 18.5912 41.2123 18.4908 41.0901 18.4907ZM40.4524 17.0591C40.234 17.0591 40.0549 17.2464 40.0549 17.4751C40.0549 17.7038 40.234 17.8911 40.4524 17.8911C40.6707 17.891 40.8499 17.7038 40.8499 17.4751C40.8498 17.2464 40.6707 17.0592 40.4524 17.0591ZM41.5266 15.8647C41.4045 15.8648 41.3081 15.9654 41.3079 16.0933C41.3079 16.2213 41.4044 16.3227 41.5266 16.3228C41.6489 16.3228 41.7454 16.2168 41.7454 16.0933C41.7451 15.97 41.6488 15.8647 41.5266 15.8647ZM40.2336 15.4028C40.1116 15.403 40.0161 15.5035 40.0159 15.6313C40.0159 15.7593 40.1115 15.8607 40.2336 15.8608C40.3559 15.8608 40.4524 15.7594 40.4524 15.6313C40.4522 15.5035 40.3558 15.4028 40.2336 15.4028Z" fill="#6BC4E5"/>
</svg>
