<svg width="76" height="46" viewBox="0 0 76 46" fill="none" xmlns="http://www.w3.org/2000/svg">
<path d="M26.0936 15.3506H24.7884C23.7812 15.3506 22.9587 15.5592 22.9587 15.8095H27.9173C27.9173 15.5592 27.1008 15.3506 26.0936 15.3506Z" fill="#7EBFD7"/>
<path d="M27.9231 15.8096H22.9646V17.7227H27.9231V15.8096Z" fill="#63ACCF"/>
<path d="M23.4534 16.0061H23.1912V17.5139H23.4534V16.0061Z" fill="#5395BE"/>
<path d="M24.1626 16.0061H23.9004V17.5139H24.1626V16.0061Z" fill="#5395BE"/>
<path d="M24.8657 16.0061H24.6035V17.5139H24.8657V16.0061Z" fill="#5395BE"/>
<path d="M25.575 16.0061H25.3127V17.5139H25.575V16.0061Z" fill="#5395BE"/>
<path d="M26.2783 16.0061H26.0161V17.5139H26.2783V16.0061Z" fill="#5395BE"/>
<path d="M26.9876 16.0061H26.7253V17.5139H26.9876V16.0061Z" fill="#5395BE"/>
<path d="M27.6968 16.0061H27.4346V17.5139H27.6968V16.0061Z" fill="#5395BE"/>
<path d="M29.878 41.0791V41.2102C29.878 41.3472 29.878 41.4784 29.878 41.6095C29.8661 42.5571 29.8184 43.308 29.7111 43.6179C29.4727 44.3033 28.6086 45.3522 27.9113 45.3522H22.9766C22.2793 45.3522 21.4092 44.3093 21.1708 43.6179C21.0277 43.1948 20.986 41.973 21.0039 40.5486C21.0039 40.4175 21.0039 40.2804 21.0039 40.1493C21.0039 40.1017 21.0039 40.0599 21.0039 40.0182C21.0158 39.4938 21.0337 38.9455 21.0575 38.415C21.0575 38.2839 21.0694 38.1468 21.0754 38.0157C21.0754 37.9681 21.0754 37.9263 21.0814 37.8846C21.1112 37.3125 21.1469 36.7642 21.1827 36.2814C21.1946 36.1444 21.2065 36.0132 21.2125 35.8821C21.2125 35.8344 21.2184 35.7927 21.2244 35.751C21.2542 35.3994 21.284 35.1014 21.3138 34.869C21.3257 34.7676 21.3376 34.6782 21.3555 34.6008C21.3674 34.5293 21.3794 34.4697 21.3913 34.4339C21.5522 33.8677 21.5403 30.7388 21.433 28.7483C21.4211 28.5754 21.4151 28.4145 21.4032 28.2596C21.3615 27.6636 21.3138 27.2404 21.2602 27.1212C21.0277 26.6206 20.8609 24.3142 21.2602 23.3845C21.6595 22.4488 22.9647 20.3152 23.1971 19.9814C23.4295 19.6477 23.352 18.6822 23.352 18.6822V17.7227H27.5001V18.6822C27.5001 18.6822 27.4226 19.6477 27.655 19.9814C27.8934 20.3152 29.1926 22.4547 29.5919 23.3845C29.9913 24.3201 29.8244 26.6266 29.5919 27.1212C29.5323 27.2404 29.4847 27.6636 29.4489 28.2596C29.437 28.4145 29.431 28.5754 29.4191 28.7483C29.3118 30.7388 29.294 33.8737 29.4608 34.4339C29.4727 34.4756 29.4847 34.5293 29.4966 34.6008C29.5085 34.6782 29.5204 34.7617 29.5383 34.869C29.5979 35.31 29.6575 35.9954 29.7111 36.8059C29.7111 36.8536 29.7111 36.8953 29.7171 36.937C29.7231 37.0681 29.735 37.1992 29.7409 37.3363C29.7707 37.8489 29.7946 38.3912 29.8184 38.9395C29.8184 38.9872 29.8184 39.0289 29.8184 39.0706C29.8184 39.2017 29.8303 39.3388 29.8303 39.4699C29.8482 40.0182 29.8601 40.5665 29.8601 41.0731L29.878 41.0791Z" fill="#A5DCEA"/>
<path d="M27.5776 18.6643H23.3044C23.1912 18.6643 23.1018 18.5749 23.1018 18.4617C23.1018 18.3484 23.1912 18.259 23.3044 18.259H27.5776C27.6908 18.259 27.7802 18.3484 27.7802 18.4617C27.7802 18.5749 27.6908 18.6643 27.5776 18.6643Z" fill="#7EBFD7"/>
<path opacity="0.5" d="M29.7528 37.3363C27.5894 37.3065 26.4154 37.0502 25.277 36.7999C24.1685 36.5555 23.1196 36.3291 21.1946 36.2814C21.2065 36.1443 21.2184 36.0132 21.2244 35.8821C21.2244 35.8344 21.2303 35.7927 21.2363 35.751C23.1971 35.8046 24.3115 36.043 25.3903 36.2814C26.5405 36.5377 27.6311 36.7761 29.7171 36.8059C29.7171 36.8535 29.7171 36.8953 29.723 36.937C29.729 37.0681 29.7409 37.1992 29.7469 37.3363H29.7528Z" fill="#DCF2F7"/>
<g opacity="0.5">
<path d="M29.8481 39.4758C27.6191 39.446 26.4331 39.1897 25.2769 38.9394C24.1446 38.6891 23.0778 38.4567 21.0693 38.4149C21.0693 38.2838 21.0813 38.1468 21.0872 38.0156C21.0872 37.968 21.0872 37.9262 21.0932 37.8845C23.1493 37.9262 24.2876 38.1766 25.3902 38.4149C26.5583 38.6712 27.6728 38.9156 29.8243 38.9394C29.8243 38.9871 29.8243 39.0288 29.8243 39.0705C29.8243 39.2016 29.8362 39.3387 29.8362 39.4698L29.8481 39.4758Z" fill="#DCF2F7"/>
</g>
<path opacity="0.5" d="M29.8779 41.0789V41.21C29.8779 41.3471 29.8779 41.4782 29.8779 41.6093C27.6311 41.5855 26.4391 41.3233 25.2829 41.0729C24.1387 40.8226 23.0599 40.5842 21.0098 40.5485C21.0098 40.4174 21.0098 40.2803 21.0098 40.1492C21.0098 40.1015 21.0098 40.0598 21.0098 40.0181C23.1136 40.0538 24.2698 40.3101 25.3902 40.5544C26.5702 40.8107 27.6907 41.061 29.8779 41.0789Z" fill="#DCF2F7"/>
<g opacity="0.2">
<path d="M29.8779 41.0789V41.21C27.6907 41.1862 26.5762 40.9418 25.3902 40.6856C24.2698 40.4412 23.1195 40.1909 21.0098 40.1492C21.0098 40.1015 21.0098 40.0598 21.0098 40.0181C23.1136 40.0538 24.2698 40.3101 25.3902 40.5544C26.5702 40.8107 27.6907 41.061 29.8779 41.0789Z" fill="black"/>
<path d="M29.8363 39.0766C27.6788 39.0468 26.5643 38.8084 25.3962 38.5522C24.2937 38.3138 23.1553 38.0635 21.0933 38.0217C21.0933 37.9741 21.0933 37.9323 21.0992 37.8906C23.1553 37.9323 24.2937 38.1827 25.3962 38.421C26.5643 38.6773 27.6788 38.9217 29.8303 38.9455C29.8303 38.9932 29.8303 39.0349 29.8303 39.0766H29.8363Z" fill="black"/>
<path d="M29.7289 36.937C27.643 36.9012 26.5464 36.6628 25.3961 36.4125C24.3174 36.1801 23.2029 35.9357 21.2302 35.8821C21.2302 35.8344 21.2362 35.7927 21.2421 35.751C23.2029 35.8046 24.3174 36.043 25.3961 36.2814C26.5464 36.5377 27.637 36.7761 29.7229 36.8059C29.7229 36.8535 29.7229 36.8953 29.7289 36.937Z" fill="black"/>
</g>
<path opacity="0.2" d="M27.5179 17.7166H23.3699V18.0205H27.5179V17.7166Z" fill="black"/>
<path opacity="0.3" d="M24.1031 44.6131C23.9541 44.1542 23.9184 42.843 23.9362 41.3113C23.9362 41.1683 23.9362 41.0253 23.9422 40.8822C23.9422 40.8346 23.9422 40.7869 23.9422 40.7392C23.9541 40.173 23.972 39.589 23.9958 39.0168C23.9958 38.8738 24.0078 38.7308 24.0137 38.5877C24.0137 38.54 24.0137 38.4924 24.0197 38.4447C24.0495 37.8308 24.0852 37.2408 24.121 36.7223C24.1329 36.5733 24.1448 36.4303 24.1508 36.2932C24.1508 36.2455 24.1627 36.1979 24.1627 36.1502C24.2104 35.6019 24.2521 35.1728 24.2938 34.9165C24.3058 34.839 24.3177 34.7794 24.3296 34.7377C24.5084 34.0821 24.4726 30.1546 24.3415 28.0985C24.2998 27.4608 24.2521 27.0019 24.1985 26.8767C23.9601 26.3404 23.9601 23.9147 24.1985 22.8539C24.6872 20.6905 24.6872 17.7166 24.6872 17.7166H23.8945V18.6761C23.8945 18.6761 23.972 19.6416 23.7396 19.9753C23.5071 20.3091 22.2019 22.4486 21.8026 23.3784C21.4033 24.314 21.5702 26.6205 21.8026 27.1151C21.8563 27.2343 21.904 27.6575 21.9457 28.2535C22.0768 30.1665 22.1126 33.8199 21.9338 34.4278C21.9218 34.4695 21.9099 34.5232 21.898 34.5947C21.8563 34.8331 21.8146 35.2324 21.7669 35.7389C21.7669 35.7807 21.7609 35.8283 21.755 35.8701C21.743 35.9952 21.7311 36.1263 21.7252 36.2694C21.6894 36.7521 21.6536 37.3004 21.6238 37.8725C21.6238 37.9143 21.6238 37.9619 21.6179 38.0037C21.6179 38.1348 21.606 38.2659 21.6 38.403C21.5762 38.9334 21.5583 39.4817 21.5464 40.0062C21.5464 40.0479 21.5464 40.0956 21.5464 40.1373C21.5464 40.2684 21.5464 40.4055 21.5464 40.5366C21.5285 41.961 21.5702 43.1827 21.7132 43.6059C21.9457 44.2912 22.8158 45.3402 23.5131 45.3402H24.4726C24.3058 45.0899 24.1746 44.8276 24.1031 44.6011V44.6131Z" fill="white"/>
<path d="M54.9986 42.5331C54.7781 43.3735 53.3716 44.5893 52.3048 44.9349C50.7135 45.4475 43.3353 45.3402 43.3353 45.3402C43.3353 45.3402 35.9571 45.4475 34.3658 44.9349C33.299 44.5893 31.8925 43.3735 31.672 42.5331C31.5528 42.0563 31.4634 39.9883 31.672 39.5771C31.8806 39.1599 32.3335 38.9096 32.3335 38.9096V17.2279L31.672 16.2266V14.7665C31.672 14.7665 32.3157 13.3838 33.5076 12.5614C34.2943 12.0131 36.267 10.9165 38.3529 9.8735C40.3375 8.87226 41.1957 7.35251 41.1361 6.12479C41.1361 6.07116 41.1242 6.01156 41.1242 5.94004C41.1123 5.8566 41.1063 5.75529 41.0885 5.64801C40.9276 4.40242 40.4448 2.04234 40.6117 1.87547C40.7964 1.69071 42.6082 1.5 43.3413 1.5C44.0743 1.5 45.8861 1.69071 46.0708 1.87547C46.2377 2.04234 45.749 4.40242 45.5941 5.64801C45.5762 5.75529 45.5702 5.85064 45.5583 5.94004C45.5583 6.01156 45.5464 6.07116 45.5464 6.12479C45.4868 7.34655 46.345 8.87226 48.3296 9.8735C50.4096 10.9165 52.3882 12.0131 53.1749 12.5614C54.3609 13.3779 55.0105 14.7665 55.0105 14.7665V16.2266L54.349 17.2279V38.9155C54.349 38.9155 54.8019 39.1659 55.0105 39.583C55.2191 39.9943 55.1297 42.0623 55.0105 42.5391L54.9986 42.5331Z" fill="#A5DCEA"/>
<path d="M54.9867 14.7485C47.2271 14.1525 39.4376 14.1525 31.678 14.7485C31.7197 14.6591 31.9104 14.2836 32.2442 13.8307C39.6164 13.0738 47.0185 13.0618 54.3907 13.7949C54.7424 14.2657 54.939 14.6591 54.9867 14.7485Z" fill="#B4E2ED"/>
<path d="M54.9985 14.7664V16.2027C47.2388 15.6007 39.4375 15.6007 31.6719 16.2027V14.7664C31.6719 14.7664 31.6719 14.7664 31.6838 14.7485C39.4434 14.1525 47.2329 14.1525 54.9925 14.7485C54.9925 14.7664 55.0044 14.7664 55.0044 14.7664H54.9985Z" fill="#ADDCDC"/>
<path d="M54.9985 39.5769C53.7231 40.6795 32.8817 40.6378 31.6719 39.5769C31.8805 39.1597 32.3334 38.9094 32.3334 38.9094C39.658 39.4816 47.0064 39.4816 54.331 38.9094C54.331 38.9094 54.7839 39.1597 54.9925 39.5769H54.9985Z" fill="#B4E2ED"/>
<path d="M54.9985 16.2088V16.2267L54.3369 17.2279C46.9349 16.6856 39.7295 16.6856 32.3334 17.216L31.6719 16.2267V16.2088C39.4315 15.6068 47.2329 15.6068 54.9985 16.2088Z" fill="#85D6EA"/>
<path opacity="0.2" d="M45.588 5.65997H41.0824C40.9215 4.41438 40.4387 2.0543 40.6056 1.88743C40.7904 1.70268 42.6022 1.51196 43.3352 1.51196C44.0683 1.51196 45.88 1.70268 46.0648 1.88743C46.2317 2.0543 45.743 4.41438 45.588 5.65997Z" fill="black"/>
<path d="M54.9985 21.8944C47.2269 21.5368 39.4434 21.5368 31.6719 21.8944V20.4342C39.4434 20.0766 47.2269 20.0766 54.9985 20.4342V21.8944Z" fill="#A5DCEA"/>
<path d="M31.6719 20.4402C31.8924 20.1243 32.1129 19.8085 32.3394 19.4926C39.6699 19.1708 47.0064 19.1708 54.331 19.4926C54.5515 19.8085 54.772 20.1243 54.9985 20.4402C47.2269 20.0826 39.4434 20.0826 31.6719 20.4402Z" fill="#B4E2ED"/>
<path d="M31.6719 21.8944C31.8924 22.1924 32.1129 22.4844 32.3394 22.7824C39.6699 22.4606 47.0064 22.4606 54.331 22.7824C54.5515 22.4844 54.772 22.1924 54.9985 21.8944C47.2269 21.5368 39.4434 21.5368 31.6719 21.8944Z" fill="#85D6EA"/>
<path d="M54.9985 36.2038C47.2329 36.7998 39.4375 36.7998 31.6719 36.2038V34.7437C39.4375 35.3396 47.2329 35.3396 54.9985 34.7437V36.2038Z" fill="#A5DCEA"/>
<path d="M31.6719 34.7436C31.8924 34.4575 32.1129 34.1655 32.3394 33.8794C39.6639 34.4098 47.0124 34.4098 54.3369 33.8794C54.5575 34.1655 54.778 34.4575 55.0044 34.7436C47.2388 35.3395 39.4434 35.3395 31.6778 34.7436H31.6719Z" fill="#B4E2ED"/>
<path d="M31.6719 36.2039C31.8924 36.5257 32.1129 36.8475 32.3394 37.1693C39.6639 37.6998 47.0124 37.6998 54.3369 37.1693C54.5575 36.8475 54.778 36.5257 55.0044 36.2039C47.2388 36.7998 39.4434 36.7998 31.6778 36.2039H31.6719Z" fill="#85D6EA"/>
<path d="M54.9985 14.7485V16.2086C47.2388 15.6067 39.4375 15.6067 31.6719 16.2086V14.7485H31.6838C39.4434 14.1525 47.2329 14.1525 54.9925 14.7485H55.0044H54.9985Z" fill="#A5DCEA"/>
<path d="M45.582 6.75655H41.0884C40.8798 6.75655 40.7129 6.58967 40.7129 6.38108C40.7129 6.17249 40.8798 6.00562 41.0884 6.00562H45.582C45.7906 6.00562 45.9575 6.17249 45.9575 6.38108C45.9575 6.58967 45.7906 6.75655 45.582 6.75655Z" fill="#7EBFD7"/>
<path opacity="0.3" d="M38.2515 44.9349C37.4172 44.5892 36.3086 43.3734 36.1358 42.5331C36.0405 42.0563 35.9689 39.9883 36.1358 39.577C36.3027 39.1598 36.6603 38.9095 36.6603 38.9095V37.1633C36.4874 36.8415 36.3146 36.5197 36.1358 36.1978V34.7377C36.3086 34.4516 36.4815 34.1596 36.6603 33.8735V22.7704C36.4874 22.4724 36.3146 22.1804 36.1358 21.8884V20.4282C36.3086 20.1124 36.4815 19.8025 36.6603 19.4866V17.2159L36.1358 16.2147V14.7366H36.1418C36.1418 14.7366 36.1537 14.7068 36.1656 14.677C36.1775 14.6472 36.1954 14.6055 36.2193 14.5519C36.2312 14.5221 36.2431 14.4923 36.261 14.4565C36.2729 14.4387 36.2789 14.4208 36.2848 14.3969C36.4994 13.9321 36.9344 13.1096 37.5721 12.5494C38.1919 12.0011 39.7355 10.9045 41.3804 9.86154C42.9359 8.86029 43.6153 7.34055 43.5677 6.11283C43.5677 6.05919 43.5617 5.9996 43.5557 5.92808C43.5498 5.84464 43.5379 5.74332 43.526 5.63605C43.4008 4.39045 43.0194 2.03038 43.1505 1.8635C43.2697 1.71451 44.2054 1.56551 44.8729 1.51188C44.6643 1.49996 44.4736 1.48804 44.3305 1.48804C43.5975 1.48804 41.7857 1.67875 41.6009 1.8635C41.4341 2.03038 41.9228 4.39045 42.0777 5.63605C42.0956 5.74332 42.1016 5.83868 42.1135 5.92808C42.1135 5.9996 42.1254 6.05919 42.1254 6.11283C42.185 7.33459 41.3268 8.86029 39.3422 9.86154C37.2563 10.9045 35.2836 12.0011 34.4969 12.5494C33.6863 13.1096 33.1261 13.9321 32.8579 14.3969C32.846 14.4208 32.8341 14.4327 32.8222 14.4565C32.8043 14.4923 32.7864 14.5221 32.7685 14.5519C32.7387 14.6055 32.7209 14.6413 32.703 14.677C32.6911 14.7009 32.6791 14.7247 32.6732 14.7366H32.6613V16.2147L33.3228 17.2159V19.4866C33.1023 19.8025 32.8818 20.1124 32.6613 20.4282V21.8884C32.8818 22.1804 33.1023 22.4784 33.3228 22.7704V33.8735C33.1023 34.1596 32.8818 34.4516 32.6613 34.7377V36.1978C32.8818 36.5197 33.1023 36.8415 33.3228 37.1633V38.9095C33.3228 38.9095 32.8699 39.1598 32.6613 39.577C32.4527 39.9883 32.5421 42.0563 32.6613 42.5331C32.8818 43.3734 34.2883 44.5892 35.3551 44.9349C36.6066 45.3401 41.4341 45.358 43.4425 45.3461C41.6307 45.3342 39.0382 45.2567 38.2515 44.9349Z" fill="white"/>
<path d="M46.1424 5.44533H40.5283C40.2959 3.90175 39.8846 1.26752 40.0515 1.10065C40.123 1.02913 40.3733 0.963574 40.725 0.898016C41.1779 0.814579 41.7918 0.743062 42.346 0.695383C42.7334 0.665584 43.085 0.647705 43.3353 0.647705C44.2174 0.647705 46.3987 0.880137 46.6192 1.09469C46.7861 1.26156 46.3808 3.89579 46.1424 5.43937V5.44533Z" fill="#FAEDC6"/>
<path opacity="0.4" d="M42.8525 5.44541H41.2017C40.9991 3.90182 40.707 1.65498 40.7249 0.904049C41.1778 0.820612 41.7917 0.749094 42.346 0.701416C42.3638 1.62518 42.632 3.77071 42.8525 5.44541Z" fill="white"/>
</svg>
