<svg width="148" height="54" viewBox="0 0 148 54" fill="none" xmlns="http://www.w3.org/2000/svg">
<g clip-path="url(#clip0_352_2126)">
<path d="M9.62777 28.8504L28.1435 18.7383L27.5724 17.696L9.35205 27.6467L9.62777 28.8504Z" fill="#D9D9D9"/>
<path d="M9.62782 28.8505C10.2779 28.4954 9.74236 27.3313 9.74236 27.3313L26.0939 18.4014L17.7686 3.21289L0 12.9165L8.51639 28.4536C8.7515 28.7187 9.18712 29.0908 9.62782 28.8505Z" fill="#939292"/>
<path d="M18.5243 1.20133L0.755127 10.9038L9.85692 27.5119L27.6261 17.8094L18.5243 1.20133Z" fill="#D9D9D9"/>
<path d="M4.85281 13.7477L3.67603 11.6008L4.24395 11.2908L5.12186 11.8336C5.37347 11.9901 5.64791 12.188 5.87635 12.3777L5.88587 12.3726C5.69868 12.1066 5.5302 11.8219 5.35379 11.5001L5.00986 10.8728L5.45659 10.6289L6.63338 12.7758L6.12288 13.0545L5.20943 12.4772C4.95593 12.3175 4.66371 12.1171 4.42036 11.9229L4.41243 11.9315C4.58059 12.208 4.75287 12.5069 4.94482 12.8575L5.29922 13.5042L4.85249 13.7484L4.85281 13.7477Z" fill="#5A6374"/>
<path d="M7.83656 10.9388L7.04527 11.3711L7.32448 11.8806L8.20841 11.398L8.4267 11.7961L7.05447 12.5454L5.87769 10.3985L7.20518 9.67358L7.42347 10.0717L6.58427 10.5299L6.82857 10.9758L7.61986 10.5436L7.83625 10.9385L7.83656 10.9388Z" fill="#5A6374"/>
<path d="M9.12845 11.4125L7.44116 9.54465L7.9615 9.26058L8.6097 10.0571C8.79721 10.2857 8.99392 10.5384 9.1478 10.7358L9.15415 10.7323C9.06182 10.4805 8.9714 10.1948 8.88066 9.90062L8.58051 8.92203L9.09736 8.63985L9.76555 9.45028C9.95147 9.67577 10.112 9.88574 10.2751 10.1074L10.2814 10.1039C10.1824 9.84773 10.0923 9.56967 9.99748 9.29066L9.69098 8.31555L10.1856 8.04541L10.8072 10.4957L10.2805 10.7833L9.59231 9.95889C9.43209 9.76507 9.28709 9.58329 9.12686 9.3521L9.12052 9.35559C9.21507 9.61844 9.29153 9.84172 9.35943 10.0862L9.66148 11.1215L9.12845 11.4125Z" fill="#5A6374"/>
<path d="M11.3306 9.5601C11.4982 9.55535 11.7358 9.5126 11.9433 9.39922C12.1667 9.27729 12.2342 9.12053 12.1575 8.98023C12.0842 8.84658 11.9401 8.82568 11.6311 8.87445C11.2056 8.94539 10.8642 8.87509 10.6932 8.56314C10.4924 8.19672 10.645 7.74923 11.1526 7.47212C11.3954 7.33974 11.6019 7.29319 11.7609 7.28052L11.8672 7.73149C11.7583 7.73719 11.5721 7.76031 11.3614 7.87527C11.1511 7.99024 11.1012 8.14162 11.1622 8.25309C11.2374 8.39022 11.3915 8.38421 11.7269 8.33797C12.1835 8.27083 12.4703 8.37059 12.6362 8.67335C12.8336 9.03344 12.7235 9.49075 12.133 9.81314C11.8875 9.94742 11.6098 10.0161 11.4518 10.0155L11.3306 9.5601Z" fill="#5A6374"/>
<path d="M18.3121 4.17596L12.9724 7.09155L13.6693 8.36324L19.009 5.44765L18.3121 4.17596Z" fill="#648182"/>
<path d="M20.2867 5.889L4.29419 14.6213L4.6945 15.3518L20.687 6.61945L20.2867 5.889Z" fill="#939292"/>
<path d="M13.4627 11.1163L4.98047 15.7478L7.76742 20.8332L16.2497 16.2016L13.4627 11.1163Z" fill="#648182"/>
<path d="M20.9204 7.04397L13.9087 10.8726L14.2248 11.4494L21.2365 7.62077L20.9204 7.04397Z" fill="#939292"/>
<path d="M21.7439 8.5469L14.7322 12.3755L15.0483 12.9523L22.06 9.1237L21.7439 8.5469Z" fill="#939292"/>
<path d="M22.5674 10.0496L15.5557 13.8782L15.8718 14.455L22.8835 10.6264L22.5674 10.0496Z" fill="#939292"/>
<path d="M23.3911 11.553L16.3794 15.3816L16.6953 15.9581L23.7071 12.1295L23.3911 11.553Z" fill="#939292"/>
<path d="M23.7078 13.2891L8.44043 21.6255L9.58761 23.7188L24.855 15.3823L23.7078 13.2891Z" fill="#D36C3E"/>
<path d="M16.3786 20.9897L10.0007 24.4722L10.6431 25.6444L17.021 22.1619L16.3786 20.9897Z" fill="#648182"/>
<path d="M25.2682 16.1357L18.6704 19.7383L19.3128 20.9105L25.9106 17.3079L25.2682 16.1357Z" fill="#648182"/>
<path d="M17.3659 22.7786L10.9824 26.2642L11.2984 26.8407L17.6818 23.3551L17.3659 22.7786Z" fill="#939292"/>
<path d="M26.2502 17.9273L19.8667 21.4128L20.1827 21.9894L26.5661 18.5038L26.2502 17.9273Z" fill="#939292"/>
<path d="M2.49484 47.5784H3.91783C4.30586 47.5784 4.62092 47.8929 4.62092 48.2802V53.1104C4.62092 53.4978 4.30586 53.8122 3.91783 53.8122H2.49484C2.10681 53.8122 1.79175 53.4978 1.79175 53.1104V48.2802C1.79175 47.8929 2.10681 47.5784 2.49484 47.5784Z" fill="#010101"/>
<path d="M26.8076 47.5784H28.2306C28.6186 47.5784 28.9337 47.8929 28.9337 48.2802V53.1104C28.9337 53.4978 28.6186 53.8122 28.2306 53.8122H26.8076C26.4195 53.8122 26.1045 53.4978 26.1045 53.1104V48.2802C26.1045 47.8929 26.4195 47.5784 26.8076 47.5784Z" fill="#010101"/>
<path d="M29.2037 18.9857C29.2037 18.9388 29.2025 18.8919 29.2006 18.8457H1.52466C1.52275 18.8923 1.52148 18.9388 1.52148 18.9857L1.57542 20.0675L28.9978 23.1157L29.2037 18.9857Z" fill="#FFA300"/>
<path d="M1.57544 20.0676L3.09457 50.5554C3.09457 52.4578 4.63972 54.0001 6.54561 54.0001H24.1796C26.0855 54.0001 27.6307 52.4578 27.6307 50.5554L28.9978 23.1158L1.57544 20.0676Z" fill="#FFC803"/>
<path d="M1.36116 16.3616H29.3635C29.8842 16.3616 30.3068 16.7834 30.3068 17.3031V18.619C30.3068 19.1387 29.8842 19.5605 29.3635 19.5605H1.36148C0.840828 19.5605 0.418213 19.1387 0.418213 18.619V17.3031C0.418213 16.7834 0.840828 16.3616 1.36148 16.3616H1.36116Z" fill="#FFC801"/>
<path d="M16.8825 31.9593L15.5001 32.9303L17.3127 32.7143L17.3926 32.7048L17.6236 32.6776L19.2354 32.4854L19.9264 31.1039L19.9988 30.9589L20.9157 29.1258L19.5102 30.1133L18.2978 28.0174C17.9726 27.517 17.6309 27.2982 17.2943 27.2633C16.6981 27.2342 16.0918 27.7685 15.6609 28.2907C15.5429 28.4402 15.4354 28.5919 15.3405 28.735C15.3031 28.7917 15.2672 28.8468 15.2339 28.9004C15.2669 28.9688 15.3034 29.0422 15.3405 29.1173C15.3913 29.2196 15.4452 29.326 15.5036 29.4391C15.8577 30.1272 16.3428 31.007 16.8821 31.9593H16.8825Z" fill="white"/>
<path d="M20.5394 38.5737C20.3598 38.5607 20.1574 38.5481 19.9369 38.5376C19.1627 38.4999 18.157 38.4787 17.0608 38.4692L16.9094 36.7888L16.1905 38.4638L16.1587 38.5376L16.0667 38.7511L15.4277 40.2408L16.2809 41.5288L16.3701 41.6641L17.5021 43.3729L17.3479 41.6641H19.7725C20.3697 41.6336 20.7298 41.4474 20.9284 41.1738C21.252 40.6731 21.0912 39.882 20.8532 39.2483C20.7545 39.0013 20.6422 38.7704 20.5385 38.574L20.5394 38.5737Z" fill="white"/>
<path d="M23.3157 37.4449C23.3186 37.2533 23.2777 37.138 23.2526 37.0838L23.2228 37.0325L21.0669 33.3047L18.5781 34.6228C18.7326 34.8815 18.9195 35.2103 19.1178 35.5621L20.4793 37.9155C20.5281 37.989 20.6388 38.165 20.7696 38.4048L20.7775 38.4057L20.8178 38.4795C20.9174 38.6619 21.032 38.9033 21.1319 39.1696C21.3327 39.6807 21.4958 40.266 21.3886 40.7765L23.316 37.4449H23.3157Z" fill="white"/>
<path d="M15.3408 28.2341C15.3776 28.1863 15.4153 28.1382 15.455 28.09C15.7983 27.6615 16.2241 27.228 16.7206 27.0652H12.8666C12.6991 27.1586 12.6195 27.2511 12.5849 27.3002L12.5554 27.3515L10.3992 31.0793L12.7873 32.5716C12.9345 32.3084 13.1262 31.9825 13.3324 31.6351L14.6935 29.2817C14.7332 29.2026 14.8303 29.0189 14.9727 28.7858L14.9693 28.7791L15.0137 28.7073C15.0984 28.5685 15.2101 28.4042 15.3411 28.2341H15.3408Z" fill="white"/>
<path d="M9.31222 38.5812C9.57588 38.6195 9.83319 38.6378 10.0543 38.6461C10.1562 38.4972 10.2675 38.3284 10.3872 38.1438C10.8072 37.4933 11.3282 36.6341 11.8844 35.6913L13.4181 36.4007L12.3245 34.9417L12.2762 34.8774L12.1369 34.6915L11.1642 33.3943L9.61998 33.4877L9.45816 33.4975L7.40918 33.6214L8.96892 34.3428L7.7566 36.4384C7.48469 36.9698 7.46629 37.3749 7.60431 37.683C7.87685 38.2131 8.64371 38.4697 9.31222 38.5808V38.5812Z" fill="white"/>
<path d="M13.3785 38.9233H10.6557C10.5678 38.9284 10.3593 38.9369 10.0865 38.9299L10.0817 38.9363L9.99698 38.9337C9.78853 38.929 9.52265 38.9075 9.24091 38.8603C8.69741 38.7786 8.10822 38.6265 7.71924 38.2788L9.64639 41.6105C9.81074 41.7086 9.93162 41.7314 9.99032 41.7368H14.3624L14.463 38.9265C14.1613 38.9299 13.7824 38.9277 13.3782 38.9233H13.3785Z" fill="white"/>
<path d="M94.469 10.18L94.6781 7.39437C94.6781 7.39437 92.7189 6.24476 93.7783 5.31178C94.8377 4.37879 95.5919 5.71556 95.5919 5.71556C95.5919 5.71556 96.6668 4.32685 97.3715 5.43402C98.0762 6.54088 96.3695 7.19549 96.3695 7.19549L96.0091 10.2323L94.5496 10.3254" fill="#CAC5C2"/>
<path d="M94.8235 10.0867C94.6801 10.0781 94.5503 10.0569 94.4326 10.0249C93.7149 10.6934 87.5166 16.7034 91.8113 21.0691C92.0816 21.344 92.344 21.5701 92.5997 21.7579C94.1817 19.877 97.8085 14.7285 94.8235 10.0863V10.0867Z" fill="#C4854F"/>
<path d="M94.8234 10.0867C97.8084 14.7285 94.1816 19.8774 92.5996 21.7583C96.6494 24.7359 98.8459 17.3755 98.8459 17.3755C98.8459 17.3755 99.6273 13.0152 96.018 9.90747C95.5408 10.0598 95.148 10.106 94.8234 10.0867Z" fill="#B7794B"/>
<path d="M86.6787 11.2198C86.7504 10.7837 86.6682 10.3451 86.4112 9.98498C86.1666 9.642 85.8027 9.42538 85.3918 9.3405C85.4166 8.91644 85.3039 8.48542 85.0412 8.1171C84.5069 7.36811 83.524 7.12014 82.6832 7.46312C82.6163 7.29907 82.5287 7.13851 82.4196 6.98586C81.7729 6.07979 80.6247 5.78906 79.8544 6.33663C79.1678 6.82466 79.0136 7.81402 79.446 8.66499C78.7366 9.29553 78.5821 10.3403 79.1192 11.0934C79.3826 11.4624 79.7662 11.6974 80.1869 11.787C79.8816 12.4337 79.9054 13.183 80.3189 13.7625C80.6714 14.2566 81.2333 14.5239 81.8326 14.5445C81.8995 14.9046 82.0464 15.2608 82.2771 15.5842C83.0398 16.653 84.4384 16.9754 85.4588 16.3411C86.1822 16.851 87.1023 17.649 87.9399 18.8234L88.2851 18.5779L88.4123 18.4877L88.7575 18.2422C87.9862 17.1613 87.5395 16.1188 87.2815 15.2976C87.292 15.2802 87.3022 15.2627 87.312 15.2453C88.187 14.4773 88.314 13.0953 87.5696 12.0521C87.3396 11.7297 87.0518 11.4754 86.7342 11.2948L86.6787 11.2201V11.2198Z" fill="#5C7033"/>
<path d="M88.3555 18.454C88.3212 18.4784 88.2733 18.4705 88.2489 18.4363L79.781 6.56807C79.7566 6.53387 79.7645 6.48604 79.7988 6.46166C79.8331 6.43727 79.881 6.44519 79.9054 6.47939L88.3732 18.3476C88.3977 18.3818 88.3897 18.4296 88.3552 18.454H88.3555Z" fill="#A6CD5D"/>
<path d="M82.654 10.4607C82.3887 10.6495 82.0384 10.7746 81.6133 10.8328C81.2773 10.8788 80.8934 10.8835 80.4724 10.8468C79.7578 10.7844 79.1728 10.6213 79.1667 10.6197C79.1261 10.6083 79.1023 10.5662 79.1141 10.5256C79.1255 10.4851 79.1677 10.4613 79.2083 10.4727C79.214 10.4743 79.7877 10.6339 80.4882 10.6951C81.1275 10.7508 82.0067 10.7337 82.5651 10.3369C82.5994 10.3125 82.6473 10.3204 82.6717 10.3549C82.6962 10.3895 82.6882 10.437 82.654 10.4613V10.4607Z" fill="#A6CD5D"/>
<path d="M83.2302 11.2249C83.1959 11.2493 83.148 11.2414 83.1235 11.2069C83.0991 11.1727 83.1071 11.1249 83.1413 11.1005C83.8419 10.6023 84.1315 9.7808 84.2508 9.17907C84.3812 8.52256 84.3432 7.98069 84.3429 7.97499C84.3397 7.93287 84.3714 7.89645 84.4136 7.89328C84.4558 7.89012 84.4923 7.92179 84.4955 7.96391C84.497 7.98671 84.5354 8.53206 84.4009 9.20884C84.3219 9.60757 84.1988 9.96797 84.0351 10.2805C83.8292 10.6739 83.5582 10.9915 83.2298 11.2249H83.2302Z" fill="#A6CD5D"/>
<path d="M84.6133 13.2063C84.3426 13.3985 83.9794 13.5224 83.5333 13.574C83.1811 13.6148 82.7759 13.6114 82.3289 13.5635C81.5709 13.4825 80.9443 13.2988 80.9379 13.2969C80.8973 13.2849 80.8745 13.2424 80.8865 13.2022C80.8986 13.1617 80.9411 13.1389 80.9814 13.1506C80.9874 13.1525 81.6029 13.3327 82.3476 13.4118C83.0269 13.4844 83.9562 13.486 84.5248 13.0815C84.559 13.0571 84.6069 13.0651 84.6314 13.0993C84.6561 13.1335 84.6479 13.1813 84.6136 13.2057L84.6133 13.2063Z" fill="#A6CD5D"/>
<path d="M84.1703 12.5638C84.1361 12.5882 84.0881 12.5803 84.0637 12.5458C84.0393 12.5116 84.0472 12.4637 84.0818 12.4393C84.7398 11.9716 85.2008 11.3664 85.4718 10.9407C85.7653 10.4796 85.9039 10.1271 85.9052 10.1237C85.9204 10.0844 85.9648 10.0648 86.0042 10.0803C86.0435 10.0955 86.0632 10.1398 86.0477 10.1791C86.0419 10.194 85.902 10.5493 85.6006 11.0228C85.3224 11.4598 84.8483 12.0818 84.1703 12.5638Z" fill="#A6CD5D"/>
<path d="M86.1847 15.409C85.9246 15.594 85.6019 15.7188 85.2259 15.7796C84.928 15.8277 84.5958 15.8363 84.2389 15.8049C83.6329 15.752 83.1699 15.6044 83.1506 15.5981C83.1103 15.5851 83.0884 15.5421 83.1014 15.5022C83.1144 15.4619 83.1576 15.4401 83.1975 15.4531C83.2023 15.4547 83.6658 15.6022 84.2554 15.6535C84.7928 15.7004 85.5486 15.6741 86.0962 15.2849C86.1305 15.2605 86.1784 15.2684 86.2028 15.3026C86.2272 15.3368 86.2193 15.3847 86.185 15.409H86.1847Z" fill="#A6CD5D"/>
<path d="M86.2932 14.1572C85.9014 14.4359 85.5666 14.5531 85.5514 14.5585C85.5114 14.5724 85.468 14.5512 85.454 14.5113C85.44 14.4714 85.4613 14.428 85.5013 14.4144C85.5073 14.4121 85.8903 14.2769 86.3024 13.9605C86.6806 13.6704 87.1622 13.1628 87.3098 12.3941C87.3177 12.3527 87.3577 12.3257 87.3992 12.3337C87.4408 12.3416 87.4678 12.3815 87.4598 12.423C87.3903 12.7843 87.2466 13.1219 87.0325 13.4259C86.8618 13.6685 86.646 13.8902 86.3912 14.0847C86.3582 14.11 86.3252 14.1344 86.2926 14.1575L86.2932 14.1572Z" fill="#A6CD5D"/>
<path d="M88.7868 11.243C88.9689 10.8405 89.0032 10.3955 88.8483 9.98128C88.7008 9.58668 88.4057 9.2836 88.0307 9.0958C88.1643 8.69264 88.1674 8.24705 88.0088 7.82363C87.6868 6.96221 86.8016 6.46911 85.9005 6.58312C85.8783 6.40736 85.8351 6.22969 85.7694 6.05392C85.3798 5.01167 84.3455 4.43434 83.4597 4.76465C82.67 5.05886 82.2648 5.97475 82.4618 6.90837C81.6134 7.33433 81.193 8.30374 81.517 9.16959C81.6756 9.59396 81.9856 9.92016 82.3685 10.1149C81.9059 10.6609 81.7349 11.3906 81.984 12.0575C82.1966 12.626 82.6699 13.0292 83.2439 13.204C83.2154 13.5691 83.2648 13.9511 83.4038 14.3232C83.8636 15.5526 85.1311 16.2253 86.2812 15.8756C86.8479 16.555 87.5297 17.5636 88.0348 18.914L88.4317 18.7661L88.578 18.7117L88.9749 18.5638C88.5101 17.3204 88.3486 16.198 88.3121 15.3382C88.3267 15.3243 88.341 15.31 88.3553 15.2955C89.3994 14.7796 89.8804 13.4773 89.4315 12.2773C89.2928 11.9065 89.0809 11.5866 88.8207 11.3301L88.7865 11.2436L88.7868 11.243Z" fill="#6F843B"/>
<path d="M88.532 18.6639C88.4923 18.6785 88.4485 18.6585 88.4336 18.6193L83.3292 4.96866C83.3146 4.92907 83.3346 4.88537 83.3743 4.87048C83.4136 4.85592 83.4577 4.87587 83.4726 4.91546L88.577 18.566C88.5916 18.6056 88.5716 18.6493 88.5323 18.6642L88.532 18.6639Z" fill="#A6CD5D"/>
<path d="M85.0963 9.47044C84.791 9.58414 84.4205 9.61454 83.9947 9.56102C83.6584 9.51858 83.2862 9.4242 82.889 9.27979C82.2147 9.03498 81.6919 8.72652 81.6868 8.72335C81.6506 8.70182 81.6386 8.65495 81.6601 8.61884C81.6817 8.58274 81.7287 8.57071 81.7648 8.59224C81.7699 8.59509 82.2826 8.89754 82.9435 9.13728C83.5467 9.35611 84.4005 9.56672 85.0426 9.32729C85.0823 9.31241 85.1261 9.33268 85.141 9.37227C85.1559 9.41185 85.1356 9.45556 85.0963 9.47044Z" fill="#A6CD5D"/>
<path d="M85.4544 10.3571C85.4148 10.3717 85.371 10.3518 85.3561 10.3122C85.3415 10.2726 85.3615 10.2289 85.4011 10.214C86.207 9.91377 86.6994 9.19487 86.9707 8.64445C87.2667 8.04399 87.3705 7.51067 87.3714 7.50529C87.3794 7.4638 87.4194 7.43657 87.4609 7.44448C87.5025 7.4524 87.5298 7.49231 87.5218 7.53379C87.5174 7.55628 87.413 8.09308 87.1081 8.71191C86.9282 9.07642 86.7159 9.39312 86.477 9.6525C86.1763 9.97933 85.8323 10.2162 85.4548 10.3568L85.4544 10.3571Z" fill="#A6CD5D"/>
<path d="M86.2771 12.6285C85.9658 12.7444 85.5829 12.7701 85.1384 12.7048C84.7875 12.6532 84.3969 12.5452 83.9778 12.3837C83.2664 12.1097 82.7086 11.7706 82.7033 11.7671C82.6674 11.7452 82.656 11.698 82.6779 11.6622C82.7001 11.6261 82.747 11.6151 82.7829 11.6369C82.7883 11.6404 83.3362 11.9732 84.0349 12.2421C84.6723 12.4876 85.5696 12.7289 86.2235 12.4853C86.2631 12.4708 86.3069 12.4907 86.3218 12.5303C86.3367 12.5699 86.3164 12.6136 86.2771 12.6285Z" fill="#A6CD5D"/>
<path d="M86.0157 11.8935C85.9761 11.9081 85.9323 11.8881 85.9174 11.8489C85.9028 11.8093 85.9228 11.7656 85.9621 11.7507C86.7191 11.4688 87.3213 11.003 87.6932 10.6619C88.0961 10.2923 88.3214 9.98764 88.3236 9.98447C88.3487 9.95058 88.3963 9.9433 88.4305 9.968C88.4645 9.99302 88.4718 10.0405 88.447 10.0747C88.4375 10.0877 88.2107 10.3946 87.7966 10.7743C87.4146 11.1246 86.7956 11.6031 86.0157 11.8935Z" fill="#A6CD5D"/>
<path d="M87.2241 15.1621C86.9249 15.2736 86.5809 15.3106 86.2018 15.2723C85.9016 15.2419 85.5787 15.1646 85.2417 15.0421C84.67 14.8343 84.2613 14.5724 84.2442 14.5613C84.2087 14.5385 84.1985 14.4913 84.2217 14.4559C84.2445 14.4204 84.2918 14.4103 84.3273 14.4331C84.3314 14.4356 84.741 14.6981 85.2972 14.8996C85.8046 15.0836 86.5413 15.2533 87.1708 15.019C87.2104 15.0044 87.2545 15.0243 87.2691 15.0639C87.2837 15.1035 87.2637 15.1472 87.2241 15.1621Z" fill="#A6CD5D"/>
<path d="M87.6535 13.9808C87.2029 14.1487 86.8492 14.1759 86.833 14.1769C86.7908 14.18 86.7543 14.1484 86.7514 14.1063C86.7483 14.0641 86.78 14.0277 86.8222 14.0245C86.8285 14.0239 87.2337 13.9919 87.7137 13.793C88.1541 13.6103 88.7512 13.2445 89.093 12.5402C89.1114 12.5022 89.157 12.4864 89.1951 12.5047C89.2332 12.5231 89.2491 12.5687 89.2307 12.6067C89.0701 12.938 88.8436 13.2268 88.5577 13.4653C88.3299 13.6553 88.064 13.8139 87.7677 13.9362C87.7293 13.952 87.6909 13.9669 87.6535 13.9808Z" fill="#A6CD5D"/>
<path d="M91.7641 11.9604C92.0886 11.6599 92.2933 11.2631 92.3114 10.8213C92.3288 10.4007 92.1746 10.0067 91.9021 9.68845C92.1819 9.36858 92.358 8.95941 92.3767 8.50748C92.4148 7.58875 91.7907 6.7913 90.916 6.54745C90.9639 6.37706 90.9934 6.19655 91.001 6.00906C91.047 4.89745 90.3185 3.96478 89.3737 3.92583C88.5316 3.89099 87.8019 4.57791 87.6207 5.51501C86.673 5.57867 85.909 6.30929 85.8706 7.23309C85.8519 7.68565 86.0105 8.10623 86.2878 8.43433C85.6492 8.75831 85.2078 9.36478 85.1783 10.0758C85.1532 10.6819 85.4328 11.2371 85.8935 11.6203C85.725 11.9459 85.6222 12.317 85.606 12.7139C85.5517 14.025 86.4585 15.136 87.654 15.2595C87.9123 16.105 88.1484 17.2987 88.0887 18.7387L88.512 18.7561L88.6677 18.7624L89.091 18.7799C89.1459 17.4539 89.4337 16.3571 89.7344 15.5505C89.7535 15.5432 89.7722 15.5356 89.7906 15.5277C90.9534 15.4571 91.903 14.443 91.956 13.1632C91.9725 12.768 91.9014 12.3911 91.7615 12.0535L91.7638 11.9607L91.7641 11.9604Z" fill="#85A943"/>
<path d="M88.6439 18.7014C88.6017 18.6995 88.569 18.664 88.5706 18.6219L89.1738 4.06394C89.1757 4.02181 89.2112 3.98919 89.2534 3.99078C89.2956 3.99268 89.3283 4.02815 89.3267 4.07027L88.7235 18.6282C88.7219 18.6703 88.6861 18.7029 88.6439 18.7014Z" fill="#A6CD5D"/>
<path d="M89.0517 8.89741C88.7261 8.88411 88.3727 8.76851 88.0012 8.55411C87.7077 8.38499 87.4015 8.15349 87.0915 7.86656C86.5655 7.3798 86.2035 6.89272 86.2 6.88797C86.1749 6.85408 86.1822 6.80626 86.2161 6.78124C86.2501 6.75622 86.298 6.76351 86.3231 6.79739C86.3266 6.80214 86.6816 7.2794 87.1975 7.75635C87.6683 8.19181 88.3733 8.71658 89.0583 8.74476C89.1005 8.74666 89.1332 8.78213 89.1316 8.82425C89.13 8.86637 89.0942 8.89899 89.052 8.89741H89.0517Z" fill="#A6CD5D"/>
<path d="M89.0375 9.85335C88.9953 9.85145 88.9626 9.81598 88.9642 9.77386C88.9658 9.73174 89.0016 9.69912 89.0438 9.70071C89.9033 9.73618 90.6369 9.2643 91.1007 8.86209C91.6071 8.42347 91.9101 7.97186 91.9133 7.96742C91.9364 7.93227 91.984 7.92277 92.0192 7.94621C92.0545 7.96964 92.064 8.01683 92.0405 8.05198C92.0278 8.07098 91.7229 8.52513 91.201 8.97737C90.8935 9.24371 90.575 9.45337 90.2536 9.6C89.8494 9.78463 89.4401 9.86982 89.0375 9.85304V9.85335Z" fill="#A6CD5D"/>
<path d="M88.9123 12.2651C88.5805 12.2515 88.2175 12.1267 87.8333 11.8946C87.5299 11.7112 87.212 11.4604 86.8884 11.1491C86.3395 10.6208 85.9572 10.0923 85.9534 10.0869C85.9286 10.0527 85.9366 10.0052 85.9708 9.98046C86.0051 9.95576 86.053 9.96367 86.0774 9.99788C86.0812 10.0029 86.4566 10.522 86.996 11.0408C87.4881 11.5139 88.221 12.084 88.9184 12.1128C88.9606 12.1144 88.9932 12.1501 88.9916 12.1923C88.9901 12.2344 88.9542 12.267 88.912 12.2654L88.9123 12.2651Z" fill="#A6CD5D"/>
<path d="M88.9571 11.4867C88.9149 11.4848 88.8823 11.4493 88.8838 11.4072C88.8854 11.3651 88.9213 11.3324 88.9635 11.334C89.7706 11.3673 90.5067 11.1716 90.982 11.0012C91.497 10.8169 91.8231 10.623 91.8263 10.6211C91.8625 10.5996 91.9094 10.6113 91.931 10.6474C91.9529 10.6835 91.9408 10.7304 91.9047 10.7522C91.891 10.7605 91.5623 10.9556 91.0334 11.145C90.5451 11.3198 89.7887 11.5209 88.9568 11.4867H88.9571Z" fill="#A6CD5D"/>
<path d="M88.8003 14.9672C88.4812 14.9542 88.1499 14.8551 87.8152 14.6727C87.5503 14.5283 87.2828 14.3319 87.0198 14.0884C86.5737 13.6754 86.2989 13.2758 86.2872 13.259C86.2634 13.2241 86.2726 13.1766 86.3072 13.1529C86.3421 13.1291 86.3897 13.1383 86.4135 13.1728C86.4163 13.1769 86.6917 13.5773 87.1261 13.9785C87.522 14.3446 88.1347 14.7867 88.8064 14.8143C88.8486 14.8159 88.8812 14.8516 88.8797 14.8938C88.8778 14.9359 88.8422 14.9685 88.8 14.9669L88.8003 14.9672Z" fill="#A6CD5D"/>
<path d="M89.6549 14.0445C89.1742 14.0246 88.8379 13.9124 88.8226 13.9074C88.7827 13.8938 88.7614 13.8507 88.7747 13.8108C88.7884 13.7709 88.8315 13.7497 88.8715 13.763C88.8778 13.7649 89.2633 13.8925 89.7834 13.895C90.2605 13.8972 90.9525 13.7915 91.5417 13.2746C91.5734 13.2468 91.6217 13.2499 91.6496 13.2816C91.6775 13.3133 91.6743 13.3614 91.6426 13.3893C91.3656 13.6325 91.0449 13.8108 90.6886 13.9197C90.4046 14.0065 90.0981 14.0496 89.7773 14.0477C89.7358 14.0477 89.6945 14.0464 89.6549 14.0448V14.0445Z" fill="#A6CD5D"/>
<path d="M92.9788 20.7406C93.1759 20.9275 93.2923 20.9969 93.4614 20.8239C93.6302 20.651 93.6061 20.163 93.8561 19.9575C94.1061 19.7522 94.1248 20.1985 94.4085 19.9245C94.6902 19.6522 94.5138 19.4108 94.7477 19.2914C94.603 19.0279 94.4478 18.7299 94.2882 18.3996C93.5826 16.94 94.1432 16.68 93.7758 15.6773C93.4084 14.6746 93.7612 13.5735 92.7897 10.1816C91.8182 6.78982 89.7077 6.11779 89.2559 6.50036C88.8041 6.88293 87.8833 7.19235 86.9378 10.9845C85.9924 14.7766 92.2513 19.5948 92.2513 19.5948C92.39 19.782 92.5026 20.3416 92.5819 20.9883C92.6641 20.8467 92.8351 20.6045 92.9788 20.7403V20.7406Z" fill="#C4854F"/>
<path d="M95.8911 22.7127C95.8724 22.5781 95.6125 20.6906 95.6125 20.6906C95.6125 20.6906 95.2419 20.1931 94.7473 19.2917C94.5135 19.4111 94.6895 19.6525 94.4081 19.9248C94.1245 20.1988 94.1061 19.7525 93.8557 19.9578C93.6057 20.163 93.6301 20.6513 93.461 20.8242C93.2922 20.9972 93.1755 20.9275 92.9785 20.741C92.8347 20.6048 92.6637 20.8474 92.5815 20.9889C92.6961 21.9206 92.7408 23.0329 92.6929 23.4721C92.612 24.2158 93.3367 24.4824 93.3367 24.4824C93.3367 24.4824 95.2502 24.7234 95.9352 24.0343C96.6199 23.3452 95.9095 22.8476 95.8911 22.7127Z" fill="#CAC5C2"/>
<path d="M88.9154 13.7683C89.529 15.1646 90.5468 16.0688 91.1887 15.7879C91.8306 15.5066 91.8534 14.1467 91.2398 12.7504C90.6262 11.3541 89.6083 10.4499 88.9665 10.7308C88.3246 11.0121 88.3018 12.3717 88.9154 13.7683Z" fill="#B7794B"/>
<path d="M104.27 8.33616L100.295 23.1905L100.911 23.3549L105.226 7.2312L104.27 8.33616Z" fill="#58863F"/>
<path d="M105.504 8.66497L105.231 7.22559L105.226 7.23097L100.911 23.3546L101.528 23.5193L105.504 8.66497Z" fill="#4E7C39"/>
<path d="M104.751 8.88946C104.661 9.22706 104.486 9.24353 104.29 9.19127C104.094 9.13902 103.951 9.03767 104.042 8.70008C104.132 8.36248 104.618 7.96851 104.618 7.96851C104.618 7.96851 104.842 8.55155 104.752 8.88946H104.751Z" fill="#91B053"/>
<path d="M105.628 8.5727C105.545 8.88275 105.385 8.89827 105.205 8.85013C105.024 8.80199 104.893 8.7092 104.976 8.39884C105.059 8.08879 105.505 7.72681 105.505 7.72681C105.505 7.72681 105.711 8.26266 105.628 8.5727Z" fill="#91B053"/>
<path d="M105.298 10.1936C105.182 10.5236 105.007 10.5268 104.815 10.46C104.623 10.3931 104.489 10.2813 104.604 9.95135C104.719 9.62135 105.234 9.26538 105.234 9.26538C105.234 9.26538 105.413 9.86394 105.298 10.1936H105.298Z" fill="#91B053"/>
<path d="M104.064 11.0703C104.001 11.4142 103.829 11.4449 103.629 11.4088C103.429 11.3727 103.278 11.2837 103.341 10.9398C103.403 10.5959 103.855 10.1636 103.855 10.1636C103.855 10.1636 104.126 10.7263 104.064 11.0703Z" fill="#91B053"/>
<path d="M104.74 12.3538C104.624 12.6838 104.449 12.687 104.257 12.6202C104.066 12.5534 103.931 12.4416 104.046 12.1116C104.162 11.7816 104.676 11.4253 104.676 11.4253C104.676 11.4253 104.856 12.0239 104.74 12.3535V12.3538Z" fill="#91B053"/>
<path d="M103.568 12.9994C103.506 13.3433 103.333 13.3741 103.133 13.3383C102.934 13.3022 102.783 13.2129 102.845 12.8692C102.907 12.5253 103.359 12.093 103.359 12.093C103.359 12.093 103.63 12.6558 103.568 12.9997V12.9994Z" fill="#91B053"/>
<path d="M104.122 14.6624C104.007 14.9924 103.831 14.9955 103.64 14.9287C103.448 14.8619 103.313 14.7501 103.429 14.4201C103.544 14.0901 104.059 13.7341 104.059 13.7341C104.059 13.7341 104.238 14.3327 104.123 14.6624H104.122Z" fill="#91B053"/>
<path d="M102.909 14.9197C102.854 15.2224 102.702 15.2497 102.526 15.218C102.351 15.1863 102.218 15.1078 102.273 14.805C102.327 14.5023 102.725 14.1216 102.725 14.1216C102.725 14.1216 102.964 14.6172 102.909 14.92V14.9197Z" fill="#91B053"/>
<path d="M105.778 9.74851L101.803 24.6029L102.42 24.7672L106.735 8.64355L105.778 9.74851Z" fill="#58863F"/>
<path d="M107.012 10.0773L106.74 8.63794L106.735 8.64332L102.42 24.767L103.037 24.9314L107.012 10.0773Z" fill="#4E7C39"/>
<path d="M106.26 10.3015C106.17 10.6391 105.995 10.6556 105.799 10.6036C105.603 10.5514 105.46 10.45 105.55 10.1124C105.641 9.77483 106.127 9.38086 106.127 9.38086C106.127 9.38086 106.351 9.9639 106.261 10.3015H106.26Z" fill="#91B053"/>
<path d="M107.137 9.98513C107.054 10.2952 106.893 10.3104 106.713 10.2622C106.533 10.2141 106.402 10.1213 106.485 9.81095C106.568 9.5009 107.014 9.13892 107.014 9.13892C107.014 9.13892 107.22 9.67445 107.137 9.98481L107.137 9.98513Z" fill="#91B053"/>
<path d="M106.806 11.606C106.691 11.936 106.515 11.9392 106.324 11.8724C106.132 11.8056 105.997 11.6938 106.113 11.3638C106.228 11.0338 106.742 10.6775 106.742 10.6775C106.742 10.6775 106.922 11.2757 106.806 11.6057V11.606Z" fill="#91B053"/>
<path d="M105.572 12.4824C105.51 12.8263 105.337 12.857 105.138 12.8213C104.938 12.7851 104.787 12.6958 104.849 12.3519C104.911 12.008 105.363 11.5757 105.363 11.5757C105.363 11.5757 105.634 12.1385 105.572 12.4824Z" fill="#91B053"/>
<path d="M106.249 13.766C106.133 14.096 105.957 14.0991 105.766 14.0323C105.575 13.9655 105.44 13.8537 105.555 13.5237C105.671 13.1937 106.185 12.8374 106.185 12.8374C106.185 12.8374 106.365 13.436 106.249 13.7656L106.249 13.766Z" fill="#91B053"/>
<path d="M105.076 14.4118C105.014 14.7557 104.841 14.7864 104.642 14.7506C104.442 14.7145 104.291 14.6255 104.353 14.2816C104.415 13.9377 104.867 13.5054 104.867 13.5054C104.867 13.5054 105.139 14.0681 105.076 14.4121V14.4118Z" fill="#91B053"/>
<path d="M105.631 16.0747C105.515 16.4047 105.34 16.4079 105.148 16.3411C104.956 16.2742 104.822 16.1624 104.937 15.8325C105.053 15.5025 105.566 15.1465 105.566 15.1465C105.566 15.1465 105.746 15.7447 105.631 16.0747Z" fill="#91B053"/>
<path d="M104.418 16.332C104.363 16.6348 104.211 16.662 104.035 16.6303C103.859 16.5987 103.726 16.5201 103.781 16.2174C103.836 15.9146 104.234 15.5339 104.234 15.5339C104.234 15.5339 104.473 16.0296 104.418 16.3323V16.332Z" fill="#91B053"/>
<path d="M102.46 8.05937L98.4844 22.9137L99.1012 23.0781L103.416 6.9541L102.46 8.05937Z" fill="#58863F"/>
<path d="M103.693 8.38812L103.421 6.94873L103.416 6.9538L99.1011 23.0778L99.7179 23.2422L103.693 8.38812Z" fill="#4E7C39"/>
<path d="M102.941 8.61236C102.851 8.94996 102.676 8.96643 102.48 8.91417C102.284 8.86192 102.141 8.76057 102.231 8.42298C102.322 8.08538 102.808 7.69141 102.808 7.69141C102.808 7.69141 103.032 8.27445 102.941 8.61236H102.941Z" fill="#91B053"/>
<path d="M103.818 8.2956C103.735 8.60565 103.575 8.62085 103.394 8.57271C103.214 8.52489 103.083 8.43178 103.166 8.12174C103.249 7.81169 103.695 7.44971 103.695 7.44971C103.695 7.44971 103.901 7.98524 103.818 8.2956Z" fill="#91B053"/>
<path d="M103.487 9.91652C103.372 10.2465 103.196 10.2497 103.005 10.1829C102.813 10.116 102.678 10.0042 102.794 9.67425C102.909 9.34457 103.423 8.98828 103.423 8.98828C103.423 8.98828 103.603 9.58684 103.487 9.91652Z" fill="#91B053"/>
<path d="M102.253 10.7931C102.191 11.137 102.018 11.1678 101.819 11.132C101.619 11.0959 101.468 11.0069 101.53 10.6629C101.592 10.319 102.044 9.88672 102.044 9.88672C102.044 9.88672 102.316 10.4495 102.253 10.7934V10.7931Z" fill="#91B053"/>
<path d="M102.93 12.0767C102.814 12.4067 102.639 12.4099 102.447 12.3431C102.255 12.2763 102.121 12.1645 102.236 11.8345C102.352 11.5048 102.866 11.1482 102.866 11.1482C102.866 11.1482 103.045 11.7468 102.93 12.0764V12.0767Z" fill="#91B053"/>
<path d="M101.758 12.7225C101.696 13.0665 101.523 13.0975 101.323 13.0614C101.124 13.0253 100.972 12.936 101.035 12.5924C101.097 12.2485 101.549 11.8162 101.549 11.8162C101.549 11.8162 101.82 12.3789 101.758 12.7229V12.7225Z" fill="#91B053"/>
<path d="M102.312 14.3855C102.196 14.7155 102.021 14.719 101.829 14.6519C101.638 14.585 101.503 14.4732 101.618 14.1432C101.734 13.8132 102.248 13.4573 102.248 13.4573C102.248 13.4573 102.427 14.0555 102.312 14.3855Z" fill="#91B053"/>
<path d="M101.099 14.6429C101.044 14.9456 100.892 14.9729 100.716 14.9412C100.54 14.9095 100.407 14.831 100.462 14.5279C100.517 14.2252 100.915 13.8445 100.915 13.8445C100.915 13.8445 101.154 14.3401 101.099 14.6429Z" fill="#91B053"/>
<path d="M100.317 6.69216L96.3874 21.5585L95.77 21.3958L100.035 5.25879L100.317 6.69216Z" fill="#58863F"/>
<path d="M99.0821 6.36697L100.034 5.2522L100.035 5.25885L95.77 21.3958L95.1526 21.2334L99.0821 6.36697Z" fill="#4E7C39"/>
<path d="M99.6237 6.93408C99.5346 7.272 99.678 7.37271 99.8741 7.42464C100.07 7.47627 100.245 7.45916 100.334 7.12125C100.424 6.78333 100.198 6.20093 100.198 6.20093C100.198 6.20093 99.7132 6.59617 99.6237 6.9344V6.93408Z" fill="#91B053"/>
<path d="M99.0198 6.22513C98.9377 6.53549 99.0697 6.62828 99.2499 6.67547C99.4301 6.72298 99.5903 6.70714 99.6725 6.39678C99.7547 6.08641 99.5469 5.55151 99.5469 5.55151C99.5469 5.55151 99.1017 5.91477 99.0198 6.22513Z" fill="#91B053"/>
<path d="M98.5015 7.7963C98.4381 8.13991 98.5888 8.22985 98.788 8.26659C98.9876 8.30333 99.1605 8.27324 99.224 7.92963C99.2874 7.58601 99.018 7.02197 99.018 7.02197C99.018 7.02197 98.5646 7.45268 98.5012 7.7963H98.5015Z" fill="#91B053"/>
<path d="M99.1373 9.16844C99.0205 9.49781 99.155 9.61023 99.3464 9.67769C99.5377 9.74515 99.7131 9.74261 99.8299 9.41293C99.9467 9.08357 99.7693 8.48438 99.7693 8.48438C99.7693 8.48438 99.254 8.83876 99.1373 9.16812V9.16844Z" fill="#91B053"/>
<path d="M97.9119 9.94822C97.8485 10.2918 97.9992 10.3818 98.1987 10.4185C98.3983 10.4553 98.5712 10.4252 98.6347 10.0812C98.6981 9.73762 98.4288 9.17358 98.4288 9.17358C98.4288 9.17358 97.9757 9.60429 97.9119 9.94791V9.94822Z" fill="#91B053"/>
<path d="M98.609 11.0889C98.4922 11.4182 98.6267 11.5306 98.8181 11.5981C99.0094 11.6656 99.1848 11.663 99.3016 11.3333C99.4183 11.004 99.241 10.4048 99.241 10.4048C99.241 10.4048 98.7257 10.7592 98.609 11.0885V11.0889Z" fill="#91B053"/>
<path d="M97.3014 12.2585C97.2376 12.6021 97.3887 12.692 97.5882 12.7288C97.7878 12.7655 97.9607 12.7354 98.0242 12.3915C98.0876 12.0479 97.8183 11.4841 97.8183 11.4841C97.8183 11.4841 97.3652 11.9148 97.3014 12.2585Z" fill="#91B053"/>
<path d="M98.2266 13.0828C98.1238 13.3729 98.2421 13.4717 98.4106 13.5313C98.5791 13.5908 98.7336 13.5883 98.8364 13.2982C98.9392 13.0081 98.7831 12.4805 98.7831 12.4805C98.7831 12.4805 98.3294 12.7924 98.2266 13.0825V13.0828Z" fill="#91B053"/>
<path d="M102.026 7.34809L98.0969 22.2145L97.4795 22.052L101.745 5.91504L102.026 7.34809Z" fill="#58863F"/>
<path d="M100.792 7.02273L101.744 5.90796L101.745 5.91493L97.4794 22.0519L96.8623 21.8891L100.792 7.02273Z" fill="#4E7C39"/>
<path d="M101.333 7.58984C101.244 7.92776 101.387 8.02847 101.583 8.08041C101.78 8.13203 101.954 8.11493 102.043 7.77701C102.133 7.4391 101.907 6.85669 101.907 6.85669C101.907 6.85669 101.422 7.25224 101.333 7.59016V7.58984Z" fill="#91B053"/>
<path d="M100.729 6.88121C100.647 7.19157 100.779 7.28405 100.959 7.33155C101.139 7.37905 101.3 7.36322 101.382 7.05286C101.464 6.74249 101.256 6.20728 101.256 6.20728C101.256 6.20728 100.811 6.57053 100.729 6.88089L100.729 6.88121Z" fill="#91B053"/>
<path d="M100.211 8.45238C100.147 8.79599 100.298 8.88593 100.498 8.92267C100.697 8.95941 100.87 8.92932 100.934 8.58539C100.997 8.24177 100.728 7.67773 100.728 7.67773C100.728 7.67773 100.274 8.10844 100.211 8.45206L100.211 8.45238Z" fill="#91B053"/>
<path d="M100.847 9.82413C100.73 10.1538 100.865 10.2659 101.056 10.3334C101.247 10.4008 101.423 10.3983 101.54 10.0689C101.656 9.73957 101.479 9.14038 101.479 9.14038C101.479 9.14038 100.964 9.49476 100.847 9.82413Z" fill="#91B053"/>
<path d="M99.6216 10.6039C99.5582 10.9475 99.7086 11.0375 99.9081 11.0742C100.108 11.1109 100.281 11.0809 100.344 10.7372C100.408 10.3936 100.138 9.82959 100.138 9.82959C100.138 9.82959 99.6851 10.2603 99.6213 10.6039H99.6216Z" fill="#91B053"/>
<path d="M100.318 11.7446C100.202 12.0743 100.336 12.1864 100.528 12.2539C100.719 12.3213 100.894 12.3188 101.011 11.9891C101.128 11.6597 100.95 11.0605 100.95 11.0605C100.95 11.0605 100.435 11.4149 100.318 11.7443V11.7446Z" fill="#91B053"/>
<path d="M99.0108 12.9145C98.9473 13.2582 99.0977 13.3481 99.2976 13.3848C99.4972 13.4216 99.6698 13.3912 99.7332 13.0475C99.7967 12.7039 99.5273 12.1399 99.5273 12.1399C99.5273 12.1399 99.0743 12.5706 99.0105 12.9142L99.0108 12.9145Z" fill="#91B053"/>
<path d="M99.9365 13.7386C99.8337 14.0287 99.9524 14.1275 100.121 14.187C100.289 14.2466 100.443 14.244 100.546 13.9539C100.649 13.6638 100.493 13.1362 100.493 13.1362C100.493 13.1362 100.039 13.4482 99.9365 13.7383V13.7386Z" fill="#91B053"/>
<path d="M80.9072 47.5784H82.3302C82.7182 47.5784 83.0333 47.8929 83.0333 48.2802V53.1104C83.0333 53.4978 82.7182 53.8122 82.3302 53.8122H80.9072C80.5192 53.8122 80.2041 53.4978 80.2041 53.1104V48.2802C80.2041 47.8929 80.5192 47.5784 80.9072 47.5784Z" fill="#010101"/>
<path d="M105.22 47.5784H106.643C107.031 47.5784 107.346 47.8929 107.346 48.2802V53.1104C107.346 53.4978 107.031 53.8122 106.643 53.8122H105.22C104.832 53.8122 104.517 53.4978 104.517 53.1104V48.2802C104.517 47.8929 104.832 47.5784 105.22 47.5784Z" fill="#010101"/>
<path d="M107.616 18.9857C107.616 18.9388 107.615 18.8919 107.613 18.8457H79.937C79.9351 18.8923 79.9338 18.9388 79.9338 18.9857L79.9878 20.0675L107.41 23.1157L107.616 18.9857Z" fill="#006442"/>
<path d="M79.9881 20.0676L81.5072 50.5554C81.5072 52.4578 83.0524 54.0001 84.9583 54.0001H102.592C104.498 54.0001 106.043 52.4578 106.043 50.5554L107.41 23.1158L79.9878 20.0676H79.9881Z" fill="#019966"/>
<path d="M79.7738 16.3616H107.776C108.297 16.3616 108.719 16.7834 108.719 17.3031V18.619C108.719 19.1387 108.297 19.5605 107.776 19.5605H79.7738C79.2532 19.5605 78.8306 19.1387 78.8306 18.619V17.3031C78.8306 16.7834 79.2532 16.3616 79.7738 16.3616Z" fill="#019966"/>
<path d="M95.2908 31.9593L93.9084 32.9303L95.721 32.7143L95.801 32.7048L96.0319 32.6776L97.6437 32.4854L98.3351 31.1039L98.4074 30.9589L99.3243 29.1258L97.9188 30.1133L96.7065 28.0174C96.3813 27.517 96.0396 27.2982 95.7029 27.2633C95.1068 27.2342 94.5004 27.7685 94.0699 28.2907C93.9519 28.4402 93.8443 28.5919 93.7494 28.735C93.712 28.7917 93.6761 28.8468 93.6428 28.9004C93.6758 28.9688 93.7123 29.0422 93.7494 29.1173C93.8005 29.2196 93.8541 29.326 93.9125 29.4391C94.2666 30.1272 94.7517 31.007 95.2911 31.9593H95.2908Z" fill="white"/>
<path d="M98.9479 38.5737C98.7683 38.5607 98.5658 38.5481 98.3453 38.5376C97.5712 38.4999 96.5654 38.4787 95.4692 38.4692L95.3179 36.7888L94.5989 38.4638L94.5672 38.5376L94.4752 38.7511L93.8362 40.2408L94.6893 41.5288L94.7785 41.6641L95.9109 43.3729L95.7567 41.6641H98.1813C98.7784 41.6336 99.1385 41.4474 99.3372 41.1738C99.6608 40.6731 99.4999 39.882 99.262 39.2483C99.1633 39.0013 99.051 38.7704 98.9472 38.574L98.9479 38.5737Z" fill="white"/>
<path d="M101.724 37.4449C101.727 37.2533 101.686 37.138 101.661 37.0838L101.631 37.0325L99.4751 33.3047L96.9863 34.6228C97.1408 34.8815 97.328 35.2103 97.526 35.5621L98.8875 37.9155C98.9363 37.989 99.047 38.165 99.1778 38.4048L99.1857 38.4057L99.2263 38.4795C99.3259 38.6619 99.4405 38.9033 99.5404 39.1696C99.7413 39.6807 99.904 40.266 99.7968 40.7765L101.724 37.4449H101.724Z" fill="white"/>
<path d="M93.7492 28.2341C93.786 28.1863 93.8238 28.1382 93.8634 28.09C94.2067 27.6615 94.6325 27.228 95.1291 27.0652H91.2751C91.1076 27.1586 91.0279 27.2511 90.9933 27.3002L90.9638 27.3515L88.8076 31.0793L91.1958 32.5716C91.343 32.3084 91.5346 31.9825 91.7409 31.6351L93.102 29.2817C93.1416 29.2026 93.2387 29.0189 93.3812 28.7858L93.3777 28.7791L93.4218 28.7073C93.5065 28.5685 93.6182 28.4042 93.7492 28.2341Z" fill="white"/>
<path d="M87.7206 38.5812C87.9842 38.6195 88.2412 38.6378 88.4627 38.6461C88.5642 38.4972 88.6759 38.3284 88.7955 38.1438C89.2156 37.4933 89.7366 36.6341 90.2928 35.6913L91.8265 36.4007L90.7328 34.9417L90.6846 34.8774L90.5453 34.6915L89.5725 33.3943L88.0283 33.4877L87.8665 33.4975L85.8179 33.6214L87.3776 34.3428L86.1653 36.4384C85.8934 36.9698 85.875 37.3749 86.013 37.683C86.2859 38.2131 87.0527 38.4697 87.7209 38.5808L87.7206 38.5812Z" fill="white"/>
<path d="M91.7867 38.9233H89.0639C88.976 38.9284 88.7675 38.9369 88.4947 38.9299L88.4899 38.9363L88.4052 38.9337C88.1967 38.929 87.9305 38.9075 87.6491 38.8603C87.1056 38.7786 86.5164 38.6265 86.1274 38.2788L88.0546 41.6105C88.2189 41.7086 88.3395 41.7314 88.3985 41.7368H92.7706L92.8715 38.9265C92.5698 38.9299 92.1909 38.9277 91.7867 38.9233Z" fill="white"/>
<path d="M52.7816 0.981138L54.5574 0.586217L54.5717 0.456055L54.7462 0.544096L55.0631 0.47379L55.0666 0.705929L55.8281 1.0904L55.8224 1.25033L52.7759 1.14139L52.7816 0.981138Z" fill="#85A4B4"/>
<path d="M52.6512 4.61046L52.7759 1.14136L55.8221 1.2503L55.6974 4.7194C55.6974 4.7194 58.3819 6.68165 58.2655 9.91861C58.149 13.1556 57.7822 23.3564 57.7822 23.3564C57.7356 24.2102 55.8034 24.8325 53.4523 24.7483C51.1013 24.664 49.2186 23.9049 49.2335 23.0501C49.2335 23.0501 49.6003 12.849 49.7167 9.61237C49.8331 6.37541 52.6515 4.61046 52.6515 4.61046H52.6512Z" fill="#A0C4DA"/>
<path d="M52.3079 0.473156C52.2981 0.743932 52.5104 0.971321 52.7816 0.981138L55.8278 1.0904C56.0991 1.10022 56.3269 0.888346 56.3367 0.61757C56.3466 0.346794 56.1343 0.119406 55.863 0.109588L52.8169 0.000327874C52.5456 -0.00948973 52.3178 0.20238 52.3079 0.473156Z" fill="#BED9E7"/>
<path d="M54.3269 4.61723L54.4487 1.36792L55.419 1.40402L55.2971 4.65175L54.3269 4.61723Z" fill="white"/>
<path d="M55.6454 6.60956C55.4268 6.25645 55.2037 5.9787 55.0146 5.77222L56.2869 5.81782C56.338 5.89193 56.3894 5.96952 56.4405 6.05028C56.8162 6.64598 57.1084 7.3082 57.3092 8.01855C57.4609 8.55567 57.5602 9.12129 57.6062 9.70939L56.6299 9.67456C56.5265 8.5278 56.1971 7.50075 55.6454 6.60956Z" fill="white"/>
<path d="M56.2107 23.2893L56.6587 10.8273C56.6587 10.82 56.659 10.8127 56.6593 10.8054L57.6299 10.8403C57.6299 10.8475 57.6292 10.8548 57.6292 10.8621L57.1771 23.4391C57.1771 23.4391 56.2123 24.3981 53.3088 24.2939C53.3088 24.2939 55.7658 23.9113 56.2107 23.289V23.2893Z" fill="white"/>
<path d="M45.851 3.77411L44.0377 3.62748L44.0057 3.50049L43.8448 3.61197L43.5215 3.58568L43.5497 3.81624L42.8489 4.30173L42.8768 4.45945L45.8789 3.93183L45.851 3.77411Z" fill="#85A4B4"/>
<path d="M46.4817 7.35087L45.8788 3.93213L42.8767 4.45975L43.4799 7.87849C43.4799 7.87849 41.0924 10.1916 41.6549 13.3814C42.2174 16.5712 43.9904 26.6244 43.9904 26.6244C44.1544 27.4634 46.1545 27.8139 48.4713 27.4067C50.7884 26.9994 52.548 25.9885 52.4151 25.1439C52.4151 25.1439 50.6421 15.0909 50.0796 11.9009C49.5171 8.71109 46.4817 7.35087 46.4817 7.35087Z" fill="#A0C4DA"/>
<path d="M46.2501 3.20586C46.2971 3.47284 46.1188 3.72714 45.8513 3.77433L42.8492 4.30195C42.5818 4.34882 42.327 4.17052 42.2797 3.90386C42.2328 3.63688 42.4114 3.38258 42.6785 3.33539L45.6806 2.80777C45.9481 2.7609 46.2029 2.9392 46.2501 3.20618V3.20586Z" fill="#BED9E7"/>
<path d="M44.8229 7.58796L44.2531 4.38647L43.2971 4.55622L43.8666 7.75613L44.8229 7.58796Z" fill="white"/>
<path d="M43.7927 9.74287C43.9605 9.36283 44.1429 9.05722 44.3016 8.82666L43.048 9.04708C43.0077 9.12752 42.9674 9.21145 42.9281 9.29854C42.6384 9.94017 42.4401 10.6363 42.3398 11.3675C42.2637 11.9205 42.2437 12.4943 42.2792 13.0831L43.2412 12.914C43.1851 11.764 43.3694 10.7012 43.7927 9.74287Z" fill="white"/>
<path d="M45.5377 26.3412L43.3716 14.0604C43.3704 14.0531 43.3694 14.0461 43.3681 14.0388L42.4119 14.207C42.4131 14.2143 42.4144 14.2212 42.4157 14.2285L44.6017 26.6231C44.6017 26.6231 45.6897 27.4398 48.5509 26.9373C48.5509 26.9373 46.0647 26.8967 45.538 26.3415L45.5377 26.3412Z" fill="white"/>
<path d="M62.5111 3.029L64.3243 2.88237L64.3564 2.75537L64.5169 2.86685L64.8405 2.84056L64.812 3.07112L65.5129 3.55661L65.4852 3.71433L62.4832 3.18703L62.5111 3.029Z" fill="#85A4B4"/>
<path d="M61.8801 6.60576L62.4833 3.18701L65.4853 3.71463L64.8825 7.13337C64.8825 7.13337 67.27 9.44653 66.7075 12.6363C66.145 15.8261 64.3717 25.8793 64.3717 25.8793C64.2077 26.7182 62.2075 27.0688 59.8908 26.6615C57.574 26.2543 55.8141 25.2434 55.947 24.3987C55.947 24.3987 57.72 14.3458 58.2828 11.1557C58.8453 7.96597 61.8807 6.60576 61.8807 6.60576H61.8801Z" fill="#A0C4DA"/>
<path d="M62.112 2.46074C62.065 2.72772 62.2433 2.98203 62.5108 3.02921L65.5129 3.55683C65.7804 3.6037 66.0351 3.4254 66.0824 3.15874C66.1294 2.89177 65.9507 2.63746 65.6833 2.59027L62.6812 2.06265C62.4137 2.01578 62.159 2.19408 62.1117 2.46106L62.112 2.46074Z" fill="#BED9E7"/>
<path d="M63.5393 6.84285L64.1088 3.64136L65.0651 3.81111L64.4956 7.01101L63.5393 6.84285Z" fill="white"/>
<path d="M64.5695 8.99775C64.4016 8.61771 64.2192 8.3121 64.0605 8.08154L65.3144 8.30196C65.3547 8.38241 65.395 8.46633 65.4344 8.55342C65.724 9.19505 65.9223 9.89115 66.0229 10.6224C66.0991 11.1754 66.1191 11.7492 66.0835 12.338L65.1215 12.1688C65.1777 11.0189 64.9933 9.95607 64.5701 8.99775H64.5695Z" fill="white"/>
<path d="M62.8244 25.5961L64.9905 13.3152C64.9917 13.308 64.993 13.301 64.9943 13.2937L65.9505 13.4619C65.9493 13.4692 65.948 13.4761 65.9467 13.4834L63.7607 25.878C63.7607 25.878 62.6724 26.6947 59.8115 26.1921C59.8115 26.1921 62.2977 26.1516 62.8244 25.5964V25.5961Z" fill="white"/>
<path d="M41.5903 47.5784H43.0133C43.4013 47.5784 43.7164 47.8929 43.7164 48.2802V53.1104C43.7164 53.4978 43.4013 53.8122 43.0133 53.8122H41.5903C41.2023 53.8122 40.8872 53.4978 40.8872 53.1104V48.2802C40.8872 47.8929 41.2023 47.5784 41.5903 47.5784Z" fill="#010101"/>
<path d="M65.903 47.5784H67.326C67.7141 47.5784 68.0291 47.8929 68.0291 48.2802V53.1104C68.0291 53.4978 67.7141 53.8122 67.326 53.8122H65.903C65.515 53.8122 65.2 53.4978 65.2 53.1104V48.2802C65.2 47.8929 65.515 47.5784 65.903 47.5784Z" fill="#010101"/>
<path d="M68.2992 18.9857C68.2992 18.9388 68.2979 18.8919 68.296 18.8457H40.6201C40.6182 18.8923 40.6169 18.9388 40.6169 18.9857L40.6709 20.0675L68.0933 23.1157L68.2992 18.9857Z" fill="#0064AA"/>
<path d="M40.6711 20.0676L42.1903 50.5554C42.1903 52.4578 43.7354 54.0001 45.6413 54.0001H63.2753C65.1812 54.0001 66.7264 52.4578 66.7264 50.5554L68.0938 23.1158L40.6715 20.0676H40.6711Z" fill="#0099CF"/>
<path d="M40.4566 16.3616H68.4593C68.98 16.3616 69.4026 16.7834 69.4026 17.3031V18.619C69.4026 19.1387 68.98 19.5605 68.4593 19.5605H40.4569C39.9363 19.5605 39.5137 19.1387 39.5137 18.619V17.3031C39.5137 16.7834 39.9363 16.3616 40.4569 16.3616H40.4566Z" fill="#0099CF"/>
<path d="M55.978 31.9593L54.5956 32.9303L56.4083 32.7143L56.4882 32.7048L56.7192 32.6776L58.331 32.4854L59.0223 31.1039L59.0947 30.9589L60.0116 29.1258L58.606 30.1133L57.3937 28.0174C57.0685 27.517 56.7268 27.2982 56.3902 27.2633C55.794 27.2342 55.188 27.7685 54.7571 28.2907C54.6391 28.4402 54.5315 28.5919 54.4367 28.735C54.3992 28.7917 54.3634 28.8468 54.3301 28.9004C54.3631 28.9688 54.3992 29.0422 54.4367 29.1173C54.4878 29.2196 54.5414 29.326 54.5998 29.4391C54.9538 30.1272 55.439 31.007 55.9783 31.9593H55.978Z" fill="white"/>
<path d="M59.6347 38.5737C59.4551 38.5607 59.2527 38.5481 59.0322 38.5376C58.258 38.4999 57.2523 38.4787 56.1564 38.4692L56.0051 36.7888L55.2861 38.4638L55.2547 38.5376L55.1627 38.7511L54.5237 40.2408L55.3768 41.5288L55.466 41.6641L56.598 43.3729L56.4439 41.6641H58.8685C59.4656 41.6336 59.8257 41.4474 60.0243 41.1738C60.348 40.6731 60.1871 39.882 59.9495 39.2483C59.8508 39.0013 59.7385 38.7704 59.6347 38.574V38.5737Z" fill="white"/>
<path d="M62.4109 37.4449C62.4138 37.2533 62.3729 37.138 62.3478 37.0838L62.318 37.0325L60.1621 33.3047L57.6733 34.6228C57.8279 34.8815 58.015 35.2103 58.213 35.5621L59.5745 37.9155C59.6233 37.989 59.7341 38.165 59.8648 38.4048L59.8727 38.4057L59.913 38.4795C60.0126 38.6619 60.1272 38.9033 60.2271 39.1696C60.428 39.6807 60.5907 40.266 60.4835 40.7765L62.4109 37.4449Z" fill="white"/>
<path d="M54.4366 28.2341C54.4734 28.1863 54.5111 28.1382 54.5508 28.09C54.8941 27.6615 55.3199 27.228 55.8164 27.0652H51.9624C51.7949 27.1586 51.7153 27.2511 51.6807 27.3002L51.6509 27.3515L49.4946 31.0793L51.8828 32.5716C52.0297 32.3084 52.2216 31.9825 52.4279 31.6351L53.789 29.2817C53.8287 29.2026 53.9254 29.0189 54.0682 28.7858L54.0647 28.7791L54.1088 28.7073C54.1935 28.5685 54.3055 28.4042 54.4366 28.2341Z" fill="white"/>
<path d="M48.4075 38.5812C48.6712 38.6195 48.9282 38.6378 49.1496 38.6461C49.2515 38.4972 49.3629 38.3284 49.4825 38.1438C49.9025 37.4933 50.4235 36.6341 50.9797 35.6913L52.5134 36.4007L51.4198 34.9417L51.3715 34.8774L51.2323 34.6915L50.2595 33.3943L48.7156 33.4877L48.5538 33.4975L46.5051 33.6214L48.0649 34.3428L46.8525 36.4384C46.5806 36.9698 46.5622 37.3749 46.7003 37.683C46.9731 38.2131 47.74 38.4697 48.4082 38.5808L48.4075 38.5812Z" fill="white"/>
<path d="M52.4738 38.9233H49.7509C49.6627 38.9284 49.4545 38.9369 49.1817 38.9299L49.1769 38.9363L49.0922 38.9337C48.8837 38.929 48.6175 38.9075 48.3361 38.8603C47.7923 38.7786 47.2034 38.6265 46.8145 38.2788L48.7416 41.6105C48.906 41.7086 49.0268 41.7314 49.0855 41.7368H53.4576L53.5585 38.9265C53.2568 38.9299 52.878 38.9277 52.4738 38.9233Z" fill="white"/>
<path d="M146.615 15.1576L146.668 14.9914C146.668 14.9914 147.223 13.5628 147.138 12.5183C147.054 11.4786 146.455 10.8591 146.514 10.6542C146.576 10.6121 146.62 10.5586 146.641 10.494C146.645 10.4826 146.648 10.4712 146.65 10.4594C146.655 10.4487 146.659 10.4379 146.663 10.4265C146.691 10.3407 146.686 10.2498 146.623 10.1519L146.771 9.69747C146.737 9.80293 146.526 9.83619 146.247 9.79628C146.14 9.73263 146.018 9.67625 145.884 9.63287C145.747 9.58853 145.617 9.56319 145.49 9.55274C145.235 9.41973 145.084 9.26866 145.119 9.16162L144.966 9.63445C144.875 9.67784 144.816 9.74023 144.791 9.81845C144.787 9.82985 144.782 9.84062 144.78 9.85202C144.775 9.86279 144.768 9.87324 144.765 9.88432C144.745 9.94418 144.747 10.0082 144.767 10.0734L144.767 10.0728C144.701 10.2748 143.874 10.4417 143.19 11.236C142.506 12.0306 142.113 13.5118 142.113 13.5118L142.064 13.6793C141.999 13.8782 142.01 14.0904 142.093 14.3051L140.566 18.989C140.438 19.0917 140.348 19.2177 140.294 19.3618L140.293 19.3612C140.289 19.3729 140.279 19.3824 140.275 19.3938C140.257 19.4502 140.243 19.5068 140.236 19.5651L139.711 21.794C139.711 21.794 139.565 22.7574 139.816 22.8388L139.842 22.8474L139.903 22.867C139.903 22.867 140.028 22.9075 140.143 22.8493C140.143 22.8493 140.252 22.8154 140.241 22.956C140.23 23.0966 140.252 23.2249 140.252 23.2249C140.252 23.2249 140.269 23.6128 140.519 23.7911C140.529 23.7987 140.54 23.806 140.552 23.813C140.833 23.9792 140.958 24.0201 140.958 24.0201C140.958 24.0201 141.106 24.1135 141.272 24.0999C141.342 24.0942 141.415 24.0695 141.482 24.0112C141.708 23.8133 142.018 23.5416 142.045 23.507C142.074 23.4703 142.115 23.4804 142.18 23.6084L142.373 24.0176C142.373 24.0176 142.387 24.0556 142.42 24.0948C142.48 24.1667 142.607 24.2424 142.842 24.0974L143.206 23.8735C143.206 23.8735 143.508 23.6382 143.658 23.2841L144.616 20.9931C144.647 20.9405 144.672 20.8854 144.691 20.8268C144.738 20.6815 144.728 20.5234 144.691 20.367C144.689 20.3394 144.687 20.3116 144.682 20.2837C144.678 20.2688 144.673 20.2539 144.668 20.239L146.199 15.6688C146.401 15.5386 146.547 15.3663 146.615 15.1567V15.1576ZM140.394 19.2836C140.394 19.2817 140.395 19.2798 140.395 19.2776C140.403 19.2532 140.413 19.2291 140.423 19.206C140.412 19.2313 140.402 19.2573 140.394 19.2836ZM142.829 15.1266L142.84 15.0899C142.841 15.0791 142.842 15.0683 142.842 15.0576C143.025 15.1934 143.235 15.3188 143.468 15.4272C143.464 15.4468 143.46 15.4667 143.456 15.4864C143.206 15.3739 142.999 15.2504 142.829 15.1269V15.1266ZM144.754 15.8623C144.509 15.8275 144.229 15.7638 143.908 15.6596C143.759 15.6112 143.622 15.5583 143.495 15.5028C143.498 15.4835 143.503 15.4639 143.507 15.4443C143.644 15.5063 143.789 15.563 143.941 15.6121C144.227 15.7049 144.509 15.7638 144.778 15.7907L144.754 15.862V15.8623ZM144.657 20.6612C144.657 20.6634 144.656 20.6656 144.655 20.6679C144.659 20.6546 144.663 20.6413 144.667 20.628C144.664 20.6394 144.661 20.6504 144.658 20.6615L144.657 20.6612ZM146.455 14.4824C146.415 14.4156 146.369 14.3491 146.316 14.2836C146.433 14.0226 146.537 13.755 146.621 13.4842C146.738 12.9829 146.685 12.264 146.581 11.6575C146.708 11.8045 146.863 12.0657 146.946 12.4366C147.01 13.1425 146.791 13.8421 146.455 14.4824Z" fill="#C4DCE8"/>
<path d="M146.864 9.8786C146.833 9.97329 146.731 10.0252 146.636 9.99451L145.088 9.49191C144.992 9.46119 144.941 9.35922 144.972 9.26453L145.139 8.74926C145.17 8.65457 145.272 8.60263 145.367 8.63335L146.916 9.13595C147.011 9.16667 147.063 9.26864 147.032 9.36334L146.864 9.8786Z" fill="#325A9B"/>
<path d="M141.734 12.2285L141.724 11.972C141.724 11.972 141.77 9.71486 141.125 8.31189C140.483 6.91526 139.341 6.35882 139.32 6.04529C139.385 5.95567 139.418 5.85939 139.415 5.75963C139.414 5.74221 139.412 5.72479 139.409 5.70769C139.411 5.69027 139.411 5.67286 139.411 5.65544C139.406 5.52274 139.353 5.39955 139.216 5.29567L139.192 4.59229C139.198 4.7557 138.924 4.90708 138.516 4.99259C138.336 4.95807 138.138 4.94224 137.931 4.9492C137.718 4.95649 137.526 4.98721 137.345 5.03598C136.924 4.98056 136.64 4.84659 136.634 4.68096L136.66 5.41316C136.557 5.51831 136.507 5.63485 136.511 5.75615C136.512 5.77356 136.51 5.7913 136.513 5.8084C136.511 5.82582 136.508 5.84324 136.509 5.86066C136.512 5.95345 136.546 6.04117 136.608 6.12098L136.606 6.12035C136.617 6.43324 135.557 7.07994 135.011 8.52439C134.465 9.96885 134.669 12.2171 134.669 12.2171L134.686 12.4733C134.697 12.7811 134.82 13.0696 135.042 13.3252L135.295 20.5776C135.169 20.7844 135.109 21.0038 135.107 21.2306H135.104C135.105 21.2486 135.096 21.2667 135.097 21.2847C135.1 21.3722 135.108 21.458 135.129 21.5419L135.528 24.8916C135.528 24.8916 135.812 26.2987 136.201 26.2851L136.242 26.2838L136.335 26.2806C136.335 26.2806 136.529 26.2737 136.658 26.1356C136.658 26.1356 136.792 26.0336 136.848 26.2341C136.904 26.4346 136.999 26.6011 136.999 26.6011C136.999 26.6011 137.219 27.1291 137.654 27.2507C137.673 27.2558 137.692 27.2605 137.711 27.2643C138.185 27.353 138.379 27.3463 138.379 27.3463C138.379 27.3463 138.63 27.4018 138.853 27.2988C138.947 27.2558 139.036 27.1851 139.099 27.0705C139.312 26.6828 139.603 26.1505 139.624 26.089C139.646 26.0235 139.707 26.0175 139.862 26.1619L140.336 26.6309C140.336 26.6309 140.373 26.6768 140.439 26.7145C140.559 26.7836 140.773 26.8244 141.025 26.5058L141.415 26.0127C141.415 26.0127 141.715 25.5348 141.743 24.9695L141.913 21.3161C141.929 21.2281 141.936 21.1384 141.933 21.0479C141.925 20.8227 141.831 20.6092 141.701 20.4113C141.685 20.3739 141.667 20.3369 141.647 20.3005C141.633 20.2821 141.619 20.264 141.604 20.246L141.415 13.1482C141.63 12.8663 141.744 12.5544 141.733 12.2294L141.734 12.2285ZM135.205 21.0713C135.205 21.0681 135.204 21.0653 135.204 21.0621C135.203 21.0241 135.204 20.9864 135.206 20.9491C135.204 20.9896 135.203 21.0301 135.205 21.0713ZM136.477 14.0907L136.474 14.034C136.469 14.0188 136.465 14.0036 136.46 13.9884C136.782 14.0846 137.137 14.1521 137.513 14.1847C137.518 14.2142 137.522 14.2433 137.526 14.2728C137.124 14.2427 136.775 14.1759 136.477 14.0907H136.477ZM139.513 14.141C139.157 14.2158 138.737 14.2686 138.24 14.2857C138.009 14.2937 137.792 14.2899 137.588 14.2769C137.584 14.2481 137.58 14.2189 137.575 14.1898C137.797 14.2069 138.027 14.212 138.261 14.2037C138.704 14.1885 139.125 14.1274 139.51 14.0299L139.513 14.141H139.513ZM141.803 20.8328C141.803 20.8363 141.803 20.8395 141.803 20.843C141.802 20.8224 141.801 20.8021 141.799 20.7818C141.801 20.7989 141.802 20.8157 141.803 20.8328H141.803ZM141.172 11.374C141.083 11.3018 140.984 11.2331 140.878 11.1688C140.909 10.7486 140.918 10.3255 140.897 9.90868C140.805 9.15589 140.37 8.1868 139.919 7.3998C140.17 7.53915 140.517 7.82291 140.818 8.29479C141.263 9.23981 141.314 10.3185 141.172 11.374Z" fill="#C4DCE8"/>
<path d="M139.412 4.79458C139.417 4.94121 139.302 5.06441 139.155 5.06947L136.757 5.15276C136.61 5.15783 136.487 5.04287 136.482 4.89624L136.454 4.09816C136.449 3.95122 136.564 3.82834 136.711 3.82295L139.109 3.73966C139.256 3.7346 139.379 3.84956 139.384 3.99619L139.412 4.79426V4.79458Z" fill="#325A9B"/>
<path d="M134.523 14.5748L134.557 14.3702C134.557 14.3702 134.971 12.5938 134.695 11.3774C134.42 10.1667 133.611 9.53675 133.647 9.28529C133.712 9.22512 133.755 9.15482 133.769 9.07532C133.772 9.06139 133.773 9.04746 133.773 9.0332C133.778 9.0199 133.781 9.00597 133.783 8.99203C133.802 8.88626 133.78 8.78016 133.689 8.67534L133.787 8.1151C133.765 8.24526 133.522 8.31937 133.186 8.31905C133.05 8.26173 132.896 8.21613 132.731 8.18731C132.562 8.15785 132.404 8.14994 132.254 8.1588C131.93 8.04479 131.728 7.89183 131.751 7.75977L131.649 8.3428C131.55 8.40899 131.491 8.4926 131.474 8.58919C131.472 8.60313 131.467 8.61675 131.466 8.63068C131.462 8.64398 131.457 8.65728 131.454 8.67154C131.441 8.74533 131.454 8.82038 131.489 8.89386L131.489 8.89322C131.445 9.14246 130.499 9.47721 129.826 10.5283C129.154 11.5794 128.939 13.3906 128.939 13.3906L128.91 13.5962C128.868 13.8413 128.917 14.0896 129.049 14.3287L128.039 20.1037C127.904 20.2462 127.82 20.4096 127.781 20.5885L127.779 20.5879C127.777 20.6025 127.767 20.6151 127.764 20.6294C127.752 20.6991 127.744 20.7681 127.747 20.8381L127.503 23.5525C127.503 23.5525 127.493 24.7119 127.802 24.7661L127.835 24.7718L127.909 24.7848C127.909 24.7848 128.064 24.8114 128.189 24.724C128.189 24.724 128.312 24.6657 128.322 24.8335C128.333 25.0011 128.38 25.1486 128.38 25.1486C128.38 25.1486 128.466 25.6028 128.79 25.7713C128.804 25.7786 128.818 25.7852 128.832 25.7915C129.192 25.9404 129.346 25.9673 129.346 25.9673C129.346 25.9673 129.536 26.0528 129.729 26.0088C129.811 25.9904 129.892 25.9493 129.962 25.8691C130.195 25.598 130.514 25.2259 130.541 25.1806C130.569 25.1325 130.618 25.1379 130.716 25.2775L131.013 25.7272C131.013 25.7272 131.035 25.7697 131.081 25.8105C131.164 25.885 131.326 25.9531 131.579 25.7431L131.97 25.4182C131.97 25.4182 132.286 25.0904 132.403 24.6479L133.147 21.7879C133.175 21.721 133.196 21.6514 133.208 21.5792C133.24 21.3999 133.201 21.2156 133.131 21.0373C133.125 21.005 133.117 20.9727 133.107 20.9407C133.099 20.9239 133.091 20.9071 133.082 20.8903L134.118 15.2484C134.335 15.0612 134.477 14.8338 134.523 14.5751L134.523 14.5748ZM127.884 20.4786C127.885 20.4761 127.885 20.4739 127.886 20.4713C127.891 20.4413 127.898 20.4115 127.906 20.3824C127.898 20.414 127.89 20.446 127.885 20.4786H127.884ZM130.056 15.1721L130.063 15.1268C130.062 15.1141 130.061 15.1011 130.059 15.0884C130.297 15.218 130.567 15.3304 130.859 15.4191C130.857 15.4432 130.856 15.4669 130.854 15.491C130.541 15.4004 130.277 15.2896 130.055 15.1724L130.056 15.1721ZM132.447 15.7171C132.153 15.7171 131.812 15.6889 131.417 15.6199C131.233 15.5879 131.062 15.5486 130.903 15.5043C130.904 15.4808 130.906 15.4571 130.907 15.4333C131.08 15.4837 131.26 15.5258 131.447 15.5584C131.799 15.6199 132.143 15.6417 132.463 15.6287L132.447 15.7171ZM133.14 21.3879C133.139 21.3904 133.139 21.3933 133.139 21.3958C133.141 21.3793 133.144 21.3632 133.146 21.3467C133.144 21.3603 133.142 21.3739 133.14 21.3876V21.3879ZM134.221 13.8058C134.162 13.7336 134.096 13.6633 134.022 13.5946C134.117 13.2674 134.195 12.9346 134.248 12.6017C134.301 11.9915 134.119 11.1529 133.894 10.4558C134.069 10.6075 134.296 10.8897 134.455 11.3128C134.649 12.134 134.509 12.9948 134.221 13.8058Z" fill="#C4DCE8"/>
<path d="M133.928 8.31206C133.908 8.42892 133.796 8.50715 133.679 8.48688L131.77 8.15371C131.653 8.13313 131.574 8.02197 131.595 7.9051L131.706 7.26981C131.726 7.15295 131.838 7.07473 131.955 7.09499L133.865 7.42784C133.982 7.44843 134.06 7.55959 134.04 7.67645L133.928 8.31174V8.31206Z" fill="#325A9B"/>
<path d="M128.371 13.3583L128.32 13.0809C128.32 13.0809 128.021 10.6189 127.101 9.19281C126.186 7.77338 124.858 7.34457 124.787 7.00666C124.843 6.89929 124.865 6.7894 124.846 6.68141C124.842 6.66241 124.837 6.64404 124.831 6.62567C124.83 6.60667 124.828 6.58767 124.825 6.56866C124.799 6.42488 124.722 6.29915 124.557 6.20763L124.422 5.44629C124.453 5.62301 124.179 5.83013 123.749 5.98594C123.548 5.97612 123.33 5.98942 123.105 6.02933C122.876 6.07018 122.671 6.1332 122.482 6.21428C122.016 6.21903 121.686 6.11737 121.654 5.93812L121.796 6.7305C121.7 6.86097 121.664 6.99525 121.687 7.12637C121.691 7.14537 121.691 7.16469 121.697 7.18306C121.698 7.20206 121.697 7.22169 121.701 7.24069C121.718 7.34109 121.77 7.43103 121.849 7.50862L121.848 7.50799C121.908 7.84654 120.855 8.71397 120.485 10.3693C120.116 12.0247 120.686 14.4383 120.686 14.4383L120.745 14.7144C120.804 15.0476 120.982 15.3421 121.264 15.586L122.664 23.4344C122.559 23.6789 122.527 23.9268 122.56 24.1738H122.558C122.561 24.1935 122.554 24.2144 122.558 24.2337C122.575 24.3284 122.597 24.4206 122.633 24.5083L123.587 28.0898C123.587 28.0898 124.114 29.5761 124.535 29.5013L124.579 29.4934L124.68 29.4754C124.68 29.4754 124.89 29.4377 125.009 29.2676C125.009 29.2676 125.139 29.1359 125.23 29.3452C125.322 29.5545 125.451 29.7211 125.451 29.7211C125.451 29.7211 125.772 30.2614 126.265 30.3263C126.286 30.3292 126.307 30.3314 126.329 30.3323C126.857 30.3558 127.068 30.3184 127.068 30.3184C127.068 30.3184 127.35 30.3396 127.577 30.1933C127.672 30.1319 127.758 30.0413 127.808 29.907C127.98 29.4522 128.214 28.8283 128.227 28.7587C128.241 28.6839 128.306 28.6681 128.497 28.8011L129.086 29.2378C129.086 29.2378 129.134 29.2822 129.211 29.3129C129.352 29.3693 129.591 29.381 129.816 28.9952L130.164 28.3986C130.164 28.3986 130.415 27.8327 130.359 27.2132L129.977 23.2136C129.981 23.1151 129.975 23.017 129.957 22.9188C129.914 22.6752 129.779 22.4573 129.606 22.2623C129.583 22.2239 129.558 22.1866 129.531 22.1502C129.513 22.1324 129.494 22.115 129.476 22.0976L128.169 14.4075C128.359 14.0677 128.436 13.7108 128.373 13.3593L128.371 13.3583ZM122.642 23.9851C122.641 23.9819 122.64 23.9788 122.64 23.9753C122.633 23.9341 122.628 23.8929 122.625 23.8518C122.628 23.8961 122.634 23.9404 122.642 23.9848V23.9851ZM122.943 16.1963L122.931 16.1351C122.923 16.1193 122.916 16.1035 122.909 16.0876C123.273 16.1427 123.669 16.1611 124.084 16.1386C124.094 16.17 124.103 16.201 124.112 16.2324C123.67 16.2618 123.281 16.2431 122.943 16.1963H122.943ZM126.252 15.7817C125.877 15.9179 125.428 16.0404 124.891 16.1358C124.641 16.1804 124.404 16.2096 124.18 16.227C124.171 16.1963 124.162 16.1652 124.153 16.1342C124.397 16.1183 124.647 16.0883 124.9 16.0433C125.379 15.9581 125.828 15.8267 126.232 15.661L126.252 15.7814V15.7817ZM129.781 22.7056C129.782 22.7094 129.782 22.7129 129.783 22.7167C129.779 22.6946 129.774 22.6727 129.769 22.6509C129.774 22.6689 129.778 22.6873 129.781 22.7056H129.781ZM127.627 12.5159C127.519 12.451 127.402 12.3918 127.276 12.3382C127.244 11.8765 127.188 11.4148 127.1 10.9651C126.884 10.1603 126.261 9.17381 125.648 8.38745C125.942 8.5002 126.364 8.75514 126.764 9.22163C127.395 10.1806 127.617 11.346 127.627 12.5159H127.627Z" fill="#C4DCE8"/>
<path d="M124.693 5.63251C124.721 5.79149 124.615 5.94319 124.456 5.97138L121.861 6.43281C121.702 6.46099 121.55 6.35521 121.522 6.19655L121.368 5.33292C121.339 5.17393 121.445 5.02224 121.604 4.99405L124.199 4.53262C124.359 4.50444 124.511 4.61021 124.539 4.76888L124.693 5.63251Z" fill="#325A9B"/>
<path d="M120.195 47.5784H121.618C122.006 47.5784 122.321 47.8929 122.321 48.2802V53.1104C122.321 53.4978 122.006 53.8122 121.618 53.8122H120.195C119.807 53.8122 119.492 53.4978 119.492 53.1104V48.2802C119.492 47.8929 119.807 47.5784 120.195 47.5784Z" fill="#010101"/>
<path d="M144.508 47.5784H145.931C146.319 47.5784 146.634 47.8929 146.634 48.2802V53.1104C146.634 53.4978 146.319 53.8122 145.931 53.8122H144.508C144.12 53.8122 143.805 53.4978 143.805 53.1104V48.2802C143.805 47.8929 144.12 47.5784 144.508 47.5784Z" fill="#010101"/>
<path d="M146.904 18.9857C146.904 18.9388 146.902 18.8919 146.901 18.8457H119.225C119.223 18.8923 119.221 18.9388 119.221 18.9857L119.275 20.0675L146.698 23.1157L146.904 18.9857Z" fill="#CB1919"/>
<path d="M119.276 20.0676L120.795 50.5554C120.795 52.4578 122.34 54.0001 124.246 54.0001H141.88C143.786 54.0001 145.331 52.4578 145.331 50.5554L146.698 23.1158L119.276 20.0676H119.276Z" fill="#F80000"/>
<path d="M119.062 16.3616H147.064C147.585 16.3616 148.008 16.7834 148.008 17.3031V18.619C148.008 19.1387 147.585 19.5605 147.064 19.5605H119.062C118.541 19.5605 118.119 19.1387 118.119 18.619V17.3031C118.119 16.7834 118.541 16.3616 119.062 16.3616H119.062Z" fill="#F80000"/>
<path d="M134.583 31.9593L133.201 32.9303L135.013 32.7143L135.093 32.7048L135.324 32.6776L136.936 32.4854L137.627 31.1039L137.7 30.9589L138.617 29.1258L137.211 30.1133L135.999 28.0174C135.673 27.517 135.332 27.2982 134.995 27.2633C134.399 27.2342 133.793 27.7685 133.362 28.2907C133.244 28.4402 133.137 28.5919 133.042 28.735C133.004 28.7917 132.968 28.8468 132.935 28.9004C132.968 28.9688 133.004 29.0422 133.042 29.1173C133.093 29.2196 133.146 29.326 133.205 29.4391C133.559 30.1272 134.044 31.007 134.583 31.9593H134.583Z" fill="white"/>
<path d="M138.24 38.5737C138.06 38.5607 137.858 38.5481 137.637 38.5376C136.863 38.4999 135.858 38.4787 134.762 38.4692L134.61 36.7888L133.891 38.4638L133.86 38.5376L133.768 38.7511L133.129 40.2408L133.982 41.5288L134.071 41.6641L135.203 43.3729L135.049 41.6641H137.474C138.071 41.6336 138.431 41.4474 138.63 41.1738C138.953 40.6731 138.792 39.882 138.555 39.2483C138.456 39.0013 138.344 38.7704 138.24 38.574V38.5737Z" fill="white"/>
<path d="M141.016 37.4449C141.019 37.2533 140.978 37.138 140.953 37.0838L140.923 37.0325L138.767 33.3047L136.279 34.6228C136.433 34.8815 136.62 35.2103 136.818 35.5621L138.18 37.9155C138.229 37.989 138.339 38.165 138.47 38.4048L138.478 38.4057L138.518 38.4795C138.618 38.6619 138.732 38.9033 138.832 39.1696C139.033 39.6807 139.196 40.266 139.089 40.7765L141.016 37.4449H141.016Z" fill="white"/>
<path d="M133.041 28.2341C133.078 28.1863 133.116 28.1382 133.156 28.09C133.499 27.6615 133.925 27.228 134.421 27.0652H130.567C130.4 27.1586 130.32 27.2511 130.285 27.3002L130.256 27.3515L128.099 31.0793L130.488 32.5716C130.635 32.3084 130.826 31.9825 131.033 31.6351L132.394 29.2817C132.433 29.2026 132.53 29.0189 132.673 28.7858L132.669 28.7791L132.714 28.7073C132.799 28.5685 132.91 28.4042 133.041 28.2341Z" fill="white"/>
<path d="M127.013 38.5812C127.276 38.6195 127.533 38.6378 127.755 38.6461C127.857 38.4972 127.968 38.3284 128.088 38.1438C128.508 37.4933 129.029 36.6341 129.585 35.6913L131.119 36.4007L130.025 34.9417L129.977 34.8774L129.837 34.6915L128.865 33.3943L127.32 33.4877L127.159 33.4975L125.11 33.6214L126.669 34.3428L125.457 36.4384C125.185 36.9698 125.167 37.3749 125.305 37.683C125.577 38.2131 126.344 38.4697 127.013 38.5808V38.5812Z" fill="white"/>
<path d="M131.079 38.9233H128.356C128.268 38.9284 128.06 38.9369 127.787 38.9299L127.782 38.9363L127.697 38.9337C127.489 38.929 127.223 38.9075 126.941 38.8603C126.398 38.7786 125.809 38.6265 125.42 38.2788L127.347 41.6105C127.511 41.7086 127.632 41.7314 127.691 41.7368H132.063L132.164 38.9265C131.862 38.9299 131.483 38.9277 131.079 38.9233Z" fill="white"/>
</g>
<defs>
<clipPath id="clip0_352_2126">
<rect width="148" height="54" fill="white"/>
</clipPath>
</defs>
</svg>
