<svg width="76" height="46" viewBox="0 0 76 46" fill="none" xmlns="http://www.w3.org/2000/svg">
<path d="M51.7699 27.422L50.8263 44.6942C50.8089 45.0614 50.4885 45.3586 50.1274 45.3586H43.598C43.2311 45.3586 42.9165 45.0614 42.8932 44.6942L41.9497 27.422C41.938 27.2414 42.0778 27.0898 42.2642 27.0898H51.4554C51.636 27.0898 51.7816 27.2414 51.7699 27.422Z" fill="#DCF2F7"/>
<path d="M51.7699 27.422L50.8263 44.6884C50.8088 45.0555 50.4885 45.3527 50.1215 45.3527H43.5922C43.2252 45.3527 42.9107 45.0555 42.8874 44.6884L41.9438 27.422C41.9321 27.2355 42.0719 27.0898 42.2583 27.0898H51.4495C51.6359 27.0898 51.7757 27.2414 51.7641 27.422H51.7699Z" fill="#A5DCEA"/>
<path d="M51.4554 27.0898L50.4419 41.9904C50.4244 42.3575 50.139 42.6547 49.807 42.6547H43.9125C43.5747 42.6547 43.2951 42.3575 43.2776 41.9904L42.2642 27.0898H51.4554Z" fill="#C2EAF5"/>
<path opacity="0.4" d="M45.6483 45.3527H44.4717C44.0349 41.5416 43.2019 29.5898 43.0447 27.0898H45.1124C45.2697 30.4406 45.6308 45.3178 45.6424 45.3527H45.6483Z" fill="white"/>
<path d="M36.5211 21.0761V42.8237C36.5211 43.6453 36.4453 44.6593 35.3328 45.0322C35.2571 45.0556 35.1756 45.0789 35.0824 45.0964C33.7369 45.3935 30.7605 45.3469 30.7605 45.3469C30.7605 45.3469 27.7842 45.3877 26.4387 45.0964C26.3571 45.0789 26.2814 45.0556 26.2057 45.0322C25.0757 44.671 25 43.6453 25 42.8179V21.0702C25 18.5412 25.6291 16.4375 26.6833 15.2138C27.4638 14.3047 28.5355 13.2732 28.7044 11.3794C28.7685 10.6393 29.1238 3.71641 29.1238 1.97986C29.1238 1.84001 29.2345 1.71181 29.3743 1.70015C29.4733 1.69432 29.584 1.68267 29.7004 1.67684C29.7179 1.67684 29.7296 1.67684 29.7412 1.67684C30.0092 1.65936 30.312 1.65353 30.5625 1.64771C30.6266 1.64771 30.6906 1.64771 30.7431 1.64771C31.011 1.64771 31.4071 1.65936 31.7449 1.67684C31.8788 1.68267 32.0128 1.69432 32.1177 1.70015C32.2574 1.71181 32.3623 1.84001 32.3623 1.97986C32.3623 3.71641 32.7234 10.6393 32.7875 11.3794C32.9564 13.2732 34.0281 14.3047 34.8086 15.2138C35.8629 16.4375 36.4919 18.5412 36.4919 21.0702L36.5211 21.0761Z" fill="#A5DCEA"/>
<path d="M35.8919 42.8237C35.8919 43.2083 35.8687 43.523 35.7988 43.7678C35.6473 44.2747 34.8202 44.1116 34.3018 43.9076C33.4573 43.5813 32.1933 43.3715 30.778 43.3715C29.3626 43.3715 28.0928 43.5813 27.2482 43.9134C26.7299 44.1174 25.8969 44.2864 25.7455 43.7794C25.6698 43.5347 25.6465 43.22 25.6465 42.8296V21.0819C25.6465 18.751 26.2056 16.7697 27.1784 15.6392C27.2541 15.5518 27.3298 15.4644 27.4113 15.3711C28.1977 14.4737 29.182 13.3607 29.3509 11.4435C29.4092 10.785 29.7004 4.20594 29.7645 1.6827C30.1023 1.66522 30.5042 1.65356 30.7663 1.65356C31.0284 1.65356 31.4303 1.66522 31.7681 1.6827C31.8322 4.20594 32.1234 10.785 32.1817 11.4435C32.3506 13.3607 33.335 14.4737 34.1213 15.3711C34.2028 15.4644 34.2785 15.5518 34.3543 15.6392C35.327 16.7697 35.8861 18.7568 35.8861 21.0819V42.8296L35.8919 42.8237Z" fill="#C2EAF5"/>
<path d="M29.1763 2.14303L31.6226 2.27124C31.6692 2.27124 31.7042 2.32368 31.7042 2.38196C31.7042 2.4344 31.6634 2.48102 31.6226 2.48102L29.1763 2.60922C29.0715 2.60922 28.9841 2.51598 28.9783 2.38196C28.9783 2.25375 29.054 2.14303 29.1588 2.13721H29.1763V2.14303Z" fill="#A5DCEA"/>
<path d="M29.916 2.85977L32.3565 2.75488C32.4613 2.75488 32.5487 2.84812 32.5545 2.98215C32.5545 3.11035 32.4788 3.22107 32.3739 3.2269C32.3739 3.2269 32.3681 3.2269 32.3623 3.2269L29.9218 3.12201C29.8635 3.12201 29.8169 3.0579 29.8228 2.98798C29.8228 2.91805 29.8694 2.8656 29.9218 2.85977H29.916Z" fill="#A5DCEA"/>
<path opacity="0.1" d="M32.368 3.09865C32.368 3.09865 32.3622 3.09865 32.3564 3.09865L29.9159 2.99376C29.8751 2.99376 29.846 2.96462 29.8285 2.92383C29.8227 2.94131 29.8169 2.95879 29.811 2.9821C29.811 3.05203 29.8518 3.11613 29.9101 3.11613L32.3506 3.22102H32.3622C32.4671 3.22102 32.5486 3.1103 32.5428 2.97627C32.5428 2.95879 32.5428 2.94131 32.5311 2.92383C32.5078 3.01707 32.4438 3.08699 32.3564 3.09282L32.368 3.09865Z" fill="black"/>
<path opacity="0.1" d="M31.7042 2.38191C31.7042 2.38191 31.6984 2.33529 31.6867 2.31198C31.6692 2.33529 31.6518 2.35277 31.6226 2.35277L29.1763 2.48097C29.0889 2.48097 29.0132 2.41104 28.9899 2.30615C28.9841 2.32946 28.9783 2.3586 28.9783 2.38191C28.9783 2.51011 29.0715 2.615 29.1763 2.60917L31.6226 2.48097C31.6634 2.48097 31.7042 2.43435 31.7042 2.38191Z" fill="black"/>
<path opacity="0.4" d="M30.6383 11.3852C30.4985 13.2791 29.6015 14.3105 28.9492 15.2196C28.0697 16.4434 27.5396 18.547 27.5396 21.0761V44.0883C27.5396 44.4379 27.5513 44.8225 27.6328 45.178C27.4756 45.1547 26.829 45.1314 26.6951 45.1022C25.3438 44.8108 25.2622 43.7037 25.2622 42.8237V21.0761C25.2622 18.547 25.8913 16.4434 26.9455 15.2196C27.726 14.3105 28.7977 13.2791 28.9667 11.3852C29.0249 10.7151 29.322 4.96932 29.3802 2.60342C29.2987 2.58011 29.2288 2.49853 29.2288 2.38781C29.2288 2.27126 29.2928 2.1722 29.3918 2.14889V1.98572C29.3918 1.84587 29.5025 1.71767 29.6423 1.70601C29.6656 1.70601 29.6889 1.69436 29.718 1.6827C29.7355 1.6827 29.7471 1.6827 29.7588 1.6827C30.0267 1.66522 30.3296 1.65939 30.5801 1.65356C30.5218 1.75263 30.481 1.89831 30.481 1.98572C30.481 2.03817 30.481 2.09062 30.481 2.14889C30.4053 2.16637 30.3471 2.26544 30.3471 2.38781C30.3471 2.49853 30.4053 2.58011 30.4752 2.60342C30.4286 4.96932 30.6849 10.7151 30.6325 11.3852H30.6383Z" fill="white"/>
</svg>
