<svg width="76" height="46" viewBox="0 0 76 46" fill="none" xmlns="http://www.w3.org/2000/svg">
<path d="M39.5664 3.19678H11V40.5082H39.5664V3.19678Z" fill="#F0F0F0"/>
<path d="M37.7861 4.81738H12.7866V10.5755H37.7861V4.81738Z" fill="#C8C8C8"/>
<path d="M37.7861 12.0181H12.7866V12.6442H37.7861V12.0181Z" fill="#C8C8C8"/>
<path d="M37.7861 25.1428H12.7866V25.769H37.7861V25.1428Z" fill="#C8C8C8"/>
<path d="M37.7861 27.2117H12.7866V27.8378H37.7861V27.2117Z" fill="#C8C8C8"/>
<path d="M37.786 14.0808H23.135V14.707H37.786V14.0808Z" fill="#C8C8C8"/>
<path d="M37.786 15.8857H23.135V16.5119H37.786V15.8857Z" fill="#C8C8C8"/>
<path d="M37.786 17.6782H23.135V18.3044H37.786V17.6782Z" fill="#C8C8C8"/>
<path d="M37.786 19.4768H23.135V20.103H37.786V19.4768Z" fill="#C8C8C8"/>
<path d="M37.786 21.2815H23.135V21.9076H37.786V21.2815Z" fill="#C8C8C8"/>
<path d="M37.786 23.0742H23.135V23.7004H37.786V23.0742Z" fill="#C8C8C8"/>
<path d="M22.4736 14.0808H12.7866V23.7003H22.4736V14.0808Z" fill="#C8C8C8"/>
<path d="M27.4376 29.2803H12.7866V29.9064H27.4376V29.2803Z" fill="#C8C8C8"/>
<path d="M27.4376 31.0789H12.7866V31.705H27.4376V31.0789Z" fill="#C8C8C8"/>
<path d="M27.4376 32.8777H12.7866V33.5038H27.4376V32.8777Z" fill="#C8C8C8"/>
<path d="M27.4376 34.6763H12.7866V35.3024H27.4376V34.6763Z" fill="#C8C8C8"/>
<path d="M27.4376 36.4749H12.7866V37.101H27.4376V36.4749Z" fill="#C8C8C8"/>
<path d="M27.4376 38.2737H12.7866V38.8998H27.4376V38.2737Z" fill="#C8C8C8"/>
<path d="M37.7861 29.2803H28.0991V38.8997H37.7861V29.2803Z" fill="#C8C8C8"/>
<path opacity="0.2" d="M39.5662 19.2498V40.5083H28.853V20.9195L31.468 20.103L33.4894 19.4769L34.2127 19.2559V19.2498H39.5662Z" fill="black"/>
<path opacity="0.2" d="M19.5247 18.2859L28.8284 20.9133L34.2128 19.2497L24.9091 16.6223L19.5247 18.2859Z" fill="black"/>
<path d="M56.7023 22.2332H30.1821V43.0988H56.7023V22.2332Z" fill="#DDB170"/>
<path d="M56.6962 22.2332H30.1821L35.5604 20.5696H51.3179L56.6962 22.2332Z" fill="#B48A4D"/>
<path d="M66 19.6057L56.6963 22.2331L51.3181 20.5695L60.6218 17.9421L66 19.6057Z" fill="#DDB170"/>
<path d="M20.8538 19.6057L30.1575 22.2331L35.5419 20.5695L26.2382 17.9421L20.8538 19.6057Z" fill="#DDB170"/>
<path d="M34.9238 31.8771H35.1525V30.8581H35.4492L35.0536 29.3848L34.658 30.8581H34.9238V31.8771Z" fill="#B48A4D"/>
<path d="M33.9345 31.8771H34.1633V30.8581H34.46L34.0643 29.3848L33.6687 30.8581H33.9345V31.8771Z" fill="#B48A4D"/>
<path d="M35.6655 32.0735H33.4153V32.3006H35.6655V32.0735Z" fill="#B48A4D"/>
<path d="M36.7968 33.0742H32.2964V28.6052H36.7968V33.0742ZM32.6178 32.755H36.4691V28.9306H32.6178V32.755Z" fill="#B48A4D"/>
<path d="M35.4924 38.5561V37.6782H33.5884V38.5561C33.5884 39.041 34.0149 39.4339 34.5342 39.4339H34.4229V40.3486H33.9284C33.8666 40.3486 33.8109 40.3977 33.8109 40.4652C33.8109 40.5328 33.8666 40.5819 33.9284 40.5819H35.1524C35.2204 40.5819 35.2698 40.5266 35.2698 40.4652C35.2698 40.4038 35.2204 40.3486 35.1524 40.3486H34.6578V39.4339H34.5466C35.0658 39.4339 35.4924 39.041 35.4924 38.5561Z" fill="#B48A4D"/>
<path d="M36.7968 41.3677H32.2964V36.9048H36.7968V41.3677ZM32.6178 41.0423H36.4691V37.2179H32.6178V41.0423Z" fill="#B48A4D"/>
<path d="M34.5714 33.7004V33.5593C34.5714 33.5593 34.559 33.5286 34.5466 33.5286C34.5281 33.5286 34.5157 33.5408 34.5157 33.5593V33.7004C33.8048 33.7127 33.2175 34.2222 33.0815 34.8975C33.1495 34.7747 33.335 34.6827 33.5575 34.6827C33.8295 34.6827 34.0521 34.8238 34.0521 34.9957C34.0521 34.9835 34.0521 34.9712 34.0521 34.9589C34.0768 34.8116 34.2437 34.6949 34.4786 34.6765V36.1314C34.4786 36.1314 34.4786 36.1805 34.4601 36.2051C34.4601 36.2173 34.4477 36.2296 34.4416 36.2419C34.4416 36.2419 34.4416 36.248 34.4354 36.2542C34.4354 36.2542 34.4292 36.2603 34.423 36.2665C34.423 36.2665 34.423 36.2665 34.4106 36.2787C34.4106 36.2787 34.4106 36.2787 34.3983 36.2849C34.3983 36.2849 34.3797 36.2971 34.3736 36.2971C34.3736 36.2971 34.3736 36.2971 34.3612 36.2971C34.3612 36.2971 34.3488 36.2972 34.3426 36.3033C34.3426 36.3033 34.3365 36.3033 34.3303 36.3033C34.3179 36.3033 34.3117 36.3033 34.2994 36.3033C34.2994 36.3033 34.2808 36.3033 34.2685 36.3033C34.2685 36.3033 34.2685 36.3033 34.2623 36.3033C34.2623 36.3033 34.2499 36.3033 34.2437 36.2971C34.2437 36.2971 34.2376 36.2971 34.2314 36.2971C34.2314 36.2971 34.219 36.291 34.2128 36.2849C34.2128 36.2849 34.2066 36.2849 34.2005 36.2787C34.1881 36.2665 34.1696 36.248 34.1634 36.2296C34.1448 36.2051 34.1386 36.1744 34.1386 36.1437C34.1386 36.1068 34.1077 36.0823 34.0706 36.0823C34.0335 36.0823 34.0088 36.113 34.0088 36.1437C34.0088 36.3094 34.1448 36.4445 34.3117 36.4445C34.4786 36.4445 34.6146 36.3094 34.6146 36.1437V34.6888C34.8496 34.7011 35.0165 34.8177 35.0412 34.965C35.0412 34.965 35.0412 34.9896 35.0412 35.0019C35.0412 34.83 35.2576 34.6888 35.5357 34.6888C35.7521 34.6888 35.9376 34.7809 36.0056 34.9037C35.8757 34.2345 35.2885 33.725 34.5776 33.7066L34.5714 33.7004Z" fill="#B48A4D"/>
<path d="M36.7968 37.2178H32.2964V32.7488H36.7968V37.2178ZM32.6178 36.8986H36.4691V33.0741H32.6178V36.8986Z" fill="#B48A4D"/>
<path opacity="0.3" d="M56.7023 42.6262H30.2007V43.0866H56.7023V42.6262Z" fill="black"/>
<path opacity="0.2" d="M51.3552 20.5696H35.542V22.2393H51.3552V20.5696Z" fill="black"/>
</svg>
