<svg width="76" height="46" viewBox="0 0 76 46" fill="none" xmlns="http://www.w3.org/2000/svg">
<path d="M47.9628 21.2578C49.298 19.3418 50.0892 17.0286 50.0892 14.5273C50.0892 7.96406 44.6991 2.64795 38.0446 2.64795C31.39 2.64795 26 7.9571 26 14.5204C26 17.0217 26.7912 19.3418 28.1263 21.2509C28.1193 21.2509 28.9246 22.2333 29.2496 22.6165C32.4991 26.4346 32.2519 31.0888 33.0219 34.9418H43.0743C43.8443 31.0888 43.5971 26.4416 46.8467 22.6165C47.1716 22.2402 47.9769 21.2509 47.9699 21.2509L47.9628 21.2578Z" fill="#85D2DD"/>
<path d="M40.291 43.9436H35.7981L33.6365 42.1599H42.4597L40.291 43.9436Z" fill="#735459"/>
<path d="M42.4598 36.0913H33.6366L33.022 34.9417H43.0744L42.4598 36.0913Z" fill="#C8C8C8"/>
<path d="M42.4597 36.0913H33.6365V42.1599H42.4597V36.0913Z" fill="#DCDCDC"/>
<path d="M33.3891 37.687C34.7031 37.3665 36.6458 37.1505 37.9738 36.9693C39.3019 36.7951 41.2587 36.6488 42.6151 36.6279C42.7846 36.6279 42.9259 36.7603 42.933 36.9275C42.933 37.0738 42.8341 37.1923 42.6998 37.2271C41.3859 37.5546 39.4432 37.7706 38.1151 37.9448C36.78 38.112 34.8302 38.2513 33.4739 38.2862C33.3044 38.2862 33.1631 38.1538 33.156 37.9866C33.156 37.8403 33.2549 37.7148 33.3891 37.68V37.687Z" fill="#BEBEBE"/>
<path d="M33.3891 39.3591C34.7031 39.0386 36.6458 38.8226 37.9738 38.6414C39.3019 38.4673 41.2587 38.321 42.6151 38.3C42.7846 38.3 42.9259 38.4324 42.933 38.5996C42.933 38.746 42.8341 38.8644 42.6998 38.8992C41.3859 39.2337 39.4432 39.4427 38.1151 39.6169C36.78 39.7841 34.8302 39.9304 33.4739 39.9583C33.3044 39.9583 33.1631 39.8329 33.156 39.6587C33.156 39.5124 33.2549 39.387 33.3891 39.3521V39.3591Z" fill="#BEBEBE"/>
<path d="M33.3891 41.0244C34.7031 40.7039 36.6458 40.4879 37.9738 40.3067C39.3019 40.1326 41.2587 39.9862 42.6151 39.9653C42.7846 39.9653 42.9259 40.0977 42.933 40.2649C42.933 40.4112 42.8341 40.5297 42.6998 40.5645C41.3859 40.892 39.4432 41.108 38.1151 41.2822C36.78 41.4494 34.8302 41.5887 33.4739 41.6236C33.3044 41.6236 33.1631 41.4912 33.156 41.324C33.156 41.1777 33.2549 41.0522 33.3891 41.0174V41.0244Z" fill="#BEBEBE"/>
<path d="M43.9926 12.4719L43.9008 12.8482L40.3545 34.9417H39.7046L43.8725 12.883L43.9926 12.4789V12.4719Z" fill="#838B96"/>
<path d="M36.3915 34.9417H35.7345L32.1812 12.8412L32.0894 12.4719L32.2094 12.8691L36.3915 34.9417Z" fill="#838B96"/>
<path d="M43.9785 12.3814L43.8726 12.7994C43.8726 12.7994 43.8514 12.8133 43.8443 12.8273C43.7454 12.9527 43.6677 13.1478 43.59 13.3498C43.4275 13.74 43.2438 14.1929 42.8341 14.1929C42.4244 14.1929 42.2407 13.74 42.0853 13.3498C41.9581 13.0293 41.8239 12.7088 41.6332 12.7088C41.4424 12.7088 41.3153 13.0293 41.1881 13.3498C41.0257 13.74 40.849 14.1929 40.4323 14.1929C40.0155 14.1929 39.8459 13.74 39.6764 13.3498C39.5563 13.0293 39.4221 12.7088 39.2313 12.7088C39.0406 12.7088 38.9134 13.0293 38.7792 13.3498C38.6238 13.74 38.4472 14.1929 38.0304 14.1929C37.6136 14.1929 37.4441 13.74 37.2745 13.3498C37.1544 13.0293 37.0202 12.7088 36.8295 12.7088C36.6387 12.7088 36.5045 13.0293 36.3844 13.3498C36.229 13.74 36.0453 14.1929 35.6286 14.1929C35.2118 14.1929 35.0422 13.74 34.8868 13.3498C34.7596 13.0293 34.6254 12.7088 34.4347 12.7088C34.244 12.7088 34.1239 13.0293 33.9896 13.3498C33.8342 13.74 33.6506 14.1929 33.2408 14.1929C32.8311 14.1929 32.6545 13.74 32.492 13.3498C32.4072 13.1408 32.3295 12.9318 32.2236 12.8133C32.2236 12.7994 32.2094 12.7855 32.1953 12.7785L32.0894 12.3744C32.4638 12.4092 32.6333 12.8342 32.7958 13.2105C32.9159 13.524 33.0501 13.8515 33.2408 13.8515C33.4316 13.8515 33.5658 13.524 33.6859 13.2105C33.8413 12.8203 34.025 12.3674 34.4276 12.3674C34.8303 12.3674 35.014 12.8203 35.1835 13.2105C35.3036 13.524 35.4378 13.8515 35.6286 13.8515C35.8193 13.8515 35.9535 13.524 36.0807 13.2105C36.2361 12.8203 36.4198 12.3674 36.8295 12.3674C37.2392 12.3674 37.4158 12.8203 37.5783 13.2105C37.7054 13.524 37.8397 13.8515 38.0304 13.8515C38.2211 13.8515 38.3554 13.524 38.4755 13.2105C38.6379 12.8203 38.8216 12.3674 39.2243 12.3674C39.6269 12.3674 39.8177 12.8203 39.9731 13.2105C40.1002 13.524 40.2345 13.8515 40.4252 13.8515C40.6159 13.8515 40.7431 13.524 40.8702 13.2105C41.0327 12.8203 41.2093 12.3674 41.6261 12.3674C42.0429 12.3674 42.2125 12.8203 42.382 13.2105C42.5021 13.524 42.6434 13.8515 42.8341 13.8515C43.0248 13.8515 43.1591 13.524 43.2792 13.2105C43.4346 12.8412 43.6041 12.4092 43.9785 12.3744V12.3814Z" fill="#838B96"/>
<path opacity="0.3" d="M33.1843 21.2507C32.9653 20.7909 32.4284 19.6134 32.4355 19.6134C31.6089 17.3699 31.4253 14.8477 32.0469 12.3186C33.0642 8.17992 36.0029 5.0237 39.641 3.60932C39.3372 3.58842 39.0335 3.56055 38.7227 3.56055C32.4567 3.57448 27.3774 8.57706 27.3774 14.7571C27.3774 17.1121 28.1192 19.2929 29.3766 21.0975C29.3696 21.0975 30.1254 22.0241 30.4363 22.3795C33.3397 25.7935 33.7989 30.5174 34.4558 34.0289C34.7172 30.2596 35.1552 25.3824 33.1772 21.2507H33.1843Z" fill="white"/>
</svg>
