<svg width="76" height="46" viewBox="0 0 76 46" fill="none" xmlns="http://www.w3.org/2000/svg">
<path d="M36.4789 6.1312L40.4697 6.10693L40.4835 8.48257L36.4927 8.50683L36.4789 6.1312Z" fill="#5A98F2"/>
<path d="M30.6747 45.6477L46.9326 45.5484C48.0812 45.5415 49.0067 44.582 49 43.4051L48.8573 18.8694C48.8378 15.5529 46.1986 12.8805 42.9625 12.9005L34.2662 12.9536C31.0295 12.9736 28.4214 15.6778 28.4409 18.9937L28.5835 43.5294C28.5902 44.7063 29.5267 45.6546 30.6753 45.6471L30.6747 45.6477Z" fill="#B6FAFF"/>
<path d="M32.0483 13.4285C30.8619 14.5348 30.1211 16.1327 30.1315 17.9056L30.2741 42.4413C30.2808 43.6182 31.2173 44.5665 32.3659 44.559L48.6238 44.4597C48.6738 44.4597 48.7232 44.4565 48.772 44.4528C48.419 45.1025 47.7441 45.5435 46.9668 45.5485L30.7088 45.6478C29.5602 45.6547 28.6238 44.7064 28.6171 43.5301L28.4744 18.9944C28.4598 16.4969 29.9364 14.3468 32.0483 13.4291V13.4285Z" fill="#86EAEF"/>
<path d="M33.9491 8.21972L43.0232 8.16455L43.0512 12.9952L33.9771 13.0503L33.9491 8.21972Z" fill="#81DBF7"/>
<path d="M33.9493 8.2198L36.491 8.20435L36.5189 13.0349L33.9773 13.0504L33.9493 8.2198Z" fill="#7DCDF4"/>
<path d="M35.8727 13.0388L41.2078 13.0063L41.2262 16.1822L35.8911 16.2146L35.8727 13.0388Z" fill="#86EAEF"/>
<path d="M37.781 16.2033L39.4612 16.1931L39.598 39.8251L37.9178 39.8354L37.781 16.2033Z" fill="#86EAEF"/>
<path d="M30.546 0.977797C32.7914 0.405586 40.817 0.751661 40.817 0.751661C41.4785 0.747913 42.0175 1.29389 42.0217 1.97105L42.0425 5.57922C42.0461 6.25701 41.5133 6.80923 40.8524 6.8136L36.1055 6.84234C35.4441 6.84608 34.9051 6.30011 34.9009 5.62295L34.885 2.88996C34.279 2.8 33.6169 2.72879 32.9511 2.70817C30.6399 2.63633 29.6651 3.17981 29.6651 3.17981L28.0001 3.00552C28.0001 3.00552 28.3396 1.54001 30.5466 0.977797H30.546Z" fill="#81DBF7"/>
<path d="M29.4547 1.4519C28.8042 2.02224 28.6695 2.6032 28.6695 2.6032L30.3345 2.77749C30.3345 2.77749 31.3093 2.23338 33.6206 2.30585C34.2863 2.32646 34.9484 2.39768 35.5544 2.48763L35.5703 5.22063C35.5739 5.89841 36.1135 6.44438 36.775 6.44001L41.5218 6.41127C41.6206 6.41127 41.7163 6.39753 41.8083 6.37379C41.5919 6.67364 41.2444 6.86917 40.8524 6.87167L36.1055 6.9004C35.4441 6.90415 34.9051 6.35818 34.9009 5.68102L34.885 2.94802C34.279 2.85807 33.6169 2.78686 32.9511 2.76624C30.6399 2.6944 29.6651 3.23788 29.6651 3.23788L28.0001 3.06359C28.0001 3.06359 28.2201 2.11532 29.4547 1.4519Z" fill="#7DCDF4"/>
<path d="M33.976 12.8406L43.05 12.7854L43.0513 12.9953L33.9772 13.0505L33.976 12.8406Z" fill="#5A98F2"/>
<path opacity="0.53" d="M45.6554 18.642C45.6707 19.2841 45.6579 19.9269 45.603 20.5666C45.5591 21.0764 45.475 21.6155 45.1464 22.0003C44.8177 22.3857 44.166 22.52 43.8258 22.1452C43.5716 21.8653 43.5832 21.4374 43.5923 21.0551C43.6118 20.2137 43.5448 19.3704 43.3923 18.5433C43.3009 18.0485 43.1741 17.5481 42.8967 17.1327C42.4425 16.4525 41.6609 16.1001 40.933 15.7484C39.9685 15.2824 40.2642 14.5709 41.1665 14.3579C41.7682 14.2161 42.5644 14.1111 43.168 14.2954C45.039 14.8651 45.6127 16.8691 45.6554 18.6413V18.642Z" fill="white"/>
<path opacity="0.53" d="M45.6768 24.0824C45.7359 24.5903 45.6091 25.0988 45.5158 25.601C44.8738 29.0499 45.7975 32.6125 45.4939 36.1101C45.4573 36.5311 45.3969 36.9671 45.1701 37.3201C44.9427 37.673 44.5031 37.916 44.1117 37.7817C43.5582 37.5925 43.4429 36.8528 43.4448 36.2556C43.4551 33.1066 44.0611 29.9463 43.6466 26.826C43.546 26.0708 43.3862 25.3055 43.5063 24.5534C43.7203 23.2185 45.4506 22.1478 45.6768 24.0824Z" fill="white"/>
<path opacity="0.53" d="M41.3981 1.61609C41.5499 1.79101 41.6109 2.02964 41.6395 2.26202C41.7023 2.77738 41.6243 3.30961 41.4164 3.78375C41.3688 3.89307 41.3073 4.00551 41.2018 4.05799C41.0305 4.14232 40.8177 4.01863 40.7293 3.84684C40.6403 3.67443 40.6403 3.47078 40.633 3.27588C40.6196 2.8942 40.5616 2.48753 40.3153 2.2008C40.0428 1.88408 39.6008 1.78726 39.1893 1.76727C38.7778 1.74728 38.3559 1.78413 37.9608 1.66232C37.8572 1.63046 37.7462 1.57736 37.7084 1.47367C37.6633 1.34935 37.7505 1.20818 37.8669 1.15008C37.9834 1.09198 38.1187 1.09573 38.2473 1.10135C38.8924 1.12822 39.5411 1.15195 40.1849 1.20818C40.5885 1.24378 41.1122 1.28814 41.3981 1.61672V1.61609Z" fill="white"/>
</svg>
