<svg width="76" height="46" viewBox="0 0 76 46" fill="none" xmlns="http://www.w3.org/2000/svg">
<path d="M53.2246 37.2074C52.8914 35.4764 52.6954 33.7192 52.6387 31.9572C52.5367 28.7831 52.8855 25.5857 52.4492 22.4404C51.801 17.7708 49.4528 13.445 48.9901 8.75329C48.7477 6.29395 48.9974 3.65885 47.7843 1.50744C47.5851 1.15417 47.3189 0.798836 46.9298 0.686673C46.629 0.600122 46.3081 0.674309 46.0043 0.74879C45.1678 0.95398 44.331 1.15888 43.4945 1.36407C43.3235 1.40587 43.142 1.45386 43.023 1.58398C42.998 1.61136 42.978 1.64168 42.9604 1.67288C42.6478 1.9449 42.3725 2.2602 42.1495 2.60993C41.9444 2.9317 41.7798 3.28939 41.7443 3.66945C41.7064 4.07512 41.8172 4.47814 41.9162 4.87321C42.1944 5.98248 42.391 7.1259 42.3114 8.26696C42.2012 9.84548 41.5701 11.3419 41.3421 12.9077C41.2198 13.7473 41.2154 14.5964 41.2856 15.4425C37.905 15.5823 34.5026 16.4628 31.102 16.4616C31.0979 15.4307 30.9216 14.3765 30.688 13.3764C30.2 11.2848 29.4998 9.16603 29.7872 7.03728C29.8959 6.23183 30.1462 5.42961 30.0522 4.6221C29.9582 3.81458 29.367 2.97645 28.5558 2.97439L28.4817 3.01649C27.506 2.84221 25.2189 3.18547 24.1685 3.36181C23.8086 3.42216 23.5063 3.66444 23.3655 4.00152C22.16 6.88891 23.243 10.3039 23.3326 13.5001C23.4422 17.3896 22.0175 21.186 22.0002 25.0767C21.9831 28.9303 23.3482 32.7315 23.0032 36.5697C22.8011 38.8198 22.016 41.0954 22.5605 43.2878C22.6313 43.5727 22.7312 43.8639 22.9415 44.0682C23.1951 44.3143 23.5636 44.392 23.9126 44.4459C29.2906 45.279 34.631 43.0299 40.0519 42.5515C43.1041 42.2821 46.1736 42.5774 49.229 42.8082C50.3722 42.8945 51.6382 42.9357 52.5282 42.2115C53.2163 41.6515 53.5257 40.7307 53.5607 39.8434C53.5956 38.9561 53.392 38.0791 53.2243 37.2071L53.2246 37.2074Z" fill="#B1DFF9"/>
<path d="M28.3143 14.8564C28.2303 13.7777 27.8824 12.7494 27.6497 11.6993C27.4243 10.6822 27.3688 9.64122 27.2322 8.61056C27.1619 8.08006 27.0744 7.55104 26.9292 7.03527C26.8176 6.63872 26.6719 6.03758 26.2217 5.92924C26.7494 5.39404 27.2589 4.84117 27.7478 4.26946C27.9006 4.09076 27.6423 3.82993 27.4887 4.00981C26.4204 5.2595 25.2568 6.42411 24.0087 7.49305C23.8292 7.64672 24.0895 7.90549 24.2679 7.7527C24.4697 7.57989 24.6683 7.40355 24.8655 7.22603C24.745 7.58019 24.6813 7.95053 24.6583 8.32617C24.5987 9.29855 24.8399 10.2639 25.0853 11.1965C25.2895 11.9734 25.5119 12.7591 25.5677 13.5628C25.5374 13.9911 25.5104 14.4198 25.4895 14.8487C25.4884 14.8758 25.4866 14.9032 25.4851 14.9303C25.4134 15.4343 25.3526 15.9385 25.5042 16.4057C25.5069 16.4214 25.5086 16.437 25.5116 16.4526C25.5991 16.9009 25.8668 17.3513 26.2864 17.5598C26.6995 17.765 27.1666 17.7073 27.5283 17.4267C28.2831 16.8412 28.3822 15.7369 28.3134 14.8558L28.3143 14.8564Z" fill="#DDF0FC"/>
<path d="M28.4762 9.98083C28.8738 11.6006 29.5733 13.2268 29.3057 14.873C29.2228 15.3832 29.1032 16.0332 29.5401 16.3079C29.697 16.4068 29.8906 16.423 30.0758 16.4339C30.418 16.4536 30.76 16.4619 31.1023 16.4619C31.0982 15.4309 30.9219 14.3767 30.6884 13.3766C30.2003 11.285 29.5002 9.16625 29.7875 7.03751C29.8962 6.23205 30.1466 5.42983 30.0525 4.62232C29.9585 3.8148 29.3674 2.97667 28.5561 2.97461L28.4821 3.01671C28.5174 3.02318 28.5517 3.02995 28.5835 3.03761C29.6212 3.28931 27.9183 7.70842 28.4762 9.98083Z" fill="#7EA9BC"/>
<path d="M44.6621 15.6105C44.0187 13.1903 43.7792 10.6629 43.9564 8.16443C44.019 7.28449 44.1321 6.39366 43.9711 5.52638C43.7642 4.41094 43.1175 3.41442 42.9121 2.29868C42.8737 2.08907 42.8596 1.85267 42.96 1.6731C42.6474 1.94511 42.3721 2.26041 42.1491 2.61014C41.944 2.93191 41.7795 3.2896 41.7439 3.66966C41.706 4.07533 41.8168 4.47835 41.9158 4.87342C42.1941 5.98269 42.3906 7.12611 42.311 8.26717C42.2008 9.8457 41.5697 11.3421 41.3417 12.908C41.2195 13.7476 41.2151 14.5966 41.2853 15.4427C42.4135 15.3962 43.5392 15.4309 44.6615 15.6105H44.6621Z" fill="#7EA9BC"/>
<path d="M30.8569 25.4541C32.3174 26.8315 34.261 27.4412 36.0089 28.3459C36.9151 28.8149 37.738 29.3942 38.4978 30.0751C39.2171 30.7196 39.8805 31.4226 40.5528 32.1153C41.2427 32.8262 41.9452 33.5278 42.7206 34.1463C43.5065 34.773 44.3512 35.3239 45.2444 35.7846C45.726 36.0327 46.2211 36.2547 46.7262 36.4511C47.0003 36.5576 47.2776 36.6589 47.5585 36.7466C47.7783 36.8152 48.0128 36.8582 48.2223 36.7337C48.5581 36.5341 48.6266 36.0519 48.4788 35.7169C48.281 35.2688 47.7636 35.0889 47.3332 34.9529C47.1078 34.8817 47.0112 35.2361 47.2356 35.3071C47.5744 35.4139 48.1068 35.5655 48.1794 35.9786C48.2008 36.1002 48.1847 36.2497 48.1071 36.3507C47.9661 36.535 47.7125 36.4116 47.5359 36.353C46.6518 36.0601 45.7977 35.6824 44.9844 35.2285C44.1714 34.7745 43.3996 34.2458 42.6865 33.6464C41.9769 33.0503 41.327 32.3876 40.6827 31.7223C39.4101 30.4075 38.1332 29.0898 36.5152 28.2002C34.8792 27.3008 33.0393 26.7491 31.5597 25.5777C30.7681 24.951 30.1323 24.1582 29.7941 23.1985C29.448 22.2167 29.3913 21.1607 29.5171 20.1333C29.5456 19.8992 29.1789 19.9013 29.1507 20.1333C29.0311 21.1098 29.0772 22.118 29.3643 23.0627C29.6437 23.9821 30.159 24.7964 30.8569 25.4541Z" fill="white"/>
<path d="M46.6393 8.39383C46.5688 10.1299 46.5409 11.9162 47.0962 13.5857C47.3912 14.473 47.856 15.2958 48.5226 15.9559C48.6907 16.1222 48.9498 15.8625 48.7818 15.6962C47.5598 14.4866 47.1223 12.757 47.0042 11.0884C46.8711 9.21076 47.1391 7.33284 47.0386 5.45433C46.9798 4.35978 46.7891 3.27995 46.3549 2.26931C46.262 2.05293 45.9462 2.23957 46.0384 2.45477C46.8405 4.32151 46.7198 6.41022 46.6393 8.39353V8.39383Z" fill="white"/>
<path d="M46.0237 26.7477C46.1289 27.9629 46.1506 29.1985 46.4912 30.3696C46.6158 30.7979 46.7906 31.2272 47.107 31.541C47.4235 31.8548 47.9091 32.0297 48.3275 31.8766C48.899 31.6673 49.1164 30.9834 49.231 30.3846C49.5075 28.9409 49.6215 27.4666 49.5771 25.9973C49.6929 24.81 49.5416 23.5986 49.1576 22.4664C49.1294 22.3324 49.1011 22.1988 49.0703 22.0654L49.0818 22.2541C48.5611 20.8404 47.6761 19.5625 46.495 18.6278C46.2714 18.4509 46.0246 18.2798 45.7414 18.248C45.1637 18.1833 44.671 18.7447 44.5826 19.3202C44.4938 19.8957 44.6936 20.4713 44.872 21.0256C45.469 22.8815 45.8562 24.805 46.0243 26.7477H46.0237Z" fill="#DDF0FC"/>
<path d="M26.301 23.9191C25.8065 23.855 25.2847 24.0293 25.0103 24.4652C24.6976 24.9619 24.829 25.5942 24.9054 26.1371C25.0781 27.3671 25.3173 28.5876 25.6208 29.792C25.9155 30.9613 26.264 32.1227 26.6912 33.2508C27.0914 34.307 27.5809 35.3277 28.2842 36.2168C28.9897 37.1088 29.9243 37.7685 30.8948 38.342C31.8994 38.9358 32.9271 39.5422 34.0225 39.952C34.589 40.164 35.1742 40.2959 35.7768 40.3483C36.3986 40.4021 37.0235 40.3745 37.6461 40.3559C38.2699 40.3374 38.8904 40.3394 39.5118 40.4042C40.1203 40.4675 40.7227 40.5796 41.3217 40.7021C43.5991 41.1681 46.0196 41.8385 48.3175 41.0995C48.8002 40.9444 49.3576 40.7433 49.6861 40.3344C50.0134 39.9267 50.0022 39.3535 49.6112 38.9899C49.2756 38.6779 48.814 38.5569 48.3745 38.4839C47.7381 38.3782 47.1014 38.2728 46.465 38.1671C46.1048 38.1073 45.7446 38.0476 45.3843 37.9878C44.2531 37.5545 43.1995 36.8794 42.2537 36.1399C40.4682 34.743 38.9177 33.06 37.0309 31.7906C35.1252 30.5085 32.8319 29.9227 31.0441 28.451C30.1661 27.7283 29.3987 26.8819 28.6744 26.0079C28.3207 25.581 27.991 25.1309 27.6232 24.7164C27.2718 24.3207 26.8369 23.9886 26.3004 23.9189L26.301 23.9191Z" fill="#DDF0FC"/>
<path d="M47.2415 17.6927C47.0591 17.5467 46.7982 17.8049 46.9824 17.9524C48.673 19.3057 49.8362 21.2545 50.2558 23.3795C50.3757 23.9856 50.4283 24.6024 50.42 25.22C50.4168 25.4564 50.7835 25.4564 50.7864 25.22C50.8161 22.9741 50.0122 20.7555 48.5904 19.0236C48.1885 18.5338 47.7357 18.0884 47.2412 17.6924L47.2415 17.6927Z" fill="white"/>
<path d="M33.9872 40.9581C31.3094 40.4229 28.883 38.8097 27.317 36.5711C26.8719 35.9349 26.4943 35.2499 26.2026 34.5301C26.115 34.314 25.7604 34.4085 25.8491 34.6278C26.9159 37.26 29.0261 39.4235 31.6141 40.5813C32.3442 40.9081 33.1055 41.1557 33.89 41.3123C34.1203 41.3582 34.2187 41.0043 33.9875 40.9581H33.9872Z" fill="white"/>
<path d="M30.3257 41.1465C28.5084 40.5427 26.9553 39.2547 26.0154 37.5846C25.8997 37.3788 25.5829 37.5637 25.699 37.7701C26.6859 39.5241 28.3216 40.8671 30.2282 41.5006C30.4526 41.5751 30.5487 41.2207 30.3257 41.1465Z" fill="white"/>
<path d="M45.4396 6.43743C45.4396 6.67383 45.8063 6.67412 45.806 6.43743C45.8048 5.30491 45.6688 4.17592 45.4026 3.07519C45.347 2.84556 44.9936 2.94271 45.0491 3.17293C45.308 4.24304 45.4381 5.33641 45.4393 6.43743H45.4396Z" fill="white"/>
<path d="M24.2679 7.75294C24.4697 7.58014 24.6683 7.4038 24.8655 7.22628C25.3303 6.80736 25.7825 6.3749 26.2217 5.92948C26.7494 5.39428 27.2589 4.84141 27.7478 4.2697C27.9006 4.09101 27.6423 3.83018 27.4887 4.01005C26.4204 5.25974 25.2568 6.42436 24.0087 7.49329C23.8292 7.64696 24.0895 7.90573 24.2679 7.75294Z" fill="white"/>
</svg>
