<svg width="104" height="43" viewBox="0 0 104 43" fill="none" xmlns="http://www.w3.org/2000/svg">
<g clip-path="url(#clip0_352_2029)">
<path d="M61.675 15.9146C61.675 15.9146 62.8641 11.0859 68.579 8.55958C74.294 6.0333 80.3389 8.7781 81.418 11.5229C81.418 11.5229 83.9009 9.87602 87.2429 10.9739C90.5849 12.0719 90.9097 16.0212 90.9097 16.0212C90.9097 16.0212 95.8755 17.3376 96.4151 25.7852C96.9494 34.1528 91.444 36.8763 91.444 36.8763L80.5589 35.7783L64.0532 26.3395L61.6803 15.9146H61.675Z" fill="#C7C4C0"/>
<path d="M89.1235 18.7714C89.0816 18.7714 89.0345 18.7607 88.9925 18.7394C88.8668 18.6648 88.8197 18.5049 88.893 18.3716C88.9035 18.3503 89.8988 16.4902 88.9402 14.1985C88.0025 11.9493 85.9596 11.912 85.8706 11.912C85.7239 11.912 85.6086 11.7895 85.6086 11.6402C85.6086 11.491 85.7291 11.3684 85.8758 11.3684C85.9753 11.3684 88.3535 11.4004 89.4326 13.9853C90.4959 16.5276 89.4064 18.5475 89.3592 18.6328C89.3121 18.7181 89.223 18.7714 89.1287 18.7714H89.1235Z" fill="#DCD9D5"/>
<path d="M94.3617 31.2641C94.3093 31.2641 94.2517 31.2481 94.2045 31.2108C94.0841 31.1256 94.0579 30.955 94.1469 30.8324C94.1521 30.8218 94.8803 29.7345 94.9379 26.8192C95.0112 22.9658 93.6493 20.6154 93.6388 20.5887C93.5655 20.4608 93.6021 20.2956 93.7279 20.221C93.8536 20.1464 94.016 20.1837 94.0893 20.3116C94.1469 20.4129 95.5455 22.8112 95.467 26.8298C95.4041 29.9424 94.6079 31.0989 94.5765 31.1469C94.5241 31.2215 94.4455 31.2588 94.3617 31.2588V31.2641Z" fill="#DCD9D5"/>
<path d="M81.5384 18.7714C81.5384 18.7714 81.4913 18.7714 81.4651 18.7607C81.3237 18.7181 81.2451 18.5689 81.2818 18.425C81.287 18.3983 82.0151 15.7228 80.5746 12.6742C79.1498 9.6576 75.6978 9.15128 75.6611 9.15128C75.5145 9.12996 75.4149 8.99672 75.4359 8.84749C75.4568 8.69826 75.5878 8.59699 75.7345 8.61831C75.8864 8.63963 79.506 9.16727 81.0565 12.445C82.5861 15.6855 81.8265 18.4623 81.7951 18.5795C81.7637 18.6968 81.6537 18.7767 81.5384 18.7767V18.7714Z" fill="#DCD9D5"/>
<path d="M82.9055 16.1332C82.9055 16.1332 82.8846 16.1332 82.8741 16.1332C82.7274 16.1119 82.6279 15.9786 82.6436 15.8294C82.7641 14.8541 82.5755 13.8468 82.1093 12.9833C82.036 12.8554 82.0831 12.6902 82.2141 12.6156C82.345 12.5463 82.5022 12.5889 82.5755 12.7222C83.0941 13.6815 83.3089 14.8114 83.1727 15.8987C83.1569 16.0373 83.0417 16.1332 82.9107 16.1332H82.9055Z" fill="#DCD9D5"/>
<path d="M15.107 42.9841C15.107 42.9841 8.334 29.2229 12.6713 23.7066C17.0085 18.1904 22.603 20.0291 22.603 20.0291C22.603 20.0291 21.1363 13.7508 26.2174 9.55629C32.2989 4.53571 39.402 8.20787 39.402 8.20787C39.402 8.20787 41.9321 4.77555 45.3631 5.1433C48.7942 5.51105 49.6951 9.002 49.6951 9.002C49.6951 9.002 53.671 5.1433 59.4487 7.89875C65.2265 10.6542 64.687 16.9006 64.687 16.9006C64.687 16.9006 70.2867 13.0419 76.4259 15.9839C82.5651 18.9259 80.2184 28.2955 80.2184 28.2955C80.2184 28.2955 82.387 28.4767 83.8327 32.3407C85.2785 36.1994 78.5945 43.0001 78.5945 43.0001L15.1123 42.9788L15.107 42.9841Z" fill="#F2F1F0"/>
<path d="M63.3144 34.8723H15.1069V42.9788H63.3144V34.8723Z" fill="#AFACA8"/>
<path d="M60.6222 26.915C60.5593 26.915 60.4912 26.8883 60.4388 26.8404C60.3341 26.7391 60.3288 26.5686 60.4284 26.4566C60.4598 26.4247 63.5923 22.971 63.1575 17.199C62.7227 11.4749 59.0245 9.81732 58.9826 9.80133C58.8464 9.74271 58.7836 9.58282 58.8412 9.44957C58.8988 9.311 59.0507 9.24704 59.1869 9.30567C59.3493 9.37496 63.2256 11.0911 63.6813 17.1616C64.137 23.1842 60.947 26.6858 60.8108 26.8297C60.7584 26.883 60.6903 26.915 60.617 26.915H60.6222Z" fill="#DCD9D5"/>
<path d="M78.5002 19.6613C78.4216 19.6613 78.3378 19.624 78.2854 19.5547C75.4411 15.696 69.9304 16.6181 69.8728 16.6287C69.7261 16.6554 69.59 16.5541 69.5638 16.4102C69.5376 16.261 69.6371 16.1224 69.7785 16.0958C69.8362 16.0851 75.6611 15.1044 78.7045 19.2296C78.7935 19.3469 78.7673 19.5174 78.6521 19.608C78.605 19.6453 78.5473 19.6613 78.495 19.6613H78.5002Z" fill="#DCD9D5"/>
<path d="M49.2394 11.7575C49.1137 11.7575 49.0037 11.6669 48.9775 11.5389C47.8723 5.91078 44.2841 6.40111 44.1322 6.42243C43.9855 6.44375 43.8545 6.34249 43.8283 6.19858C43.8074 6.04935 43.9017 5.91611 44.0484 5.88946C44.0903 5.88946 48.2861 5.27655 49.4961 11.4323C49.5223 11.5762 49.4333 11.7202 49.2866 11.7521C49.2709 11.7521 49.2499 11.7575 49.2342 11.7575H49.2394Z" fill="#DCD9D5"/>
<path d="M27.2966 10.3771C27.2127 10.3771 27.1289 10.3345 27.0765 10.2545C26.998 10.1319 27.0294 9.96138 27.1499 9.88144C27.2127 9.8388 33.3153 5.78823 39.7059 9.41242C39.8317 9.48704 39.8788 9.64693 39.8107 9.78017C39.7374 9.91342 39.5802 9.95605 39.4493 9.88677C33.352 6.42779 27.5008 10.2972 27.4432 10.3345C27.3961 10.3664 27.3489 10.3771 27.2966 10.3771Z" fill="#DCD9D5"/>
<path d="M57.0497 21.6226C56.9973 21.6226 56.9397 21.6066 56.8925 21.5693C56.7721 21.4787 56.7511 21.3135 56.8349 21.1909C57.9192 19.6932 57.8459 17.4015 56.6673 15.9784C55.4887 14.5554 53.2834 14.0917 51.6491 14.9178C51.5181 14.9818 51.3557 14.9285 51.2929 14.7952C51.23 14.662 51.2824 14.5021 51.4134 14.4328C53.2886 13.4788 55.7244 13.9958 57.0759 15.6267C58.4274 17.2576 58.5059 19.7892 57.2645 21.5053C57.2121 21.5746 57.1335 21.6172 57.0497 21.6172V21.6226Z" fill="#DCD9D5"/>
<path d="M25.4891 22.4168C25.4053 22.4168 25.3267 22.3795 25.2744 22.3049C23.8496 20.2956 23.7867 17.4495 25.112 15.371C26.4372 13.2977 29.0249 12.2051 31.4083 12.7114C31.5498 12.7434 31.6441 12.8873 31.6126 13.0312C31.5812 13.1751 31.4398 13.2711 31.2983 13.2391C29.1611 12.7861 26.7463 13.804 25.5572 15.6641C24.3681 17.5242 24.431 20.1837 25.7091 21.9851C25.7929 22.1077 25.7668 22.2729 25.6515 22.3635C25.6044 22.3955 25.552 22.4168 25.4944 22.4168H25.4891Z" fill="#DCD9D5"/>
<path d="M14.1694 24.5699C14.117 24.5699 14.0646 24.5539 14.0175 24.5219C13.897 24.4367 13.8656 24.2715 13.9494 24.1435C14.8609 22.8005 16.2018 21.7878 17.7314 21.2868C18.6848 20.9777 19.7272 20.8658 20.7382 20.9777C20.8848 20.9937 20.9896 21.1269 20.9739 21.2762C20.9582 21.4254 20.8272 21.5373 20.6805 21.516C19.7377 21.4147 18.7738 21.516 17.8938 21.8038C16.4795 22.2675 15.2328 23.2055 14.3894 24.4527C14.337 24.5273 14.2532 24.5699 14.1694 24.5699Z" fill="#DCD9D5"/>
<path d="M78.1911 22.5979C78.1911 22.5979 78.1806 22.5979 78.1754 22.5979C78.0287 22.5872 77.9187 22.4593 77.9292 22.3101C78.0182 20.8551 77.0125 19.3947 75.6296 18.9897C75.4881 18.9471 75.4096 18.7978 75.4462 18.6539C75.4881 18.51 75.6348 18.4301 75.7762 18.4674C77.3844 18.9417 78.563 20.6419 78.4582 22.3421C78.4477 22.486 78.3325 22.5926 78.1963 22.5926L78.1911 22.5979Z" fill="#DCD9D5"/>
<path d="M40.5806 12.6687C40.4915 12.6687 40.4077 12.626 40.3606 12.5461C39.6953 11.5068 38.5272 10.8246 37.3119 10.7607C37.1652 10.7553 37.0552 10.6274 37.0605 10.4782C37.0657 10.3289 37.1967 10.217 37.3381 10.2224C38.721 10.297 40.0515 11.0751 40.8058 12.253C40.8844 12.3755 40.853 12.5461 40.7272 12.626C40.6801 12.658 40.633 12.6687 40.5806 12.6687Z" fill="#DCD9D5"/>
<path d="M73.063 9.65207C72.953 9.65207 72.8535 9.58278 72.8116 9.47086C72.4554 8.43689 71.6382 7.5948 70.6272 7.21639C69.6162 6.83799 68.4586 6.94458 67.5262 7.49887C67.4005 7.57348 67.2381 7.53085 67.1647 7.40293C67.0914 7.27502 67.1333 7.1098 67.259 7.03518C68.3224 6.40095 69.6529 6.27837 70.8106 6.71007C71.9682 7.14178 72.9059 8.10645 73.3144 9.29498C73.3616 9.43355 73.2882 9.58811 73.1521 9.63608C73.1206 9.64674 73.0944 9.65207 73.063 9.65207Z" fill="#DCD9D5"/>
<path d="M22.5611 11.7414C22.5349 11.7414 22.5087 11.7414 22.4773 11.7255C22.3359 11.6775 22.2625 11.5283 22.3097 11.3844C22.8859 9.58824 24.0488 8.02131 25.5836 6.97136C27.1236 5.91608 28.9884 5.40976 30.8375 5.54833C30.9842 5.55899 31.0942 5.6869 31.0837 5.83613C31.0732 5.98537 30.9475 6.09729 30.8009 6.08663C29.067 5.95872 27.3227 6.43306 25.8821 7.41906C24.4416 8.40505 23.3521 9.87605 22.8125 11.5549C22.7759 11.6668 22.6711 11.7414 22.5611 11.7414Z" fill="#DCD9D5"/>
<path d="M39.3183 6.52364C39.2659 6.52364 39.2135 6.50765 39.1663 6.47567C39.0459 6.39039 39.0197 6.21984 39.1035 6.09726C40.3764 4.25319 42.6341 3.16593 44.8394 3.30983C44.986 3.32049 45.096 3.4484 45.0856 3.59763C45.0751 3.74687 44.9494 3.86412 44.8027 3.84813C42.7807 3.72022 40.7064 4.71687 39.5383 6.41171C39.4859 6.48633 39.4021 6.52897 39.3235 6.52897L39.3183 6.52364Z" fill="#DCD9D5"/>
<path d="M74.9119 7.43498C74.7862 7.43498 74.671 7.33904 74.65 7.21113C74.5348 6.51294 73.8067 5.96931 73.1205 6.07058C72.9738 6.09722 72.8428 5.99063 72.8219 5.8414C72.8009 5.69217 72.9004 5.55893 73.0471 5.53761C74.0214 5.38837 75.0167 6.13453 75.1791 7.12053C75.2053 7.26976 75.1057 7.40833 74.9591 7.42965C74.9434 7.42965 74.9276 7.42965 74.9172 7.42965L74.9119 7.43498Z" fill="#DCD9D5"/>
<path d="M42.1207 1.114C42.0526 1.114 41.9845 1.08736 41.9321 1.03406C41.8273 0.927466 41.8273 0.756915 41.9321 0.650321C42.6759 -0.111825 43.9383 -0.223749 44.8026 0.389166C44.9231 0.474441 44.9546 0.644992 44.8655 0.767575C44.7817 0.890158 44.6141 0.916806 44.4936 0.831531C43.844 0.367847 42.8593 0.458452 42.2988 1.02873C42.2464 1.08203 42.1783 1.10868 42.1102 1.10868L42.1207 1.114Z" fill="#DCD9D5"/>
<path d="M19.9314 12.9406C19.8214 12.9406 19.7166 12.866 19.68 12.754C19.3709 11.7894 19.5647 10.6968 20.1828 9.90799C20.2719 9.79073 20.4395 9.76941 20.5548 9.86535C20.67 9.95595 20.6857 10.1265 20.5967 10.2438C20.0938 10.8833 19.9314 11.8054 20.1828 12.5835C20.23 12.7274 20.1514 12.8766 20.0152 12.9246C19.989 12.9353 19.9576 12.9406 19.9314 12.9406Z" fill="#DCD9D5"/>
<path d="M60.6011 42.984H99.3588C99.3588 42.984 99.2331 39.7435 97.9497 37.5211C96.6663 35.2986 93.3296 35.0428 93.3296 35.0428C93.3296 35.0428 94.3772 30.1448 90.2495 27.0802C85.8756 23.8291 81.7845 27.6345 81.7845 27.6345C81.7845 27.6345 81.1088 24.2075 76.9758 24.1115C73.7595 24.0369 71.6171 26.1368 71.4914 29.0042C71.4914 29.0042 65.2055 29.1375 62.2249 34.5098C59.6634 39.1253 60.6063 42.9787 60.6063 42.9787L60.6011 42.984Z" fill="#DCD9D5"/>
<path d="M56.2849 5.60697C56.2849 5.60697 60.8893 6.06532 63.2361 8.91671C65.5828 11.7628 65.8552 14.5236 65.8552 14.5236C65.8552 14.5236 69.2862 12.8713 71.9944 13.3297C71.9944 13.3297 72.6282 9.01265 69.7367 8.27715C67.3481 7.66956 66.2166 9.28979 66.2166 9.28979C66.2166 9.28979 66.5781 7.45105 64.6818 5.98005C63.1051 4.75955 57.9978 3.68295 56.2849 5.6123V5.60697Z" fill="#F2F1F0"/>
<path d="M82.654 25.087C82.654 25.087 87.4418 22.241 91.7738 26.0037C91.7738 26.0037 94.3929 21.9585 92.5857 20.4928C90.7785 19.0218 88.6099 21.5055 88.6099 21.5055C88.6099 21.5055 88.0703 20.0345 85.9017 20.221C83.7331 20.4076 81.8368 23.163 82.6488 25.0924L82.654 25.087Z" fill="#DCD9D5"/>
<path d="M89.8776 39.2106C89.799 39.2106 89.7257 39.1786 89.6733 39.1093C89.579 38.992 89.5999 38.8215 89.7152 38.7309C91.4124 37.3398 92.3081 34.9361 91.9519 32.7456C91.6062 30.6457 90.019 28.1728 87.6566 27.5119C87.5151 27.4746 87.4313 27.3253 87.4732 27.1814C87.5099 27.0375 87.6566 26.9523 87.798 26.9949C90.4957 27.7517 92.1091 30.4592 92.4757 32.6604C92.8738 35.0694 91.9205 37.617 90.0504 39.1519C90.0033 39.1946 89.9404 39.2106 89.8828 39.2106H89.8776Z" fill="#C7C4C0"/>
<path d="M80.9202 28.8817C80.7893 28.8817 80.6793 28.7858 80.6583 28.6525C80.5117 27.6879 79.9878 26.7978 79.2178 26.2062C78.453 25.6146 77.4682 25.3428 76.5149 25.4601C76.3682 25.4707 76.2372 25.3748 76.2215 25.2256C76.2058 25.0763 76.3106 24.9431 76.452 24.9271C77.5363 24.7938 78.6678 25.103 79.5373 25.7798C80.4121 26.4514 81.0093 27.4694 81.1769 28.5726C81.1979 28.7218 81.0983 28.8604 80.9569 28.8817C80.9412 28.8817 80.9307 28.8817 80.915 28.8817H80.9202Z" fill="#C7C4C0"/>
<path d="M97.9184 41.7476C97.7874 41.7476 97.6722 41.6464 97.6565 41.5131C97.515 40.3672 97.3264 39.5678 96.7293 38.6191C95.734 37.0415 93.9844 36.855 93.9687 36.8496C93.8221 36.8336 93.7173 36.7057 93.7278 36.5565C93.7435 36.4073 93.8744 36.2953 94.0159 36.3113C94.0997 36.3167 96.0326 36.5192 97.1745 38.326C97.8241 39.3546 98.0388 40.25 98.1855 41.4438C98.2012 41.5931 98.1017 41.7263 97.955 41.7476C97.9446 41.7476 97.9341 41.7476 97.9236 41.7476H97.9184Z" fill="#C7C4C0"/>
<path d="M89.2018 42.4672C89.1076 42.4672 89.0133 42.4139 88.9661 42.3233C88.3952 41.2201 87.3947 40.3726 86.2213 40.0102C85.3203 39.7277 83.9846 39.5359 82.7431 40.2127C82.6698 40.2554 82.5755 40.2554 82.5021 40.2127C82.4236 40.1754 82.3712 40.1008 82.3555 40.0155C82.015 37.9423 80.7368 36.0822 78.9401 35.0429C77.1434 34.0036 74.9172 33.8438 72.9947 34.6112C72.8585 34.6645 72.7066 34.5952 72.649 34.4567C72.5966 34.3181 72.6647 34.1635 72.8009 34.1049C74.8753 33.2788 77.2639 33.4494 79.202 34.5686C81.0354 35.6292 82.3659 37.4786 82.8112 39.5678C83.8536 39.1095 85.0741 39.0775 86.3732 39.4826C87.6828 39.8876 88.7985 40.831 89.4323 42.0621C89.5004 42.1954 89.4533 42.3553 89.3223 42.4246C89.2857 42.4459 89.2385 42.4565 89.2018 42.4565V42.4672Z" fill="#C7C4C0"/>
<path d="M93.9267 23.1149C93.8848 23.1149 93.8429 23.1043 93.8063 23.0829C93.6753 23.0137 93.6229 22.8538 93.691 22.7205C94.0053 22.0969 94.0053 21.3241 93.691 20.7059C93.3767 20.0823 92.7586 19.6346 92.0776 19.5334C91.931 19.512 91.8314 19.3735 91.8524 19.2296C91.8733 19.0803 92.0043 18.9791 92.151 19.0004C92.9996 19.1283 93.7643 19.6826 94.1572 20.4607C94.5501 21.2335 94.5501 22.1982 94.1572 22.971C94.1101 23.0616 94.0158 23.1202 93.9215 23.1202L93.9267 23.1149Z" fill="#C7C4C0"/>
<path d="M101.407 40.3298C101.26 40.3298 101.145 40.2072 101.145 40.058C101.166 37.4464 99.4373 34.8775 97.0382 33.9555C96.902 33.9022 96.8339 33.7476 96.8863 33.6091C96.9387 33.4705 97.0906 33.4012 97.2268 33.4545C99.8302 34.4565 101.705 37.2332 101.679 40.0686C101.679 40.2179 101.559 40.3351 101.412 40.3351L101.407 40.3298Z" fill="#C7C4C0"/>
<path d="M82.2873 21.6013C82.2559 21.6013 82.2192 21.596 82.1878 21.58C82.0516 21.5214 81.9887 21.3668 82.0411 21.2282C82.6225 19.7892 84.0945 18.7552 85.624 18.7073C85.755 18.7073 85.8912 18.8192 85.8964 18.9684C85.8964 19.1177 85.7864 19.2402 85.6398 19.2456C84.3145 19.2829 83.0364 20.1836 82.5335 21.4308C82.4916 21.5373 82.3921 21.596 82.2873 21.596V21.6013Z" fill="#C7C4C0"/>
<path d="M95.4824 17.0658C95.3829 17.0658 95.2886 17.0125 95.2414 16.9165C94.9586 16.3249 94.2566 15.9625 93.6176 16.0691C93.4709 16.0958 93.3347 15.9945 93.3138 15.8506C93.2876 15.7014 93.3871 15.5628 93.5285 15.5415C94.4033 15.3923 95.3252 15.8719 95.7129 16.682C95.7757 16.8153 95.7234 16.9752 95.5924 17.0445C95.5557 17.0658 95.5138 17.0711 95.4772 17.0711L95.4824 17.0658Z" fill="#C7C4C0"/>
<path d="M103.686 40.8203C103.686 40.8203 103.659 40.8203 103.649 40.8203C103.502 40.799 103.403 40.6604 103.424 40.5165C103.523 39.8183 103.45 39.0988 103.219 38.438C103.172 38.2994 103.24 38.1448 103.382 38.0915C103.518 38.0436 103.67 38.1128 103.722 38.2567C103.984 39.0029 104.068 39.813 103.953 40.5965C103.932 40.7297 103.822 40.8257 103.691 40.8257L103.686 40.8203Z" fill="#C7C4C0"/>
<path d="M18.449 24.9004C20.3766 24.4101 23.7134 19.9545 28.805 17.3056C34.1008 14.5502 49.6951 15.6534 54.7552 18.7873C58.7782 21.2816 61.2244 23.8452 62.7907 24.522C64.2312 25.1403 40.7586 28.5086 40.7586 28.5086L18.4542 24.9004H18.449Z" fill="#FFA600"/>
<path d="M62.7855 24.5221L18.449 24.9005C18.449 24.9005 6.33823 26.9471 3.89721 27.9598C1.46143 28.9724 1.2519 29.6813 0.817124 31.3068C0.555212 32.2875 0.549973 37.3027 0.586641 39.2961H70.5486V34.8244C70.5486 34.4833 70.4281 34.1582 70.2133 33.8971L70.0143 33.6572C69.7995 33.3961 69.679 33.071 69.679 32.7299V28.5567C69.679 27.3256 68.8357 26.2596 67.6571 25.9931C67.6571 25.9931 63.7493 24.9432 62.7855 24.5115V24.5221Z" fill="#FFA600"/>
<path d="M22.3622 39.296C22.8126 38.326 22.6607 36.7218 22.4198 35.416C21.8383 32.2555 18.8054 29.9744 15.652 29.9744C12.4985 29.9744 9.65419 32.2661 8.99417 35.4746C8.92607 35.8157 8.63273 37.3453 8.87369 39.296H22.3569H22.3622Z" fill="#AF4B29"/>
<path d="M70.5537 35.4693H66.9132C66.9132 35.4693 65.6455 30.1396 60.1087 30.1396C54.5719 30.1396 53.2466 35.3468 53.2466 35.3468H22.0005L22.1053 39.3014H70.5537V35.4693Z" fill="#AF4B29"/>
<path d="M0.649535 38.2194H11.1627V39.3014H0.649535C0.356193 39.3014 0.115234 39.0562 0.115234 38.7577C0.115234 38.4593 0.356193 38.2141 0.649535 38.2141V38.2194Z" fill="#48310D"/>
<path d="M56.0753 38.2192H20.9163V39.3012H56.0753V38.2192Z" fill="#48310D"/>
<path d="M64.4722 38.2192H70.5328C70.8261 38.2192 71.0671 38.4644 71.0671 38.7629C71.0671 39.0613 70.8261 39.3065 70.5328 39.3065H64.4722V38.2246V38.2192Z" fill="#48310D"/>
<path d="M21.3196 39.296C22.1787 34.8723 19.4338 31.5093 15.6571 31.5093C11.8803 31.5093 9.36071 34.7231 9.99454 39.296H21.3248H21.3196Z" fill="#1F2123"/>
<path d="M15.6571 42.9841C18.4778 42.9841 20.7644 40.5693 20.7644 37.5904C20.7644 34.6116 18.4778 32.1968 15.6571 32.1968C12.8364 32.1968 10.5498 34.6116 10.5498 37.5904C10.5498 40.5693 12.8364 42.9841 15.6571 42.9841Z" fill="#36393D"/>
<path d="M18.821 37.5905C18.821 39.4346 17.4014 40.9322 15.6571 40.9322C13.9127 40.9322 12.4932 39.4346 12.4932 37.5905C12.4932 35.7464 13.9127 34.2488 15.6571 34.2488C17.4014 34.2488 18.821 35.7464 18.821 37.5905Z" fill="#86B3B1"/>
<path d="M18.2292 37.5905C18.2292 39.0881 17.0767 40.3033 15.6572 40.3033C14.2376 40.3033 13.0852 39.0881 13.0852 37.5905C13.0852 36.0929 14.2376 34.8777 15.6572 34.8777C17.0767 34.8777 18.2292 36.0929 18.2292 37.5905Z" fill="#4B6D70"/>
<path d="M65.7295 39.3013C66.5886 34.9096 63.8438 31.5679 60.067 31.5679C56.2902 31.5679 53.7706 34.7604 54.4045 39.3013H65.7348H65.7295Z" fill="#1F2123"/>
<path d="M60.0616 42.9841C62.8823 42.9841 65.1689 40.5693 65.1689 37.5904C65.1689 34.6116 62.8823 32.1968 60.0616 32.1968C57.241 32.1968 54.9543 34.6116 54.9543 37.5904C54.9543 40.5693 57.241 42.9841 60.0616 42.9841Z" fill="#36393D"/>
<path d="M63.2255 37.5905C63.2255 39.4346 61.8059 40.9322 60.0616 40.9322C58.3173 40.9322 56.8977 39.4346 56.8977 37.5905C56.8977 35.7464 58.3173 34.2488 60.0616 34.2488C61.8059 34.2488 63.2255 35.7464 63.2255 37.5905Z" fill="#86B3B1"/>
<path d="M62.6337 37.5905C62.6337 39.0881 61.4813 40.3033 60.0617 40.3033C58.6422 40.3033 57.4897 39.0881 57.4897 37.5905C57.4897 36.0929 58.6422 34.8777 60.0617 34.8777C61.4813 34.8777 62.6337 36.0929 62.6337 37.5905Z" fill="#4B6D70"/>
<path d="M37.1967 27.6187H33.7604C33.5666 27.6187 33.4094 27.7785 33.4094 27.9757V28.7912C33.4094 28.9884 33.5666 29.1483 33.7604 29.1483H37.1967C37.3905 29.1483 37.5476 28.9884 37.5476 28.7912V27.9757C37.5476 27.7785 37.3905 27.6187 37.1967 27.6187Z" fill="#48310D"/>
<path d="M55.122 27.6187H51.6857C51.4918 27.6187 51.3347 27.7785 51.3347 27.9757V28.7912C51.3347 28.9884 51.4918 29.1483 51.6857 29.1483H55.122C55.3158 29.1483 55.4729 28.9884 55.4729 28.7912V27.9757C55.4729 27.7785 55.3158 27.6187 55.122 27.6187Z" fill="#48310D"/>
<path d="M6.4535 32.6604H0.670485C0.591911 33.8968 0.570958 35.7356 0.576196 37.1906H6.4535C6.74684 37.1906 6.98256 36.9508 6.98256 36.6523V33.1933C6.98256 32.8949 6.74684 32.655 6.4535 32.655V32.6604Z" fill="#36393D"/>
<path d="M0.764893 31.6104C0.874896 31.6317 0.990137 31.6477 1.11062 31.6477H5.26454C6.21266 31.6477 6.98268 30.8643 6.98268 29.8996C6.98268 28.9349 6.21266 28.6951 5.26454 28.6951H3.10639C1.73921 29.5638 1.15252 30.0541 0.822513 31.3066C0.80156 31.3812 0.785846 31.4878 0.764893 31.6104Z" fill="#FFE5B6"/>
<path d="M67.6572 31.2428H69.6791V28.5673C69.6791 27.9224 69.4434 27.3255 69.0505 26.8618C68.2334 28.029 67.5838 29.2229 67.1909 30.4487C66.9971 30.8058 67.2486 31.2428 67.6519 31.2428H67.6572Z" fill="#FFE5B6"/>
<path d="M67.2695 30.2302H69.6791V28.5673C69.6791 27.9224 69.4434 27.3255 69.0505 26.8618C68.2858 27.9597 67.6624 29.0843 67.2695 30.2355V30.2302Z" fill="#B8724F"/>
<path d="M39.9415 37.484C39.842 37.484 39.7634 37.404 39.7634 37.3028V25.636C39.7634 25.5348 39.842 25.4548 39.9415 25.4548C40.0411 25.4548 40.1196 25.5348 40.1196 25.636V37.3028C40.1196 37.404 40.0411 37.484 39.9415 37.484Z" fill="#DA6B2D"/>
<path d="M52.9899 37.5798H24.1849C24.1377 37.5798 24.0906 37.5585 24.0539 37.5212C24.0225 37.4838 24.0015 37.4359 24.0068 37.3879C24.0068 37.3506 24.2425 33.5932 21.901 31.6105C21.8591 31.5785 21.8381 31.5252 21.8381 31.4719V25.087C21.8381 24.9857 21.9167 24.9058 22.0162 24.9058C22.1158 24.9058 22.1943 24.9857 22.1943 25.087V31.392C24.3263 33.2574 24.3892 36.4072 24.3682 37.2227H52.8118C52.8223 33.0282 56.0438 31.0616 56.6619 30.7258V25.5347C56.6619 25.4334 56.7405 25.3535 56.8401 25.3535C56.9396 25.3535 57.0182 25.4334 57.0182 25.5347V30.8377C57.0182 30.907 56.9762 30.971 56.9186 31.0029C56.882 31.0189 53.0842 32.895 53.168 37.4039C53.168 37.4519 53.1523 37.4998 53.1157 37.5318C53.0842 37.5638 53.0371 37.5851 52.9899 37.5851V37.5798Z" fill="#DA6B2D"/>
<path d="M22.7131 25.7584L56.6621 25.5239C56.8821 25.5239 57.0917 25.396 57.2069 25.1934L57.9141 23.9463C58.0345 23.7331 58.0345 23.4666 57.9141 23.2534C57.275 22.1289 55.1326 20.4927 52.5711 19.1602C48.2443 16.9111 35.4734 15.7759 29.8738 17.8171C26.8775 18.9097 23.5303 21.9637 22.0216 24.4047C21.6602 24.9909 22.0583 25.7637 22.7183 25.7584H22.7131Z" fill="#36393D"/>
<path d="M23.5458 25.3001L55.9653 25.0869C56.1801 25.0869 56.3739 24.975 56.4839 24.7885L57.1544 23.6586C57.2696 23.4667 57.2696 23.2215 57.1544 23.0297C56.5468 22.0117 54.4986 20.5993 52.0523 19.3948C47.9194 17.3589 35.7247 16.3303 30.3765 18.1797C27.5164 19.171 24.3159 21.8678 22.8753 24.0743C22.5296 24.6019 22.912 25.3055 23.5406 25.3001H23.5458Z" fill="#86B3B1"/>
<path d="M39.0354 17.0818V25.3375L40.8426 25.3268V17.1457C40.2402 17.1138 39.6378 17.0924 39.0354 17.0818Z" fill="#36393D"/>
<path d="M52.1256 19.3256C51.7904 19.155 51.3923 18.9951 50.9575 18.8406V25.2629L52.3142 25.2522V19.4268C52.2514 19.3949 52.1885 19.3576 52.1256 19.3256Z" fill="#36393D"/>
<path d="M0.791084 31.4559C0.780607 31.5038 0.775369 31.5571 0.764893 31.6104C0.874896 31.6317 0.990137 31.6477 1.11062 31.6477H3.45735C4.40547 31.6477 5.17549 30.8643 5.17549 29.8996C5.17549 28.9349 4.40547 28.6951 3.45735 28.6951H2.43065C1.3411 29.3933 1.14205 30.0968 0.822513 31.3066C0.812037 31.3439 0.80156 31.3866 0.796322 31.4345C0.796322 31.4345 0.796322 31.4452 0.796322 31.4505L0.791084 31.4559Z" fill="#B8724F"/>
<mask id="mask0_352_2029" style="mask-type:luminance" maskUnits="userSpaceOnUse" x="0" y="32" width="7" height="6">
<path d="M6.4535 32.6604H0.670485C0.591911 33.8968 0.570958 35.7356 0.576196 37.1906H6.4535C6.74684 37.1906 6.98256 36.9508 6.98256 36.6523V33.1933C6.98256 32.8949 6.74684 32.655 6.4535 32.655V32.6604Z" fill="white"/>
</mask>
<g mask="url(#mask0_352_2029)">
<path d="M6.07636 33.6356H0.1781C0.0785736 33.6356 0 33.5557 0 33.4544C0 33.3531 0.0785736 33.2732 0.1781 33.2732H6.07636C6.17588 33.2732 6.25446 33.3531 6.25446 33.4544C6.25446 33.5557 6.17588 33.6356 6.07636 33.6356Z" fill="#4B6D70"/>
<path d="M6.07636 34.6163H0.1781C0.0785736 34.6163 0 34.5364 0 34.4351C0 34.3339 0.0785736 34.2539 0.1781 34.2539H6.07636C6.17588 34.2539 6.25446 34.3339 6.25446 34.4351C6.25446 34.5364 6.17588 34.6163 6.07636 34.6163Z" fill="#4B6D70"/>
<path d="M6.07636 35.597H0.1781C0.0785736 35.597 0 35.5171 0 35.4158C0 35.3146 0.0785736 35.2346 0.1781 35.2346H6.07636C6.17588 35.2346 6.25446 35.3146 6.25446 35.4158C6.25446 35.5171 6.17588 35.597 6.07636 35.597Z" fill="#4B6D70"/>
<path d="M6.07636 36.5724H0.1781C0.0785736 36.5724 0 36.4924 0 36.3912C0 36.2899 0.0785736 36.21 0.1781 36.21H6.07636C6.17588 36.21 6.25446 36.2899 6.25446 36.3912C6.25446 36.4924 6.17588 36.5724 6.07636 36.5724Z" fill="#4B6D70"/>
</g>
<path d="M23.8182 24.6233C23.7815 24.6233 23.7448 24.6126 23.7134 24.5913C23.6348 24.5327 23.6139 24.4207 23.6715 24.3408C23.6977 24.3035 26.3168 20.6526 30.0202 19.0431C32.477 17.9771 37.9823 17.9292 38.2128 17.9238C38.3124 17.9238 38.3909 18.0038 38.3909 18.105C38.3909 18.2063 38.3124 18.2862 38.2181 18.2862C38.1604 18.2862 32.5503 18.3342 30.1564 19.3735C26.542 20.9404 23.9805 24.5167 23.9543 24.5486C23.9177 24.5966 23.8653 24.6233 23.8129 24.6233H23.8182Z" fill="#AFDDD2"/>
<path d="M38.1815 24.6232C38.082 24.6232 38.0034 24.5432 38.0034 24.4419V19.7571C38.0034 19.6559 38.082 19.5759 38.1815 19.5759C38.281 19.5759 38.3596 19.6559 38.3596 19.7571V24.4419C38.3596 24.5432 38.281 24.6232 38.1815 24.6232Z" fill="#AFDDD2"/>
<path d="M50.1456 24.6232C50.0461 24.6232 49.9675 24.5433 49.9675 24.442V20.5513C49.9675 20.4501 50.0461 20.3701 50.1456 20.3701C50.2452 20.3701 50.3237 20.4501 50.3237 20.5513V24.442C50.3237 24.5433 50.2452 24.6232 50.1456 24.6232Z" fill="#AFDDD2"/>
<path d="M50.1455 19.6292C50.1455 19.6292 50.1194 19.6292 50.1036 19.6292C45.2583 18.4514 41.5967 18.3341 41.5601 18.3341C41.4605 18.3341 41.3872 18.2488 41.3872 18.1476C41.3872 18.0463 41.4501 17.9664 41.5705 17.9717C41.6072 17.9717 45.3002 18.0943 50.1874 19.2775C50.2817 19.2988 50.3394 19.3947 50.3184 19.496C50.2974 19.5813 50.2241 19.6346 50.1455 19.6346V19.6292Z" fill="#AFDDD2"/>
<path d="M56.5833 23.4613C56.5362 23.4613 56.4891 23.44 56.4576 23.408C55.0538 21.9157 52.7961 20.7592 52.7751 20.7485C52.6861 20.7059 52.6547 20.594 52.6966 20.5087C52.7385 20.4234 52.8432 20.3808 52.9323 20.4287C53.0266 20.4767 55.2633 21.6226 56.7143 23.1575C56.7824 23.2268 56.7772 23.3441 56.7143 23.4134C56.6776 23.4453 56.6357 23.4613 56.5938 23.4613H56.5833Z" fill="#AFDDD2"/>
<path d="M37.0239 27.7998H33.9543C33.798 27.7998 33.6714 27.9287 33.6714 28.0876V28.4394C33.6714 28.5983 33.798 28.7272 33.9543 28.7272H37.0239C37.1801 28.7272 37.3067 28.5983 37.3067 28.4394V28.0876C37.3067 27.9287 37.1801 27.7998 37.0239 27.7998Z" fill="#AF4B29"/>
<path d="M54.9282 27.7998H51.8585C51.7023 27.7998 51.5757 27.9287 51.5757 28.0876V28.4394C51.5757 28.5983 51.7023 28.7272 51.8585 28.7272H54.9282C55.0844 28.7272 55.211 28.5983 55.211 28.4394V28.0876C55.211 27.9287 55.0844 27.7998 54.9282 27.7998Z" fill="#AF4B29"/>
<path d="M19.1197 34.5259C19.0673 34.5259 19.0201 34.5046 18.9835 34.462C18.4911 33.8757 17.8677 33.428 17.1763 33.1615C17.0872 33.1242 17.0401 33.023 17.0715 32.9323C17.1082 32.8417 17.2077 32.7884 17.302 32.8258C18.0511 33.1136 18.7216 33.5986 19.2559 34.2275C19.3187 34.3021 19.3082 34.4193 19.2349 34.4833C19.2035 34.5099 19.1616 34.5259 19.1197 34.5259Z" fill="#5D7F84"/>
<path d="M11.0265 37.7664C10.927 37.7664 10.8484 37.6864 10.8484 37.5852C10.8484 34.7924 13.0065 32.522 15.6519 32.522C15.7514 32.522 15.83 32.6019 15.83 32.7032C15.83 32.8044 15.7514 32.8844 15.6519 32.8844C13.1951 32.8844 11.1994 34.995 11.1994 37.5905C11.1994 37.6918 11.1208 37.7717 11.0213 37.7717L11.0265 37.7664Z" fill="#5D7F84"/>
<path d="M63.5398 34.5259C63.4874 34.5259 63.4403 34.5046 63.4036 34.462C62.9112 33.8757 62.2879 33.428 61.5964 33.1615C61.5074 33.1242 61.4602 33.023 61.4917 32.9323C61.5283 32.8417 61.6279 32.7884 61.7169 32.8258C62.466 33.1136 63.1365 33.5986 63.6708 34.2275C63.7336 34.3021 63.7232 34.4193 63.6498 34.4833C63.6184 34.5099 63.5765 34.5259 63.5346 34.5259H63.5398Z" fill="#5D7F84"/>
<path d="M55.452 37.7664C55.3525 37.7664 55.2739 37.6864 55.2739 37.5852C55.2739 34.7924 57.4321 32.522 60.0774 32.522C60.1769 32.522 60.2555 32.6019 60.2555 32.7032C60.2555 32.8044 60.1769 32.8844 60.0774 32.8844C57.6207 32.8844 55.6249 34.995 55.6249 37.5905C55.6249 37.6918 55.5463 37.7717 55.4468 37.7717L55.452 37.7664Z" fill="#5D7F84"/>
<path d="M6.93546 28.2048C6.85688 28.2048 6.78355 28.1462 6.7626 28.0662C6.74164 27.9703 6.79926 27.8744 6.89355 27.853C6.95641 27.837 13.5094 26.3287 18.6063 25.6892C18.7005 25.6732 18.7896 25.7478 18.8053 25.8437C18.8158 25.9397 18.7477 26.0303 18.6534 26.0463C13.5723 26.6805 7.04022 28.1888 6.97736 28.1995C6.96689 28.1995 6.95117 28.1995 6.93546 28.1995V28.2048Z" fill="#48310D"/>
<path d="M67.7096 27.0111C67.7096 27.0111 67.6624 27.0111 67.6415 26.9951C67.2748 26.8405 66.4943 26.6433 65.6719 26.4408C64.5771 26.169 63.3356 25.8652 62.5394 25.5241C62.4504 25.4868 62.4085 25.3802 62.4451 25.2896C62.4818 25.199 62.5866 25.1564 62.6756 25.1937C63.4457 25.5241 64.6714 25.8226 65.7505 26.0944C66.6253 26.3129 67.3848 26.4994 67.7777 26.6647C67.8667 26.702 67.9086 26.8086 67.872 26.8992C67.8458 26.9685 67.7777 27.0111 67.7096 27.0111Z" fill="#48310D"/>
<path d="M1.55043 31.2429C1.55043 31.2429 1.52424 31.2429 1.51377 31.2429C1.41948 31.2216 1.35662 31.1256 1.37757 31.0297C1.46138 30.6193 1.71806 29.8252 2.48808 29.1536C2.56141 29.0897 2.67142 29.095 2.73951 29.1749C2.80237 29.2496 2.79714 29.3615 2.71856 29.4308C2.02711 30.0384 1.79663 30.7419 1.7233 31.1096C1.70758 31.1949 1.63425 31.2535 1.55043 31.2535V31.2429Z" fill="#48310D"/>
</g>
<defs>
<clipPath id="clip0_352_2029">
<rect width="104" height="43" fill="white"/>
</clipPath>
</defs>
</svg>
