<svg width="27" height="27" viewBox="0 0 27 27" fill="none" xmlns="http://www.w3.org/2000/svg">
<path d="M5.92746 8.4248L5.10059 9.27699L10.2411 14.0927C10.2411 14.0927 21.9798 11.4096 21.9798 11.3083C21.9798 11.2071 22.0304 9.40145 22.0304 9.40145C22.0304 9.40145 21.8743 9.19473 21.771 9.08504C21.6676 8.97535 21.1192 8.48598 21.1192 8.48598L5.92746 8.4248Z" fill="#AC5811"/>
<path d="M8.28149 6.19109L8.57048 7.86805L17.4741 8.81094L20.5644 6.61086L15.118 5.61523L8.28149 6.19109Z" fill="#8A460A"/>
<path d="M6.88933 9.11675C6.88933 9.11675 5.54566 8.82354 5.04574 8.19284C4.75043 7.81948 4.73355 7.27948 5.00144 6.788C5.36847 6.11933 6.39574 5.80503 6.85558 5.71011C7.31543 5.61518 9.72433 4.79042 13.9578 4.91698C18.1914 5.04354 22.3932 5.98011 22.3131 7.46933C22.2329 8.95854 20.5053 8.94378 20.5053 8.94378L20.2522 6.39143L17.9488 6.41675C17.9488 6.41675 15.4323 6.14042 13.7216 6.07503C11.724 6.0012 10.2791 6.18472 10.2791 6.18472L7.4884 6.6762L6.88933 9.11675Z" fill="#E17F13"/>
<path d="M14.6897 8.03675C14.753 7.97347 19.4463 3.18519 19.4463 3.18519C19.4463 3.18519 19.3788 2.47855 19.4632 2.12207C19.6067 1.51879 20.2711 0.710895 20.8427 0.75941C21.4144 0.807926 23.0154 2.51863 22.9352 2.97847C22.8551 3.43832 22.3805 3.97832 21.9038 4.15129C21.4292 4.32636 20.9377 4.27785 20.9377 4.27785L16.972 8.24347L14.6897 8.03675Z" fill="#AE5614"/>
<path d="M19.9863 3.12186C20.3386 3.20413 21.1444 2.51858 21.2393 2.36038C21.3342 2.20218 21.0009 1.96382 20.8912 1.69382C20.7815 1.42382 20.7794 1.20233 20.558 1.25085C20.3365 1.29936 19.9568 1.71491 19.8598 2.05874C19.7163 2.5671 19.7796 3.07546 19.9863 3.12186Z" fill="#DF8116"/>
<path d="M5.14269 9.21167C5.14269 9.21167 3.45097 10.9814 3.55222 13.5443C3.65558 16.1072 4.70605 19.1342 5.55191 20.6972C6.39777 22.2603 7.57691 24.5173 8.03886 24.8253C8.50082 25.1332 9.87191 26.0508 13.0887 26.1078C16.8898 26.1753 18.668 25.2619 19.1025 24.878C19.5392 24.4941 20.6255 22.853 21.6253 20.288C22.6252 17.723 23.3424 15.4934 23.3171 13.1098C23.2918 10.7262 22.024 9.40573 22.024 9.40573C22.024 9.40573 18.8178 11.205 13.4093 11.0764C8.00089 10.9477 5.14269 9.21167 5.14269 9.21167Z" fill="#E07F14"/>
<path d="M13.2997 23.7558C18.2989 23.8444 20.7015 22.4205 20.7015 22.4205C20.7015 22.4205 21.1972 21.3405 21.4946 20.6318C21.8026 19.8914 22.2118 18.7313 22.2118 18.7313C22.2118 18.7313 20.2691 20.4736 13.2912 20.5031C7.69718 20.5263 4.63647 18.6152 4.63647 18.6152C4.63647 18.6152 5.13851 19.9315 5.56882 20.7478C6.17632 21.8995 6.56655 22.5787 6.56655 22.5787C6.56655 22.5787 9.04296 23.682 13.2997 23.7558Z" fill="#AC5811"/>
<path d="M10.648 6.00962C10.6923 5.6447 10.494 4.40017 7.99864 4.54571C5.3113 4.70181 5.51169 6.79431 5.64036 7.1972C5.95466 8.19282 6.53052 8.47126 6.56427 8.99439C6.60013 9.51751 6.16349 10.7388 6.07489 12.8693C5.9863 14.9998 6.19513 15.9933 6.26685 16.2886C6.40185 16.8413 6.80685 17.1956 7.24349 16.9172C7.68013 16.6388 7.4713 15.8182 7.41856 15.3288C7.36583 14.8395 7.40802 12.6204 7.56622 11.783C7.72231 10.9456 7.91427 10.4077 8.42052 10.549C8.92677 10.6903 8.76435 11.4033 8.72849 11.996C8.69263 12.5888 8.67575 13.7236 8.74536 14.2826C8.81497 14.8416 9.10817 15.1812 9.57856 15.1538C10.2093 15.1179 10.3506 14.6138 10.3843 13.7763C10.4202 12.9389 10.3675 12.3631 10.5067 11.5425C10.6459 10.722 11.0467 10.3043 11.361 10.1461C11.6753 9.99001 12.3904 9.86767 13.4725 9.90142C14.5546 9.93517 15.4089 10.0069 15.7401 10.4773C16.0712 10.9477 16.1767 12.0825 16.7863 12.536C17.398 12.9895 18.0941 12.536 18.3219 13.0254C18.5497 13.5148 18.689 14.6665 18.7058 16.0102C18.7227 17.3538 18.5666 19.0983 18.4611 19.8492C18.3557 20.6002 18.0983 21.6633 18.4443 22.2054C18.7122 22.6231 19.2986 22.5366 19.5601 22.0134C19.8217 21.4903 19.9799 20.3386 20.1001 19.0118C20.2225 17.685 20.2752 13.4979 20.3279 12.9917C20.3807 12.4854 20.754 11.3442 21.2877 9.67571C21.8678 7.85954 22.528 6.39564 21.1801 5.57509C20.4608 5.13634 20.0115 5.20173 20.0115 5.20173L18.6932 6.5222C18.6932 6.5222 19.4441 6.64454 19.4378 6.93353C19.4293 7.43556 16.2273 7.88275 14.0272 7.9186C11.8272 7.95446 8.76646 7.52626 8.76646 6.96728C8.76646 6.40829 10.5594 6.7247 10.648 6.00962Z" fill="#FFB803"/>
<path d="M19.7332 5.90209C19.5687 6.24802 19.9399 6.31552 19.9842 6.57498C20.0264 6.83443 19.8809 7.23943 20.0539 7.28162C20.2268 7.3238 20.9335 7.08334 20.7774 6.3324C20.6213 5.58146 19.8408 5.67216 19.7332 5.90209ZM16.6535 10.0744C16.4363 10.1272 16.4447 10.7958 16.7485 11.4033C17.0839 12.0762 17.6365 12.0847 17.7652 11.8611C17.8939 11.6375 17.5416 11.4033 17.3075 10.9899C16.9636 10.3761 16.8687 10.0238 16.6535 10.0744ZM8.40167 7.84904C8.23292 8.12959 8.59151 8.58099 9.54917 8.85732C10.5068 9.13365 11.0067 8.9438 11.0321 8.58943C11.0532 8.30045 10.2305 8.23505 9.72214 8.08951C9.21167 7.94396 8.6337 7.46091 8.40167 7.84904ZM7.64229 4.93388C7.38284 4.79045 6.47792 4.86427 6.383 5.66584C6.30917 6.28599 7.10019 7.25841 7.56425 6.96732C7.84058 6.79435 7.35753 6.29443 7.49464 5.88099C7.60643 5.54982 8.00511 5.13216 7.64229 4.93388Z" fill="white"/>
<path d="M9.14203 13.6159C8.86992 13.6644 8.90578 14.2276 8.96696 14.4322C9.02813 14.6369 9.15891 14.9659 9.47953 14.8836C9.72422 14.8204 9.69258 14.4175 9.63985 14.1812C9.585 13.9429 9.44578 13.5611 9.14203 13.6159ZM6.62133 15.6451C6.35133 15.681 6.35977 15.9552 6.43992 16.2927C6.49688 16.5353 6.68883 16.8137 6.91875 16.7526C7.14867 16.6914 7.10227 16.3771 7.03477 16.1472C6.9736 15.9468 6.90399 15.6072 6.62133 15.6451Z" fill="#FFFCFF"/>
<path d="M18.8895 20.6593C18.6026 20.674 18.6237 21.039 18.6131 21.3997C18.6026 21.7604 18.5963 22.0241 18.8578 22.0241C19.1215 22.0241 19.1088 21.5452 19.1152 21.3237C19.1215 21.1023 19.1953 20.6445 18.8895 20.6593Z" fill="white"/>
</svg>
